M48
;DRILL file {KiCad 5.0.2-bee76a0~70~ubuntu18.04.1} date Sat 23 Mar 2019 05:03:17 PM EET
;FORMAT={-:-/ absolute / inch / decimal}
FMAT,2
INCH,TZ
T1C0.0118
T2C0.0157
T3C0.0394
T4C0.0400
T5C0.0598
%
G90
G05
T1
X5.4657Y-3.7943
X5.4972Y-3.8172
X5.675Y-4.025
X6.5Y-4.75
T2
X4.55Y-3.55
X4.55Y-3.725
X4.625Y-2.4
X4.95Y-4.475
X4.975Y-3.875
X4.975Y-4.05
X5.Y-3.675
X5.075Y-4.9
X5.1Y-2.4
X5.1Y-2.9
X5.1Y-3.44
X5.12Y-3.525
X5.18Y-3.7
X5.25Y-4.15
X5.3398Y-4.125
X5.3563Y-3.7963
X5.3713Y-4.1463
X5.375Y-3.86
X5.3822Y-3.9222
X5.4028Y-4.175
X5.4343Y-4.2
X5.4557Y-4.2693
X5.475Y-3.625
X5.5Y-4.225
X5.5Y-4.65
X5.525Y-3.625
X5.5348Y-3.9852
X5.54Y-3.9537
X5.5478Y-3.8278
X5.575Y-3.625
X5.6Y-4.725
X5.625Y-4.3
X5.675Y-4.075
X5.6907Y-3.8907
X5.725Y-2.85
X5.725Y-2.925
X5.75Y-3.75
X5.8Y-4.
X5.95Y-4.45
X5.975Y-3.325
X6.025Y-4.9
X6.05Y-2.675
X6.05Y-5.125
X6.075Y-4.3
X6.075Y-4.35
X6.075Y-4.75
X6.1Y-3.1
X6.1Y-3.56
X6.1Y-3.95
X6.1053Y-3.6553
X6.175Y-3.325
X6.175Y-4.725
X6.225Y-3.425
X6.225Y-3.625
X6.225Y-3.8
X6.225Y-4.2
X6.275Y-4.55
X6.32Y-3.95
X6.35Y-2.725
X6.35Y-3.275
X6.35Y-3.325
X6.35Y-3.825
X6.36Y-3.6
X6.375Y-3.1
X6.375Y-3.4
X6.425Y-4.5
X6.45Y-4.425
X6.525Y-4.925
X6.55Y-3.275
X6.575Y-4.875
X6.575Y-5.175
X6.6Y-3.275
X6.625Y-2.9
X6.65Y-4.275
X6.65Y-4.8
X6.65Y-5.15
X6.675Y-3.125
X6.675Y-3.425
X6.675Y-3.55
X6.675Y-3.9
X6.6785Y-5.0965
X6.75Y-3.65
X6.8Y-4.075
X6.8Y-4.475
X7.175Y-2.875
X7.175Y-3.2
T3
X7.325Y-2.85
X7.325Y-2.95
X7.325Y-3.05
X7.325Y-3.725
X7.325Y-3.825
X7.325Y-3.925
X7.025Y-2.85
X7.025Y-2.95
X7.025Y-3.05
X7.025Y-4.15
X7.025Y-4.25
X7.025Y-4.35
X7.325Y-4.575
X7.325Y-4.675
X7.325Y-4.775
X7.325Y-5.025
X7.325Y-5.125
X7.325Y-5.225
X7.025Y-3.275
X7.025Y-3.375
X7.025Y-3.475
X7.025Y-4.575
X7.025Y-4.675
X7.025Y-4.775
X7.325Y-3.275
X7.325Y-3.375
X7.325Y-3.475
X7.025Y-5.025
X7.025Y-5.125
X7.025Y-5.225
X7.025Y-3.725
X7.025Y-3.825
X7.025Y-3.925
X7.325Y-4.15
X7.325Y-4.25
X7.325Y-4.35
T4
X5.175Y-4.55
X5.175Y-4.65
X5.275Y-4.55
X5.275Y-4.65
X5.375Y-4.55
X5.375Y-4.65
X4.7Y-3.15
X4.7Y-3.25
X4.7Y-3.35
X4.7Y-3.45
X4.7Y-3.55
X4.7Y-3.65
X4.7Y-3.75
X4.7Y-3.85
X4.7Y-3.95
X4.7Y-4.05
X4.7Y-4.15
X4.7Y-4.25
X4.7Y-4.35
X4.7Y-4.45
X4.7Y-4.55
X4.7Y-4.65
X4.7Y-4.75
X4.7Y-4.85
X4.7Y-4.95
X4.7Y-5.05
X4.8Y-3.15
X4.8Y-3.25
X4.8Y-3.35
X4.8Y-3.45
X4.8Y-3.55
X4.8Y-3.65
X4.8Y-3.75
X4.8Y-3.85
X4.8Y-3.95
X4.8Y-4.05
X4.8Y-4.15
X4.8Y-4.25
X4.8Y-4.35
X4.8Y-4.45
X4.8Y-4.55
X4.8Y-4.65
X4.8Y-4.75
X4.8Y-4.85
X4.8Y-4.95
X4.8Y-5.05
T5
X7.Y-2.525
X7.2Y-2.525
T0
M30
