%TF.GenerationSoftware,KiCad,Pcbnew,5.0.2-bee76a0~70~ubuntu18.04.1*%
%TF.CreationDate,2019-03-23T17:03:40+02:00*%
%TF.ProjectId,servos_control_schem,73657276-6f73-45f6-936f-6e74726f6c5f,rev?*%
%TF.SameCoordinates,Original*%
%TF.FileFunction,Profile,NP*%
%FSLAX46Y46*%
G04 Gerber Fmt 4.6, Leading zero omitted, Abs format (unit mm)*
G04 Created by KiCad (PCBNEW 5.0.2-bee76a0~70~ubuntu18.04.1) date Sat 23 Mar 2019 05:03:40 PM EET*
%MOMM*%
%LPD*%
G01*
G04 APERTURE LIST*
%ADD10C,0.150000*%
%ADD11C,0.200000*%
G04 APERTURE END LIST*
D10*
X187325000Y-135255000D02*
X188595000Y-135255000D01*
X191770000Y-64135000D02*
X191770000Y-132080000D01*
X191770000Y-132080000D02*
G75*
G02X188595000Y-135255000I-3175000J0D01*
G01*
D11*
X165760335Y-135274003D02*
G75*
G02X154305001Y-132079999I-5105335J3829003D01*
G01*
D10*
X113030001Y-59690000D02*
X113030001Y-130809999D01*
X113030001Y-59690000D02*
G75*
G02X116205001Y-56515001I4444999J-1270000D01*
G01*
X173355000Y-53340000D02*
X186690000Y-56515000D01*
X186690000Y-56515000D02*
G75*
G02X191770000Y-64135000I-3175000J-7620000D01*
G01*
X156845000Y-57150000D02*
X164465000Y-53340000D01*
X146050000Y-57150000D02*
X142240000Y-53340000D01*
X156845000Y-57150000D02*
X146050000Y-57150000D01*
X164465001Y-53340001D02*
G75*
G02X173354999Y-53340001I4444999J-4444999D01*
G01*
X114935000Y-135255000D02*
X125095000Y-135255000D01*
X114935001Y-135254998D02*
G75*
G02X113030001Y-130809999I5714999J5079998D01*
G01*
X132715000Y-53340000D02*
X116205000Y-56515000D01*
X142240000Y-53340000D02*
X132715000Y-53340000D01*
X165735000Y-135255000D02*
X169545000Y-135255000D01*
X140970000Y-132080000D02*
X154305000Y-132080000D01*
X131445000Y-135255000D02*
X130175000Y-135255000D01*
X139699999Y-132079999D02*
G75*
G02X131445001Y-135254999I-5714999J2539999D01*
G01*
X139700000Y-132080000D02*
X140970000Y-132080000D01*
X126365000Y-135255000D02*
X130175000Y-135255000D01*
X169545000Y-135255000D02*
X187325000Y-135255000D01*
X126365000Y-135255000D02*
X125095000Y-135255000D01*
M02*
