%TF.GenerationSoftware,KiCad,Pcbnew,5.0.2-bee76a0~70~ubuntu18.04.1*%
%TF.CreationDate,2019-03-23T16:18:47+02:00*%
%TF.ProjectId,servos_control_schem,73657276-6f73-45f6-936f-6e74726f6c5f,rev?*%
%TF.SameCoordinates,Original*%
%TF.FileFunction,Copper,L2,Bot*%
%TF.FilePolarity,Positive*%
%FSLAX46Y46*%
G04 Gerber Fmt 4.6, Leading zero omitted, Abs format (unit mm)*
G04 Created by KiCad (PCBNEW 5.0.2-bee76a0~70~ubuntu18.04.1) date Sat 23 Mar 2019 04:18:47 PM EET*
%MOMM*%
%LPD*%
G01*
G04 APERTURE LIST*
%TA.AperFunction,NonConductor*%
%ADD10C,0.150000*%
%TD*%
%TA.AperFunction,NonConductor*%
%ADD11C,0.200000*%
%TD*%
%TA.AperFunction,ComponentPad*%
%ADD12O,1.700000X1.700000*%
%TD*%
%TA.AperFunction,ComponentPad*%
%ADD13R,1.700000X1.700000*%
%TD*%
%TA.AperFunction,ComponentPad*%
%ADD14O,1.727200X1.727200*%
%TD*%
%TA.AperFunction,ComponentPad*%
%ADD15R,1.727200X1.727200*%
%TD*%
%TA.AperFunction,ComponentPad*%
%ADD16C,3.000000*%
%TD*%
%TA.AperFunction,ComponentPad*%
%ADD17R,3.000000X3.000000*%
%TD*%
%TA.AperFunction,ViaPad*%
%ADD18C,0.800000*%
%TD*%
%TA.AperFunction,ViaPad*%
%ADD19C,2.000000*%
%TD*%
%TA.AperFunction,ViaPad*%
%ADD20C,0.600000*%
%TD*%
%TA.AperFunction,ViaPad*%
%ADD21C,0.700000*%
%TD*%
%TA.AperFunction,Conductor*%
%ADD22C,0.250000*%
%TD*%
%TA.AperFunction,Conductor*%
%ADD23C,0.500000*%
%TD*%
%TA.AperFunction,Conductor*%
%ADD24C,1.500000*%
%TD*%
%TA.AperFunction,Conductor*%
%ADD25C,1.000000*%
%TD*%
G04 APERTURE END LIST*
D10*
X187325000Y-135255000D02*
X188595000Y-135255000D01*
X191770000Y-64135000D02*
X191770000Y-132080000D01*
X191770000Y-132080000D02*
G75*
G02X188595000Y-135255000I-3175000J0D01*
G01*
D11*
X165760335Y-135274003D02*
G75*
G02X154305001Y-132079999I-5105335J3829003D01*
G01*
D10*
X113030001Y-59690000D02*
X113030001Y-130809999D01*
X113030001Y-59690000D02*
G75*
G02X116205001Y-56515001I4444999J-1270000D01*
G01*
X173355000Y-53340000D02*
X186690000Y-56515000D01*
X186690000Y-56515000D02*
G75*
G02X191770000Y-64135000I-3175000J-7620000D01*
G01*
X156845000Y-57150000D02*
X164465000Y-53340000D01*
X146050000Y-57150000D02*
X142240000Y-53340000D01*
X156845000Y-57150000D02*
X146050000Y-57150000D01*
X164465001Y-53340001D02*
G75*
G02X173354999Y-53340001I4444999J-4444999D01*
G01*
X114935000Y-135255000D02*
X125095000Y-135255000D01*
X114935001Y-135254998D02*
G75*
G02X113030001Y-130809999I5714999J5079998D01*
G01*
X132715000Y-53340000D02*
X116205000Y-56515000D01*
X142240000Y-53340000D02*
X132715000Y-53340000D01*
X165735000Y-135255000D02*
X169545000Y-135255000D01*
X140970000Y-132080000D02*
X154305000Y-132080000D01*
X131445000Y-135255000D02*
X130175000Y-135255000D01*
X139699999Y-132079999D02*
G75*
G02X131445001Y-135254999I-5714999J2539999D01*
G01*
X139700000Y-132080000D02*
X140970000Y-132080000D01*
X126365000Y-135255000D02*
X130175000Y-135255000D01*
X169545000Y-135255000D02*
X187325000Y-135255000D01*
X126365000Y-135255000D02*
X125095000Y-135255000D01*
D12*
%TO.P,CSEN4,3*%
%TO.N,Net-(CSEN4-Pad3)*%
X178435000Y-110490000D03*
%TO.P,CSEN4,2*%
%TO.N,Net-(CSEN4-Pad2)*%
X178435000Y-107950000D03*
D13*
%TO.P,CSEN4,1*%
%TO.N,GND*%
X178435000Y-105410000D03*
%TD*%
%TO.P,CSEN2,1*%
%TO.N,GND*%
X178435000Y-83185000D03*
D12*
%TO.P,CSEN2,2*%
%TO.N,Net-(CSEN2-Pad2)*%
X178435000Y-85725000D03*
%TO.P,CSEN2,3*%
%TO.N,Net-(CSEN2-Pad3)*%
X178435000Y-88265000D03*
%TD*%
%TO.P,CSEN1,3*%
%TO.N,Net-(CSEN1-Pad3)*%
X178435000Y-77470000D03*
%TO.P,CSEN1,2*%
%TO.N,Net-(CSEN1-Pad2)*%
X178435000Y-74930000D03*
D13*
%TO.P,CSEN1,1*%
%TO.N,GND*%
X178435000Y-72390000D03*
%TD*%
%TO.P,CSEN3,1*%
%TO.N,GND*%
X178435000Y-94615000D03*
D12*
%TO.P,CSEN3,2*%
%TO.N,Net-(CSEN3-Pad2)*%
X178435000Y-97155000D03*
%TO.P,CSEN3,3*%
%TO.N,Net-(CSEN3-Pad3)*%
X178435000Y-99695000D03*
%TD*%
%TO.P,CSEN5,3*%
%TO.N,Net-(CSEN5-Pad3)*%
X178435000Y-121285000D03*
%TO.P,CSEN5,2*%
%TO.N,Net-(CSEN5-Pad2)*%
X178435000Y-118745000D03*
D13*
%TO.P,CSEN5,1*%
%TO.N,GND*%
X178435000Y-116205000D03*
%TD*%
%TO.P,CSEN6,1*%
%TO.N,GND*%
X178435000Y-127635000D03*
D12*
%TO.P,CSEN6,2*%
%TO.N,Net-(CSEN6-Pad2)*%
X178435000Y-130175000D03*
%TO.P,CSEN6,3*%
%TO.N,Net-(CSEN6-Pad3)*%
X178435000Y-132715000D03*
%TD*%
D14*
%TO.P,J2,40*%
%TO.N,Net-(J2-Pad40)*%
X121920000Y-128270000D03*
%TO.P,J2,39*%
%TO.N,GND*%
X119380000Y-128270000D03*
%TO.P,J2,38*%
%TO.N,Net-(J2-Pad38)*%
X121920000Y-125730000D03*
%TO.P,J2,37*%
%TO.N,Net-(J2-Pad37)*%
X119380000Y-125730000D03*
%TO.P,J2,36*%
%TO.N,Net-(J2-Pad36)*%
X121920000Y-123190000D03*
%TO.P,J2,35*%
%TO.N,Net-(J2-Pad35)*%
X119380000Y-123190000D03*
%TO.P,J2,34*%
%TO.N,GND*%
X121920000Y-120650000D03*
%TO.P,J2,33*%
%TO.N,Net-(J2-Pad33)*%
X119380000Y-120650000D03*
%TO.P,J2,32*%
%TO.N,Net-(J2-Pad32)*%
X121920000Y-118110000D03*
%TO.P,J2,31*%
%TO.N,Net-(J2-Pad31)*%
X119380000Y-118110000D03*
%TO.P,J2,30*%
%TO.N,Net-(J2-Pad30)*%
X121920000Y-115570000D03*
%TO.P,J2,29*%
%TO.N,Net-(J2-Pad29)*%
X119380000Y-115570000D03*
%TO.P,J2,28*%
%TO.N,Net-(J2-Pad28)*%
X121920000Y-113030000D03*
%TO.P,J2,27*%
%TO.N,Net-(J2-Pad27)*%
X119380000Y-113030000D03*
%TO.P,J2,26*%
%TO.N,Net-(J2-Pad26)*%
X121920000Y-110490000D03*
%TO.P,J2,25*%
%TO.N,Net-(J2-Pad25)*%
X119380000Y-110490000D03*
%TO.P,J2,24*%
%TO.N,/SS*%
X121920000Y-107950000D03*
%TO.P,J2,23*%
%TO.N,/SCK*%
X119380000Y-107950000D03*
%TO.P,J2,22*%
%TO.N,Net-(J2-Pad22)*%
X121920000Y-105410000D03*
%TO.P,J2,21*%
%TO.N,/MISO*%
X119380000Y-105410000D03*
%TO.P,J2,20*%
%TO.N,GND*%
X121920000Y-102870000D03*
%TO.P,J2,19*%
%TO.N,/MOSI*%
X119380000Y-102870000D03*
%TO.P,J2,18*%
%TO.N,Net-(J2-Pad18)*%
X121920000Y-100330000D03*
%TO.P,J2,17*%
%TO.N,Net-(J2-Pad17)*%
X119380000Y-100330000D03*
%TO.P,J2,16*%
%TO.N,Net-(J2-Pad16)*%
X121920000Y-97790000D03*
%TO.P,J2,15*%
%TO.N,Net-(J2-Pad15)*%
X119380000Y-97790000D03*
%TO.P,J2,14*%
%TO.N,GND*%
X121920000Y-95250000D03*
%TO.P,J2,13*%
%TO.N,Net-(J2-Pad13)*%
X119380000Y-95250000D03*
%TO.P,J2,12*%
%TO.N,Net-(J2-Pad12)*%
X121920000Y-92710000D03*
%TO.P,J2,11*%
%TO.N,Net-(J2-Pad11)*%
X119380000Y-92710000D03*
%TO.P,J2,10*%
%TO.N,/TX*%
X121920000Y-90170000D03*
%TO.P,J2,9*%
%TO.N,GND*%
X119380000Y-90170000D03*
%TO.P,J2,8*%
%TO.N,/RX*%
X121920000Y-87630000D03*
%TO.P,J2,7*%
%TO.N,Net-(J2-Pad7)*%
X119380000Y-87630000D03*
%TO.P,J2,6*%
%TO.N,GND*%
X121920000Y-85090000D03*
%TO.P,J2,5*%
%TO.N,/SCL*%
X119380000Y-85090000D03*
%TO.P,J2,4*%
%TO.N,Net-(J2-Pad4)*%
X121920000Y-82550000D03*
%TO.P,J2,3*%
%TO.N,/SDA*%
X119380000Y-82550000D03*
%TO.P,J2,2*%
%TO.N,Net-(J2-Pad2)*%
X121920000Y-80010000D03*
D15*
%TO.P,J2,1*%
%TO.N,Net-(J2-Pad1)*%
X119380000Y-80010000D03*
%TD*%
%TO.P,J1,1*%
%TO.N,/MISO*%
X131445000Y-118110000D03*
D14*
%TO.P,J1,2*%
%TO.N,+5V*%
X131445000Y-115570000D03*
%TO.P,J1,3*%
%TO.N,/SCK*%
X133985000Y-118110000D03*
%TO.P,J1,4*%
%TO.N,/MOSI*%
X133985000Y-115570000D03*
%TO.P,J1,5*%
%TO.N,/RST*%
X136525000Y-118110000D03*
%TO.P,J1,6*%
%TO.N,GND*%
X136525000Y-115570000D03*
%TD*%
D13*
%TO.P,M5,1*%
%TO.N,/Servos\002C Current Sense/motor5*%
X186055000Y-116205000D03*
D12*
%TO.P,M5,2*%
%TO.N,VD*%
X186055000Y-118745000D03*
%TO.P,M5,3*%
%TO.N,Net-(CSEN5-Pad2)*%
X186055000Y-121285000D03*
%TD*%
%TO.P,M6,3*%
%TO.N,Net-(CSEN6-Pad2)*%
X186055000Y-132715000D03*
%TO.P,M6,2*%
%TO.N,VD*%
X186055000Y-130175000D03*
D13*
%TO.P,M6,1*%
%TO.N,/Servos\002C Current Sense/motor6*%
X186055000Y-127635000D03*
%TD*%
%TO.P,M1,1*%
%TO.N,/Servos\002C Current Sense/motor1*%
X186055000Y-72390000D03*
D12*
%TO.P,M1,2*%
%TO.N,VD*%
X186055000Y-74930000D03*
%TO.P,M1,3*%
%TO.N,Net-(CSEN1-Pad2)*%
X186055000Y-77470000D03*
%TD*%
%TO.P,M3,3*%
%TO.N,Net-(CSEN3-Pad2)*%
X186055000Y-99695000D03*
%TO.P,M3,2*%
%TO.N,VD*%
X186055000Y-97155000D03*
D13*
%TO.P,M3,1*%
%TO.N,/Servos\002C Current Sense/motor3*%
X186055000Y-94615000D03*
%TD*%
D12*
%TO.P,M4,3*%
%TO.N,Net-(CSEN4-Pad2)*%
X186055000Y-110490000D03*
%TO.P,M4,2*%
%TO.N,VD*%
X186055000Y-107950000D03*
D13*
%TO.P,M4,1*%
%TO.N,/Servos\002C Current Sense/motor4*%
X186055000Y-105410000D03*
%TD*%
%TO.P,M2,1*%
%TO.N,/Servos\002C Current Sense/motor2*%
X186055000Y-83185000D03*
D12*
%TO.P,M2,2*%
%TO.N,VD*%
X186055000Y-85725000D03*
%TO.P,M2,3*%
%TO.N,Net-(CSEN2-Pad2)*%
X186055000Y-88265000D03*
%TD*%
D16*
%TO.P,J3,2*%
%TO.N,GND*%
X177800000Y-64135000D03*
D17*
%TO.P,J3,1*%
%TO.N,VD*%
X182880000Y-64135000D03*
%TD*%
D18*
%TO.N,GND*%
X115570000Y-94615000D03*
D19*
X168275000Y-73660000D03*
D18*
X129540000Y-73660000D03*
X145415000Y-74295000D03*
X145415000Y-72390000D03*
X151765000Y-84455000D03*
X156845000Y-84455000D03*
X169545000Y-90170000D03*
X154940000Y-90424000D03*
X161544000Y-91440000D03*
X169545000Y-86995000D03*
X154940000Y-78740000D03*
X161925000Y-78740000D03*
X169545000Y-79375000D03*
X160528000Y-100330000D03*
X169545000Y-99060000D03*
X168910000Y-108585000D03*
X172720000Y-103505000D03*
X158115000Y-106680000D03*
X151130000Y-113030000D03*
X159385000Y-115570000D03*
X153035000Y-124460000D03*
X153670000Y-130175000D03*
X156845000Y-120015000D03*
X172720000Y-113665000D03*
X167005000Y-131445000D03*
X168910000Y-130810000D03*
X163830000Y-112395000D03*
X129540000Y-60960000D03*
X117475000Y-60960000D03*
X153670000Y-67945000D03*
X161290000Y-69215000D03*
X136525000Y-98044000D03*
X147320000Y-101600000D03*
X115570000Y-90170000D03*
X154940000Y-100330000D03*
X171450000Y-92710000D03*
X161925000Y-86360000D03*
X154305000Y-120650000D03*
X158115000Y-96520000D03*
%TO.N,/RX*%
X126365000Y-102870000D03*
%TO.N,Net-(R5-Pad1)*%
X133350000Y-105410000D03*
D20*
X138830000Y-96374000D03*
D18*
%TO.N,+5V*%
X168910000Y-121920000D03*
X142240000Y-120015000D03*
X128905000Y-124460000D03*
X125730000Y-113665000D03*
X131572000Y-93980000D03*
X130048000Y-89535000D03*
X136049000Y-96425000D03*
X167005000Y-123825000D03*
X139700000Y-118110000D03*
X169635001Y-129449999D03*
X146050000Y-95250000D03*
X144545000Y-98825000D03*
%TO.N,/TX*%
X126365000Y-98425000D03*
%TO.N,/SDA*%
X136709000Y-99625000D03*
X127000000Y-93345000D03*
%TO.N,Net-(RF1-Pad2)*%
X161290000Y-83185000D03*
X166370000Y-83185000D03*
%TO.N,/Servos\002C Current Sense/current6*%
X165735000Y-125095000D03*
D21*
X138030000Y-106680000D03*
%TO.N,/Servos\002C Current Sense/current5*%
X137230000Y-106045000D03*
D20*
X165100000Y-120650000D03*
D21*
%TO.N,/Servos\002C Current Sense/current4*%
X136430000Y-105315000D03*
D18*
X154305000Y-110490000D03*
D21*
%TO.N,/Servos\002C Current Sense/current3*%
X135630000Y-104775000D03*
D18*
X154305000Y-109220000D03*
D20*
%TO.N,/Servos\002C Current Sense/current2*%
X140583000Y-101225000D03*
D18*
X155073372Y-92843372D03*
%TO.N,/Servos\002C Current Sense/current1*%
X167640000Y-83185000D03*
X158115000Y-86995000D03*
X161290000Y-84455000D03*
D20*
X140716000Y-100425000D03*
D18*
%TO.N,/RST*%
X139700000Y-107315000D03*
D20*
%TO.N,Net-(R7-Pad1)*%
X139630000Y-96958000D03*
D18*
X138575000Y-108440000D03*
%TO.N,/SCL*%
X140913000Y-97225000D03*
X129540000Y-87376000D03*
%TO.N,-5V*%
X161290000Y-97155000D03*
X163195000Y-114300000D03*
X158115000Y-92075000D03*
D20*
%TO.N,/Servos\002C Current Sense/motor4*%
X144145000Y-102235000D03*
D18*
%TO.N,/Servos\002C Current Sense/motor2*%
X141605000Y-92075000D03*
%TO.N,/Servos\002C Current Sense/motor1*%
X182245000Y-81280000D03*
X140335000Y-92075000D03*
X182245000Y-73025000D03*
%TO.N,/Servos\002C Current Sense/motor3*%
X139065000Y-92075000D03*
%TO.N,/Servos\002C Current Sense/motor6*%
X142875000Y-109220000D03*
%TO.N,/Servos\002C Current Sense/motor5*%
X144145000Y-103505000D03*
%TD*%
D22*
%TO.N,GND*%
X121920000Y-101648686D02*
X121871314Y-101600000D01*
X121920000Y-102870000D02*
X121920000Y-101648686D01*
X121871314Y-101600000D02*
X116840000Y-101600000D01*
X116840000Y-101600000D02*
X116205000Y-100965000D01*
X121920000Y-102870000D02*
X123825000Y-102870000D01*
X123825000Y-102870000D02*
X125095000Y-104140000D01*
%TO.N,/RX*%
X120731399Y-88818601D02*
X121056401Y-88493599D01*
X118972269Y-88818601D02*
X120731399Y-88818601D01*
X118191399Y-93280529D02*
X118191399Y-89599471D01*
X121056401Y-88493599D02*
X121920000Y-87630000D01*
X118809471Y-93898601D02*
X118191399Y-93280529D01*
X122473601Y-93898601D02*
X118809471Y-93898601D01*
X124460000Y-95885000D02*
X122473601Y-93898601D01*
X124460000Y-100965000D02*
X124460000Y-95885000D01*
X118191399Y-89599471D02*
X118972269Y-88818601D01*
X126365000Y-102870000D02*
X124460000Y-100965000D01*
%TO.N,/MISO*%
X130331400Y-118110000D02*
X131445000Y-118110000D01*
X130256399Y-118034999D02*
X130331400Y-118110000D01*
X130256399Y-114527269D02*
X130256399Y-118034999D01*
X122327731Y-106598601D02*
X130256399Y-114527269D01*
X120568601Y-106598601D02*
X122327731Y-106598601D01*
X119380000Y-105410000D02*
X120568601Y-106598601D01*
%TO.N,Net-(R5-Pad1)*%
X137434001Y-97769999D02*
X137434001Y-100055999D01*
X138830000Y-96374000D02*
X137434001Y-97769999D01*
X133350000Y-104140000D02*
X133350000Y-105410000D01*
X137434001Y-100055999D02*
X133350000Y-104140000D01*
%TO.N,+5V*%
X130048000Y-92456000D02*
X131572000Y-93980000D01*
X130048000Y-89535000D02*
X130048000Y-92456000D01*
X134017000Y-96425000D02*
X131572000Y-93980000D01*
X136049000Y-96425000D02*
X134017000Y-96425000D01*
X167005000Y-123825000D02*
X168910000Y-121920000D01*
D23*
X125730000Y-115520388D02*
X131494612Y-121285000D01*
X125730000Y-113665000D02*
X125730000Y-115520388D01*
X136525000Y-121285000D02*
X139700000Y-118110000D01*
X131494612Y-121285000D02*
X136525000Y-121285000D01*
X142240000Y-120015000D02*
X140970000Y-120015000D01*
X136525000Y-124460000D02*
X128905000Y-124460000D01*
X140970000Y-120015000D02*
X136525000Y-124460000D01*
D22*
X169635001Y-122645001D02*
X169635001Y-129449999D01*
X168910000Y-121920000D02*
X169635001Y-122645001D01*
X169635001Y-129449999D02*
X169635001Y-129449999D01*
X144545000Y-96755000D02*
X146050000Y-95250000D01*
X144545000Y-98825000D02*
X144545000Y-96755000D01*
%TO.N,/MOSI*%
X133121401Y-114706401D02*
X133985000Y-115570000D01*
X122636399Y-104221399D02*
X133121401Y-114706401D01*
X120731399Y-104221399D02*
X122636399Y-104221399D01*
X119380000Y-102870000D02*
X120731399Y-104221399D01*
%TO.N,/TX*%
X126365000Y-94615000D02*
X121920000Y-90170000D01*
X126365000Y-98425000D02*
X126365000Y-94615000D01*
%TO.N,/SDA*%
X127000000Y-93345000D02*
X127000000Y-94488000D01*
X132137000Y-99625000D02*
X136709000Y-99625000D01*
X127000000Y-94488000D02*
X132137000Y-99625000D01*
%TO.N,/SCK*%
X132796399Y-119298601D02*
X133121401Y-118973599D01*
X130321399Y-119298601D02*
X132796399Y-119298601D01*
X129806389Y-118783591D02*
X130321399Y-119298601D01*
X129806389Y-116617259D02*
X129806389Y-118783591D01*
X122490529Y-109301399D02*
X129806389Y-116617259D01*
X133121401Y-118973599D02*
X133985000Y-118110000D01*
X120731399Y-109301399D02*
X122490529Y-109301399D01*
X119380000Y-107950000D02*
X120731399Y-109301399D01*
%TO.N,Net-(RF1-Pad2)*%
X166370000Y-83185000D02*
X161290000Y-83185000D01*
%TO.N,/Servos\002C Current Sense/current6*%
X165735000Y-124021998D02*
X165735000Y-124529315D01*
X147993003Y-106280001D02*
X165735000Y-124021998D01*
X165735000Y-124529315D02*
X165735000Y-125095000D01*
X138429999Y-106280001D02*
X147993003Y-106280001D01*
X138030000Y-106680000D02*
X138429999Y-106280001D01*
%TO.N,/Servos\002C Current Sense/current5*%
X148386999Y-105645001D02*
X163391998Y-120650000D01*
X137230000Y-106045000D02*
X137629999Y-105645001D01*
X137629999Y-105645001D02*
X148386999Y-105645001D01*
X163391998Y-120650000D02*
X165100000Y-120650000D01*
%TO.N,/Servos\002C Current Sense/current4*%
X153905001Y-110090001D02*
X154305000Y-110490000D01*
X148730001Y-104915001D02*
X153905001Y-110090001D01*
X136829999Y-104915001D02*
X148730001Y-104915001D01*
X136430000Y-105315000D02*
X136829999Y-104915001D01*
%TO.N,/Servos\002C Current Sense/current3*%
X136029999Y-104375001D02*
X149460001Y-104375001D01*
X135630000Y-104775000D02*
X136029999Y-104375001D01*
X149460001Y-104375001D02*
X154305000Y-109220000D01*
X154305000Y-109220000D02*
X154305000Y-109220000D01*
%TO.N,/Servos\002C Current Sense/current2*%
X154507687Y-92843372D02*
X146126059Y-101225000D01*
X155073372Y-92843372D02*
X154507687Y-92843372D01*
X146126059Y-101225000D02*
X140583000Y-101225000D01*
%TO.N,/Servos\002C Current Sense/current1*%
X166370000Y-84455000D02*
X161290000Y-84455000D01*
X167640000Y-83185000D02*
X166370000Y-84455000D01*
X141140264Y-100425000D02*
X140716000Y-100425000D01*
X146012002Y-100425000D02*
X141140264Y-100425000D01*
X158115000Y-88322002D02*
X146012002Y-100425000D01*
X158115000Y-86995000D02*
X158115000Y-88322002D01*
%TO.N,/RST*%
X139700000Y-114935000D02*
X136525000Y-118110000D01*
X139700000Y-107315000D02*
X139700000Y-114935000D01*
%TO.N,Net-(R7-Pad1)*%
X137884010Y-100242400D02*
X134620000Y-103506410D01*
X134620000Y-103506410D02*
X134620000Y-107188000D01*
X139630000Y-96958000D02*
X137884011Y-98703989D01*
X137884011Y-98703989D02*
X137884010Y-100242400D01*
X135872000Y-108440000D02*
X134620000Y-107188000D01*
X138575000Y-108440000D02*
X135872000Y-108440000D01*
%TO.N,/SCL*%
X140913000Y-96659315D02*
X135636000Y-91382315D01*
X140913000Y-97225000D02*
X140913000Y-96659315D01*
X135636000Y-91382315D02*
X135636000Y-88392000D01*
X135636000Y-88392000D02*
X134620000Y-87376000D01*
X134620000Y-87376000D02*
X129540000Y-87376000D01*
X129540000Y-87376000D02*
X129540000Y-87376000D01*
%TO.N,-5V*%
X158115000Y-93980000D02*
X161290000Y-97155000D01*
X158115000Y-92075000D02*
X158115000Y-93980000D01*
X161290000Y-112395000D02*
X161290000Y-97155000D01*
X163195000Y-114300000D02*
X161290000Y-112395000D01*
%TO.N,/Servos\002C Current Sense/motor4*%
X187155000Y-105410000D02*
X186055000Y-105410000D01*
X187230001Y-105485001D02*
X187155000Y-105410000D01*
X187230001Y-111054001D02*
X187230001Y-105485001D01*
X144145000Y-102235000D02*
X146881998Y-102235000D01*
X146881998Y-102235000D02*
X147066988Y-102419990D01*
X147066988Y-102419990D02*
X150241988Y-102419990D01*
X150241988Y-102419990D02*
X162851997Y-115029999D01*
X184339998Y-111665001D02*
X180975000Y-115029999D01*
X186619001Y-111665001D02*
X184339998Y-111665001D01*
X162851997Y-115029999D02*
X180975000Y-115029999D01*
X187230001Y-111054001D02*
X186619001Y-111665001D01*
%TO.N,/Servos\002C Current Sense/motor2*%
X183779999Y-82009999D02*
X151670001Y-82009999D01*
X186055000Y-83185000D02*
X184955000Y-83185000D01*
X184955000Y-83185000D02*
X183779999Y-82009999D01*
X151670001Y-82009999D02*
X141605000Y-92075000D01*
X141605000Y-92075000D02*
X141605000Y-92075000D01*
%TO.N,/Servos\002C Current Sense/motor1*%
X140335000Y-92075000D02*
X140335000Y-92075000D01*
X186055000Y-72390000D02*
X182880000Y-72390000D01*
X182880000Y-72390000D02*
X182245000Y-73025000D01*
X182245000Y-73025000D02*
X182245000Y-73025000D01*
X151130000Y-81280000D02*
X182245000Y-81280000D01*
X140335000Y-92075000D02*
X151130000Y-81280000D01*
%TO.N,/Servos\002C Current Sense/motor3*%
X139065000Y-92075000D02*
X139065000Y-92075000D01*
X186055000Y-93515000D02*
X187960000Y-91610000D01*
X186055000Y-94615000D02*
X186055000Y-93515000D01*
X150585001Y-80554999D02*
X139464999Y-91675001D01*
X185710001Y-80554999D02*
X150585001Y-80554999D01*
X139464999Y-91675001D02*
X139065000Y-92075000D01*
X187960000Y-82804998D02*
X185710001Y-80554999D01*
X187960000Y-91610000D02*
X187960000Y-82804998D01*
%TO.N,/Servos\002C Current Sense/motor6*%
X148786998Y-109220000D02*
X166026997Y-126459999D01*
X142875000Y-109220000D02*
X148786998Y-109220000D01*
X187230001Y-127710001D02*
X187155000Y-127635000D01*
X187230001Y-133279001D02*
X187230001Y-127710001D01*
X186619001Y-133890001D02*
X187230001Y-133279001D01*
X170916999Y-133890001D02*
X186619001Y-133890001D01*
X187155000Y-127635000D02*
X186055000Y-127635000D01*
X166026997Y-128999999D02*
X170916999Y-133890001D01*
X166026997Y-126459999D02*
X166026997Y-128999999D01*
%TO.N,/Servos\002C Current Sense/motor5*%
X184955000Y-116205000D02*
X186055000Y-116205000D01*
X183779999Y-117380001D02*
X184955000Y-116205000D01*
X163538003Y-117380001D02*
X183779999Y-117380001D01*
X149028002Y-102870000D02*
X163538003Y-117380001D01*
X144780000Y-102870000D02*
X149028002Y-102870000D01*
X144145000Y-103505000D02*
X144780000Y-102870000D01*
D24*
%TO.N,Net-(CSEN1-Pad2)*%
X186055000Y-77470000D02*
X184785000Y-77470000D01*
X182245000Y-74930000D02*
X178435000Y-74930000D01*
X184785000Y-77470000D02*
X182245000Y-74930000D01*
%TO.N,Net-(CSEN4-Pad2)*%
X186055000Y-110490000D02*
X184785000Y-110490000D01*
X182245000Y-107950000D02*
X178435000Y-107950000D01*
X184785000Y-110490000D02*
X182245000Y-107950000D01*
%TO.N,Net-(CSEN3-Pad2)*%
X184852919Y-99695000D02*
X182312919Y-97155000D01*
X186055000Y-99695000D02*
X184852919Y-99695000D01*
X182312919Y-97155000D02*
X178435000Y-97155000D01*
%TO.N,Net-(CSEN2-Pad2)*%
X179637081Y-85725000D02*
X178435000Y-85725000D01*
X182312919Y-85725000D02*
X179637081Y-85725000D01*
X184852919Y-88265000D02*
X182312919Y-85725000D01*
X186055000Y-88265000D02*
X184852919Y-88265000D01*
%TO.N,Net-(CSEN6-Pad2)*%
X184852919Y-132715000D02*
X182312919Y-130175000D01*
X186055000Y-132715000D02*
X184852919Y-132715000D01*
X182312919Y-130175000D02*
X178435000Y-130175000D01*
%TO.N,Net-(CSEN5-Pad2)*%
X186055000Y-121285000D02*
X184785000Y-121285000D01*
X182245000Y-118745000D02*
X178435000Y-118745000D01*
X184785000Y-121285000D02*
X182245000Y-118745000D01*
%TD*%
D25*
%TO.N,GND*%
G36*
X169830780Y-52667499D02*
X170637131Y-52880546D01*
X171399044Y-53219772D01*
X172104873Y-53681652D01*
X172598073Y-54116467D01*
X172707635Y-54234545D01*
X173000391Y-54368843D01*
X186316996Y-57539463D01*
X187166639Y-57965301D01*
X187989757Y-58533553D01*
X188725778Y-59210830D01*
X189360379Y-59983952D01*
X189881206Y-60837869D01*
X190278122Y-61755959D01*
X190543404Y-62720364D01*
X190674697Y-63734018D01*
X190687000Y-64150978D01*
X190687001Y-132019439D01*
X190628389Y-132541973D01*
X190475508Y-132980989D01*
X190229165Y-133375222D01*
X189901598Y-133705083D01*
X189509096Y-133954172D01*
X189071161Y-134110114D01*
X188552174Y-134172000D01*
X187939305Y-134172000D01*
X187952247Y-134159058D01*
X188046848Y-134095848D01*
X188268463Y-133764177D01*
X188297262Y-133721077D01*
X188297262Y-133721076D01*
X188297263Y-133721075D01*
X188363001Y-133390588D01*
X188363001Y-133390584D01*
X188385196Y-133279002D01*
X188363001Y-133167420D01*
X188363001Y-127821582D01*
X188385196Y-127710000D01*
X188363001Y-127598418D01*
X188363001Y-127598414D01*
X188297263Y-127267927D01*
X188046848Y-126893154D01*
X188001888Y-126863113D01*
X187971847Y-126818153D01*
X187932747Y-126792027D01*
X187932747Y-126785000D01*
X187854514Y-126391698D01*
X187631727Y-126058273D01*
X187298302Y-125835486D01*
X186905000Y-125757253D01*
X185205000Y-125757253D01*
X184811698Y-125835486D01*
X184478273Y-126058273D01*
X184255486Y-126391698D01*
X184177253Y-126785000D01*
X184177253Y-128485000D01*
X184255486Y-128878302D01*
X184471157Y-129201078D01*
X184304803Y-129450045D01*
X184266535Y-129642429D01*
X183678446Y-129054340D01*
X183580366Y-128907553D01*
X182998856Y-128519000D01*
X182486066Y-128417000D01*
X182486061Y-128417000D01*
X182312919Y-128382560D01*
X182139777Y-128417000D01*
X180293000Y-128417000D01*
X180293000Y-127987000D01*
X180041000Y-127735000D01*
X178535000Y-127735000D01*
X178535000Y-127755000D01*
X178335000Y-127755000D01*
X178335000Y-127735000D01*
X176829000Y-127735000D01*
X176577000Y-127987000D01*
X176577000Y-128685503D01*
X176730459Y-129055986D01*
X176860928Y-129186455D01*
X176684803Y-129450045D01*
X176540600Y-130175000D01*
X176684803Y-130899955D01*
X177048990Y-131445000D01*
X176684803Y-131990045D01*
X176540600Y-132715000D01*
X176548955Y-132757001D01*
X171386303Y-132757001D01*
X169487301Y-130857999D01*
X169915070Y-130857999D01*
X170432569Y-130643643D01*
X170828645Y-130247567D01*
X171043001Y-129730068D01*
X171043001Y-129169930D01*
X170828645Y-128652431D01*
X170768001Y-128591787D01*
X170768001Y-126584497D01*
X176577000Y-126584497D01*
X176577000Y-127283000D01*
X176829000Y-127535000D01*
X178335000Y-127535000D01*
X178335000Y-126029000D01*
X178535000Y-126029000D01*
X178535000Y-127535000D01*
X180041000Y-127535000D01*
X180293000Y-127283000D01*
X180293000Y-126584497D01*
X180139541Y-126214014D01*
X179855986Y-125930459D01*
X179485504Y-125777000D01*
X178787000Y-125777000D01*
X178535000Y-126029000D01*
X178335000Y-126029000D01*
X178083000Y-125777000D01*
X177384496Y-125777000D01*
X177014014Y-125930459D01*
X176730459Y-126214014D01*
X176577000Y-126584497D01*
X170768001Y-126584497D01*
X170768001Y-122756582D01*
X170790196Y-122645000D01*
X170768001Y-122533418D01*
X170768001Y-122533414D01*
X170702263Y-122202927D01*
X170451848Y-121828154D01*
X170357249Y-121764945D01*
X170318000Y-121725696D01*
X170318000Y-121639931D01*
X170103644Y-121122432D01*
X169707568Y-120726356D01*
X169190069Y-120512000D01*
X168629931Y-120512000D01*
X168112432Y-120726356D01*
X167716356Y-121122432D01*
X167502000Y-121639931D01*
X167502000Y-121725696D01*
X166810697Y-122417000D01*
X166724931Y-122417000D01*
X166207432Y-122631356D01*
X166077047Y-122761741D01*
X165273306Y-121958000D01*
X165360177Y-121958000D01*
X165840922Y-121758869D01*
X166208869Y-121390922D01*
X166408000Y-120910177D01*
X166408000Y-120389823D01*
X166208869Y-119909078D01*
X165840922Y-119541131D01*
X165360177Y-119342000D01*
X164839823Y-119342000D01*
X164417335Y-119517000D01*
X163861302Y-119517000D01*
X155537665Y-111193364D01*
X155599582Y-111043883D01*
X162657947Y-118102249D01*
X162721156Y-118196848D01*
X163095929Y-118447263D01*
X163426416Y-118513001D01*
X163426420Y-118513001D01*
X163538002Y-118535196D01*
X163649584Y-118513001D01*
X176586748Y-118513001D01*
X176540600Y-118745000D01*
X176684803Y-119469955D01*
X177048990Y-120015000D01*
X176684803Y-120560045D01*
X176540600Y-121285000D01*
X176684803Y-122009955D01*
X177095457Y-122624543D01*
X177710045Y-123035197D01*
X178252005Y-123143000D01*
X178617995Y-123143000D01*
X179159955Y-123035197D01*
X179774543Y-122624543D01*
X180185197Y-122009955D01*
X180329400Y-121285000D01*
X180185197Y-120560045D01*
X180147081Y-120503000D01*
X181516813Y-120503000D01*
X183419473Y-122405660D01*
X183517553Y-122552447D01*
X183764674Y-122717568D01*
X184099061Y-122940999D01*
X184099062Y-122940999D01*
X184099063Y-122941000D01*
X184611853Y-123043000D01*
X184611857Y-123043000D01*
X184784999Y-123077440D01*
X184958141Y-123043000D01*
X185369273Y-123043000D01*
X185872005Y-123143000D01*
X186237995Y-123143000D01*
X186779955Y-123035197D01*
X187394543Y-122624543D01*
X187805197Y-122009955D01*
X187949400Y-121285000D01*
X187805197Y-120560045D01*
X187441010Y-120015000D01*
X187805197Y-119469955D01*
X187949400Y-118745000D01*
X187805197Y-118020045D01*
X187638843Y-117771078D01*
X187854514Y-117448302D01*
X187932747Y-117055000D01*
X187932747Y-115355000D01*
X187854514Y-114961698D01*
X187631727Y-114628273D01*
X187298302Y-114405486D01*
X186905000Y-114327253D01*
X185205000Y-114327253D01*
X184811698Y-114405486D01*
X184478273Y-114628273D01*
X184255486Y-114961698D01*
X184177253Y-115355000D01*
X184177253Y-115362027D01*
X184138153Y-115388153D01*
X184074944Y-115482752D01*
X183310696Y-116247001D01*
X164007307Y-116247001D01*
X163923305Y-116162999D01*
X180863414Y-116162999D01*
X180975000Y-116185195D01*
X181086586Y-116162999D01*
X181086587Y-116162999D01*
X181417074Y-116097261D01*
X181791847Y-115846846D01*
X181855058Y-115752244D01*
X184809302Y-112798001D01*
X186507415Y-112798001D01*
X186619001Y-112820197D01*
X186730587Y-112798001D01*
X186730588Y-112798001D01*
X187061075Y-112732263D01*
X187435848Y-112481848D01*
X187499059Y-112387246D01*
X187952247Y-111934058D01*
X188046848Y-111870848D01*
X188256380Y-111557261D01*
X188297262Y-111496077D01*
X188297262Y-111496076D01*
X188297263Y-111496075D01*
X188363001Y-111165588D01*
X188363001Y-111165584D01*
X188385196Y-111054002D01*
X188363001Y-110942420D01*
X188363001Y-105596582D01*
X188385196Y-105485000D01*
X188363001Y-105373418D01*
X188363001Y-105373414D01*
X188297263Y-105042927D01*
X188046848Y-104668154D01*
X188001888Y-104638113D01*
X187971847Y-104593153D01*
X187932747Y-104567027D01*
X187932747Y-104560000D01*
X187854514Y-104166698D01*
X187631727Y-103833273D01*
X187298302Y-103610486D01*
X186905000Y-103532253D01*
X185205000Y-103532253D01*
X184811698Y-103610486D01*
X184478273Y-103833273D01*
X184255486Y-104166698D01*
X184177253Y-104560000D01*
X184177253Y-106260000D01*
X184255486Y-106653302D01*
X184471157Y-106976078D01*
X184304803Y-107225045D01*
X184255267Y-107474080D01*
X183610527Y-106829340D01*
X183512447Y-106682553D01*
X182930937Y-106294000D01*
X182418147Y-106192000D01*
X182418142Y-106192000D01*
X182245000Y-106157560D01*
X182071858Y-106192000D01*
X180293000Y-106192000D01*
X180293000Y-105762000D01*
X180041000Y-105510000D01*
X178535000Y-105510000D01*
X178535000Y-105530000D01*
X178335000Y-105530000D01*
X178335000Y-105510000D01*
X176829000Y-105510000D01*
X176577000Y-105762000D01*
X176577000Y-106460503D01*
X176730459Y-106830986D01*
X176860928Y-106961455D01*
X176684803Y-107225045D01*
X176540600Y-107950000D01*
X176684803Y-108674955D01*
X177048990Y-109220000D01*
X176684803Y-109765045D01*
X176540600Y-110490000D01*
X176684803Y-111214955D01*
X177095457Y-111829543D01*
X177710045Y-112240197D01*
X178252005Y-112348000D01*
X178617995Y-112348000D01*
X179159955Y-112240197D01*
X179774543Y-111829543D01*
X180185197Y-111214955D01*
X180329400Y-110490000D01*
X180185197Y-109765045D01*
X180147081Y-109708000D01*
X181516813Y-109708000D01*
X183105754Y-111296941D01*
X180505697Y-113896999D01*
X164552080Y-113896999D01*
X164388644Y-113502432D01*
X163992568Y-113106356D01*
X163475069Y-112892000D01*
X163389304Y-112892000D01*
X162423000Y-111925697D01*
X162423000Y-104359497D01*
X176577000Y-104359497D01*
X176577000Y-105058000D01*
X176829000Y-105310000D01*
X178335000Y-105310000D01*
X178335000Y-103804000D01*
X178535000Y-103804000D01*
X178535000Y-105310000D01*
X180041000Y-105310000D01*
X180293000Y-105058000D01*
X180293000Y-104359497D01*
X180139541Y-103989014D01*
X179855986Y-103705459D01*
X179485504Y-103552000D01*
X178787000Y-103552000D01*
X178535000Y-103804000D01*
X178335000Y-103804000D01*
X178083000Y-103552000D01*
X177384496Y-103552000D01*
X177014014Y-103705459D01*
X176730459Y-103989014D01*
X176577000Y-104359497D01*
X162423000Y-104359497D01*
X162423000Y-98013212D01*
X162483644Y-97952568D01*
X162698000Y-97435069D01*
X162698000Y-96874931D01*
X162483644Y-96357432D01*
X162087568Y-95961356D01*
X161570069Y-95747000D01*
X161484304Y-95747000D01*
X159301801Y-93564497D01*
X176577000Y-93564497D01*
X176577000Y-94263000D01*
X176829000Y-94515000D01*
X178335000Y-94515000D01*
X178335000Y-93009000D01*
X178535000Y-93009000D01*
X178535000Y-94515000D01*
X180041000Y-94515000D01*
X180293000Y-94263000D01*
X180293000Y-93564497D01*
X180139541Y-93194014D01*
X179855986Y-92910459D01*
X179485504Y-92757000D01*
X178787000Y-92757000D01*
X178535000Y-93009000D01*
X178335000Y-93009000D01*
X178083000Y-92757000D01*
X177384496Y-92757000D01*
X177014014Y-92910459D01*
X176730459Y-93194014D01*
X176577000Y-93564497D01*
X159301801Y-93564497D01*
X159248000Y-93510697D01*
X159248000Y-92933212D01*
X159308644Y-92872568D01*
X159523000Y-92355069D01*
X159523000Y-91794931D01*
X159308644Y-91277432D01*
X158912568Y-90881356D01*
X158395069Y-90667000D01*
X157834931Y-90667000D01*
X157317432Y-90881356D01*
X156921356Y-91277432D01*
X156707000Y-91794931D01*
X156707000Y-92355069D01*
X156921356Y-92872568D01*
X156982000Y-92933212D01*
X156982001Y-93868410D01*
X156959804Y-93980000D01*
X157031548Y-94340675D01*
X157047739Y-94422074D01*
X157298154Y-94796847D01*
X157392752Y-94860055D01*
X159882000Y-97349304D01*
X159882000Y-97435069D01*
X160096356Y-97952568D01*
X160157001Y-98013213D01*
X160157000Y-110732698D01*
X151122046Y-101697745D01*
X151058835Y-101603143D01*
X150684062Y-101352728D01*
X150353575Y-101286990D01*
X150353574Y-101286990D01*
X150241988Y-101264794D01*
X150130402Y-101286990D01*
X147666372Y-101286990D01*
X154728736Y-94224627D01*
X154793303Y-94251372D01*
X155353441Y-94251372D01*
X155870940Y-94037016D01*
X156267016Y-93640940D01*
X156481372Y-93123441D01*
X156481372Y-92563303D01*
X156267016Y-92045804D01*
X156130259Y-91909047D01*
X158837245Y-89202060D01*
X158931847Y-89138849D01*
X159182262Y-88764076D01*
X159248000Y-88433589D01*
X159248000Y-88433588D01*
X159270196Y-88322002D01*
X159248000Y-88210416D01*
X159248000Y-87853212D01*
X159308644Y-87792568D01*
X159523000Y-87275069D01*
X159523000Y-86714931D01*
X159308644Y-86197432D01*
X158912568Y-85801356D01*
X158395069Y-85587000D01*
X157834931Y-85587000D01*
X157317432Y-85801356D01*
X156921356Y-86197432D01*
X156707000Y-86714931D01*
X156707000Y-87275069D01*
X156921356Y-87792568D01*
X156981744Y-87852956D01*
X145953000Y-98881699D01*
X145953000Y-98544931D01*
X145738644Y-98027432D01*
X145678000Y-97966788D01*
X145678000Y-97224303D01*
X146244304Y-96658000D01*
X146330069Y-96658000D01*
X146847568Y-96443644D01*
X147243644Y-96047568D01*
X147458000Y-95530069D01*
X147458000Y-94969931D01*
X147243644Y-94452432D01*
X146847568Y-94056356D01*
X146330069Y-93842000D01*
X145769931Y-93842000D01*
X145252432Y-94056356D01*
X144856356Y-94452432D01*
X144642000Y-94969931D01*
X144642000Y-95055696D01*
X143822753Y-95874944D01*
X143728154Y-95938153D01*
X143664945Y-96032752D01*
X143477739Y-96312926D01*
X143389804Y-96755000D01*
X143412001Y-96866590D01*
X143412000Y-97966788D01*
X143351356Y-98027432D01*
X143137000Y-98544931D01*
X143137000Y-99105069D01*
X143214430Y-99292000D01*
X141398665Y-99292000D01*
X140976177Y-99117000D01*
X140455823Y-99117000D01*
X139975078Y-99316131D01*
X139607131Y-99684078D01*
X139408000Y-100164823D01*
X139408000Y-100643732D01*
X139275000Y-100964823D01*
X139275000Y-101485177D01*
X139474131Y-101965922D01*
X139842078Y-102333869D01*
X140322823Y-102533000D01*
X140843177Y-102533000D01*
X141265665Y-102358000D01*
X142837000Y-102358000D01*
X142837000Y-102495177D01*
X142938137Y-102739344D01*
X142737000Y-103224931D01*
X142737000Y-103242001D01*
X136486712Y-103242001D01*
X138606260Y-101122454D01*
X138700856Y-101059247D01*
X138764063Y-100964651D01*
X138764065Y-100964649D01*
X138951271Y-100684475D01*
X139039205Y-100242401D01*
X139017009Y-100130815D01*
X139017010Y-99173293D01*
X139943546Y-98246758D01*
X140115432Y-98418644D01*
X140632931Y-98633000D01*
X141193069Y-98633000D01*
X141710568Y-98418644D01*
X142106644Y-98022568D01*
X142321000Y-97505069D01*
X142321000Y-96944931D01*
X142106644Y-96427432D01*
X142001072Y-96321860D01*
X141980262Y-96217242D01*
X141980153Y-96217078D01*
X141821918Y-95980262D01*
X141729847Y-95842468D01*
X141635248Y-95779259D01*
X139338989Y-93483000D01*
X139345069Y-93483000D01*
X139700000Y-93335982D01*
X140054931Y-93483000D01*
X140615069Y-93483000D01*
X140970000Y-93335982D01*
X141324931Y-93483000D01*
X141885069Y-93483000D01*
X142402568Y-93268644D01*
X142798644Y-92872568D01*
X143013000Y-92355069D01*
X143013000Y-92269303D01*
X152139305Y-83142999D01*
X159882000Y-83142999D01*
X159882000Y-83465069D01*
X160029018Y-83820000D01*
X159882000Y-84174931D01*
X159882000Y-84735069D01*
X160096356Y-85252568D01*
X160492432Y-85648644D01*
X161009931Y-85863000D01*
X161570069Y-85863000D01*
X162087568Y-85648644D01*
X162148212Y-85588000D01*
X166258414Y-85588000D01*
X166370000Y-85610196D01*
X166481586Y-85588000D01*
X166481587Y-85588000D01*
X166812074Y-85522262D01*
X167186847Y-85271847D01*
X167250058Y-85177245D01*
X167834304Y-84593000D01*
X167920069Y-84593000D01*
X168437568Y-84378644D01*
X168833644Y-83982568D01*
X169048000Y-83465069D01*
X169048000Y-83142999D01*
X183310696Y-83142999D01*
X184074944Y-83907248D01*
X184138153Y-84001847D01*
X184177253Y-84027973D01*
X184177253Y-84035000D01*
X184255486Y-84428302D01*
X184471157Y-84751078D01*
X184304803Y-85000045D01*
X184266535Y-85192429D01*
X183678446Y-84604340D01*
X183580366Y-84457553D01*
X182998856Y-84069000D01*
X182486066Y-83967000D01*
X182486061Y-83967000D01*
X182312919Y-83932560D01*
X182139777Y-83967000D01*
X180293000Y-83967000D01*
X180293000Y-83537000D01*
X180041000Y-83285000D01*
X178535000Y-83285000D01*
X178535000Y-83305000D01*
X178335000Y-83305000D01*
X178335000Y-83285000D01*
X176829000Y-83285000D01*
X176577000Y-83537000D01*
X176577000Y-84235503D01*
X176730459Y-84605986D01*
X176860928Y-84736455D01*
X176684803Y-85000045D01*
X176540600Y-85725000D01*
X176684803Y-86449955D01*
X177048990Y-86995000D01*
X176684803Y-87540045D01*
X176540600Y-88265000D01*
X176684803Y-88989955D01*
X177095457Y-89604543D01*
X177710045Y-90015197D01*
X178252005Y-90123000D01*
X178617995Y-90123000D01*
X179159955Y-90015197D01*
X179774543Y-89604543D01*
X180185197Y-88989955D01*
X180329400Y-88265000D01*
X180185197Y-87540045D01*
X180147081Y-87483000D01*
X181584732Y-87483000D01*
X183487392Y-89385660D01*
X183585472Y-89532447D01*
X183739624Y-89635448D01*
X184166980Y-89920999D01*
X184166981Y-89920999D01*
X184166982Y-89921000D01*
X184679772Y-90023000D01*
X184679776Y-90023000D01*
X184852918Y-90057440D01*
X185026060Y-90023000D01*
X185369273Y-90023000D01*
X185872005Y-90123000D01*
X186237995Y-90123000D01*
X186779955Y-90015197D01*
X186827000Y-89983762D01*
X186827000Y-91140696D01*
X185332753Y-92634944D01*
X185238154Y-92698153D01*
X185212028Y-92737253D01*
X185205000Y-92737253D01*
X184811698Y-92815486D01*
X184478273Y-93038273D01*
X184255486Y-93371698D01*
X184177253Y-93765000D01*
X184177253Y-95465000D01*
X184255486Y-95858302D01*
X184471157Y-96181078D01*
X184304803Y-96430045D01*
X184266535Y-96622429D01*
X183678446Y-96034340D01*
X183580366Y-95887553D01*
X182998856Y-95499000D01*
X182486066Y-95397000D01*
X182486061Y-95397000D01*
X182312919Y-95362560D01*
X182139777Y-95397000D01*
X180293000Y-95397000D01*
X180293000Y-94967000D01*
X180041000Y-94715000D01*
X178535000Y-94715000D01*
X178535000Y-94735000D01*
X178335000Y-94735000D01*
X178335000Y-94715000D01*
X176829000Y-94715000D01*
X176577000Y-94967000D01*
X176577000Y-95665503D01*
X176730459Y-96035986D01*
X176860928Y-96166455D01*
X176684803Y-96430045D01*
X176540600Y-97155000D01*
X176684803Y-97879955D01*
X177048990Y-98425000D01*
X176684803Y-98970045D01*
X176540600Y-99695000D01*
X176684803Y-100419955D01*
X177095457Y-101034543D01*
X177710045Y-101445197D01*
X178252005Y-101553000D01*
X178617995Y-101553000D01*
X179159955Y-101445197D01*
X179774543Y-101034543D01*
X180185197Y-100419955D01*
X180329400Y-99695000D01*
X180185197Y-98970045D01*
X180147081Y-98913000D01*
X181584732Y-98913000D01*
X183487392Y-100815660D01*
X183585472Y-100962447D01*
X183892713Y-101167739D01*
X184166980Y-101350999D01*
X184166981Y-101350999D01*
X184166982Y-101351000D01*
X184679772Y-101453000D01*
X184679776Y-101453000D01*
X184852918Y-101487440D01*
X185026060Y-101453000D01*
X185369273Y-101453000D01*
X185872005Y-101553000D01*
X186237995Y-101553000D01*
X186779955Y-101445197D01*
X187394543Y-101034543D01*
X187805197Y-100419955D01*
X187949400Y-99695000D01*
X187805197Y-98970045D01*
X187441010Y-98425000D01*
X187805197Y-97879955D01*
X187949400Y-97155000D01*
X187805197Y-96430045D01*
X187638843Y-96181078D01*
X187854514Y-95858302D01*
X187932747Y-95465000D01*
X187932747Y-93765000D01*
X187854514Y-93371698D01*
X187832921Y-93339382D01*
X188682248Y-92490056D01*
X188776847Y-92426847D01*
X189027262Y-92052074D01*
X189093000Y-91721587D01*
X189093000Y-91721586D01*
X189115196Y-91610000D01*
X189093000Y-91498414D01*
X189093000Y-82916583D01*
X189115196Y-82804997D01*
X189091924Y-82688000D01*
X189027262Y-82362924D01*
X188776847Y-81988151D01*
X188682248Y-81924942D01*
X186590059Y-79832754D01*
X186526848Y-79738152D01*
X186152075Y-79487737D01*
X185821588Y-79421999D01*
X185821587Y-79421999D01*
X185710001Y-79399803D01*
X185598415Y-79421999D01*
X150696587Y-79421999D01*
X150585001Y-79399803D01*
X150473415Y-79421999D01*
X150473414Y-79421999D01*
X150142927Y-79487737D01*
X149768154Y-79738152D01*
X149704945Y-79832751D01*
X138870697Y-90667000D01*
X138784931Y-90667000D01*
X138267432Y-90881356D01*
X137871356Y-91277432D01*
X137657000Y-91794931D01*
X137657000Y-91801012D01*
X136769000Y-90913012D01*
X136769000Y-88503586D01*
X136791196Y-88392000D01*
X136732388Y-88096353D01*
X136703262Y-87949926D01*
X136452847Y-87575153D01*
X136358248Y-87511944D01*
X135500058Y-86653754D01*
X135436847Y-86559153D01*
X135062074Y-86308738D01*
X134731587Y-86243000D01*
X134731586Y-86243000D01*
X134620000Y-86220804D01*
X134508414Y-86243000D01*
X130398212Y-86243000D01*
X130337568Y-86182356D01*
X129820069Y-85968000D01*
X129259931Y-85968000D01*
X128742432Y-86182356D01*
X128346356Y-86578432D01*
X128132000Y-87095931D01*
X128132000Y-87656069D01*
X128346356Y-88173568D01*
X128742432Y-88569644D01*
X128940218Y-88651570D01*
X128854356Y-88737432D01*
X128640000Y-89254931D01*
X128640000Y-89815069D01*
X128854356Y-90332568D01*
X128915000Y-90393212D01*
X128915001Y-92344410D01*
X128892804Y-92456000D01*
X128980739Y-92898074D01*
X129166680Y-93176354D01*
X129231154Y-93272847D01*
X129325753Y-93336056D01*
X130164000Y-94174304D01*
X130164000Y-94260069D01*
X130378356Y-94777568D01*
X130774432Y-95173644D01*
X131291931Y-95388000D01*
X131377697Y-95388000D01*
X133136944Y-97147248D01*
X133200153Y-97241847D01*
X133574926Y-97492262D01*
X133905413Y-97558000D01*
X133905417Y-97558000D01*
X134016999Y-97580195D01*
X134128581Y-97558000D01*
X135190788Y-97558000D01*
X135251432Y-97618644D01*
X135768931Y-97833000D01*
X136291337Y-97833000D01*
X136301001Y-97881585D01*
X136301001Y-98269990D01*
X135911432Y-98431356D01*
X135850788Y-98492000D01*
X132606304Y-98492000D01*
X128212163Y-94097860D01*
X128408000Y-93625069D01*
X128408000Y-93064931D01*
X128193644Y-92547432D01*
X127797568Y-92151356D01*
X127280069Y-91937000D01*
X126719931Y-91937000D01*
X126202432Y-92151356D01*
X125853046Y-92500742D01*
X123777504Y-90425200D01*
X123828266Y-90170000D01*
X123683008Y-89439738D01*
X123322367Y-88900000D01*
X123683008Y-88360262D01*
X123828266Y-87630000D01*
X123683008Y-86899738D01*
X123291040Y-86313116D01*
X123490777Y-86107630D01*
X123750274Y-85481133D01*
X123536510Y-85190000D01*
X122020000Y-85190000D01*
X122020000Y-85210000D01*
X121820000Y-85210000D01*
X121820000Y-85190000D01*
X121800000Y-85190000D01*
X121800000Y-84990000D01*
X121820000Y-84990000D01*
X121820000Y-84970000D01*
X122020000Y-84970000D01*
X122020000Y-84990000D01*
X123536510Y-84990000D01*
X123750274Y-84698867D01*
X123490777Y-84072370D01*
X123291040Y-83866884D01*
X123683008Y-83280262D01*
X123828266Y-82550000D01*
X123683008Y-81819738D01*
X123322367Y-81280000D01*
X123683008Y-80740262D01*
X123828266Y-80010000D01*
X123683008Y-79279738D01*
X123269348Y-78660652D01*
X122650262Y-78246992D01*
X122104333Y-78138400D01*
X121735667Y-78138400D01*
X121189738Y-78246992D01*
X120950815Y-78406635D01*
X120636902Y-78196886D01*
X120243600Y-78118653D01*
X118516400Y-78118653D01*
X118123098Y-78196886D01*
X117789673Y-78419673D01*
X117566886Y-78753098D01*
X117488653Y-79146400D01*
X117488653Y-80873600D01*
X117566886Y-81266902D01*
X117776635Y-81580815D01*
X117616992Y-81819738D01*
X117471734Y-82550000D01*
X117616992Y-83280262D01*
X117977633Y-83820000D01*
X117616992Y-84359738D01*
X117471734Y-85090000D01*
X117616992Y-85820262D01*
X117977633Y-86360000D01*
X117616992Y-86899738D01*
X117471734Y-87630000D01*
X117616992Y-88360262D01*
X117701632Y-88486935D01*
X117469151Y-88719415D01*
X117374553Y-88782624D01*
X117311344Y-88877223D01*
X117124138Y-89157397D01*
X117036203Y-89599471D01*
X117058400Y-89711061D01*
X117058399Y-93168943D01*
X117036203Y-93280529D01*
X117058399Y-93392115D01*
X117124137Y-93722602D01*
X117374552Y-94097376D01*
X117469154Y-94160587D01*
X117701632Y-94393065D01*
X117616992Y-94519738D01*
X117471734Y-95250000D01*
X117616992Y-95980262D01*
X117977633Y-96520000D01*
X117616992Y-97059738D01*
X117471734Y-97790000D01*
X117616992Y-98520262D01*
X117977633Y-99060000D01*
X117616992Y-99599738D01*
X117471734Y-100330000D01*
X117616992Y-101060262D01*
X117977633Y-101600000D01*
X117616992Y-102139738D01*
X117471734Y-102870000D01*
X117616992Y-103600262D01*
X117977633Y-104140000D01*
X117616992Y-104679738D01*
X117471734Y-105410000D01*
X117616992Y-106140262D01*
X117977633Y-106680000D01*
X117616992Y-107219738D01*
X117471734Y-107950000D01*
X117616992Y-108680262D01*
X117977633Y-109220000D01*
X117616992Y-109759738D01*
X117471734Y-110490000D01*
X117616992Y-111220262D01*
X117977633Y-111760000D01*
X117616992Y-112299738D01*
X117471734Y-113030000D01*
X117616992Y-113760262D01*
X117977633Y-114300000D01*
X117616992Y-114839738D01*
X117471734Y-115570000D01*
X117616992Y-116300262D01*
X117977633Y-116840000D01*
X117616992Y-117379738D01*
X117471734Y-118110000D01*
X117616992Y-118840262D01*
X117977633Y-119380000D01*
X117616992Y-119919738D01*
X117471734Y-120650000D01*
X117616992Y-121380262D01*
X117977633Y-121920000D01*
X117616992Y-122459738D01*
X117471734Y-123190000D01*
X117616992Y-123920262D01*
X117977633Y-124460000D01*
X117616992Y-124999738D01*
X117471734Y-125730000D01*
X117616992Y-126460262D01*
X118008960Y-127046884D01*
X117809223Y-127252370D01*
X117549726Y-127878867D01*
X117763490Y-128170000D01*
X119280000Y-128170000D01*
X119280000Y-128150000D01*
X119480000Y-128150000D01*
X119480000Y-128170000D01*
X119500000Y-128170000D01*
X119500000Y-128370000D01*
X119480000Y-128370000D01*
X119480000Y-129886933D01*
X119771134Y-130100280D01*
X120441779Y-129811278D01*
X120605625Y-129642716D01*
X121189738Y-130033008D01*
X121735667Y-130141600D01*
X122104333Y-130141600D01*
X122650262Y-130033008D01*
X123269348Y-129619348D01*
X123683008Y-129000262D01*
X123720380Y-128812379D01*
X130327000Y-128812379D01*
X130327000Y-130267621D01*
X130883898Y-131612090D01*
X131912910Y-132641102D01*
X133257379Y-133198000D01*
X134712621Y-133198000D01*
X136057090Y-132641102D01*
X137086102Y-131612090D01*
X137456703Y-130717379D01*
X156997000Y-130717379D01*
X156997000Y-132172621D01*
X157553898Y-133517090D01*
X158582910Y-134546102D01*
X159927379Y-135103000D01*
X161382621Y-135103000D01*
X162727090Y-134546102D01*
X163756102Y-133517090D01*
X164313000Y-132172621D01*
X164313000Y-130717379D01*
X163756102Y-129372910D01*
X162727090Y-128343898D01*
X161382621Y-127787000D01*
X159927379Y-127787000D01*
X158582910Y-128343898D01*
X157553898Y-129372910D01*
X156997000Y-130717379D01*
X137456703Y-130717379D01*
X137643000Y-130267621D01*
X137643000Y-128812379D01*
X137086102Y-127467910D01*
X136057090Y-126438898D01*
X134712621Y-125882000D01*
X133257379Y-125882000D01*
X131912910Y-126438898D01*
X130883898Y-127467910D01*
X130327000Y-128812379D01*
X123720380Y-128812379D01*
X123828266Y-128270000D01*
X123683008Y-127539738D01*
X123322367Y-127000000D01*
X123683008Y-126460262D01*
X123828266Y-125730000D01*
X123683008Y-124999738D01*
X123322367Y-124460000D01*
X123683008Y-123920262D01*
X123828266Y-123190000D01*
X123683008Y-122459738D01*
X123291040Y-121873116D01*
X123490777Y-121667630D01*
X123750274Y-121041133D01*
X123536510Y-120750000D01*
X122020000Y-120750000D01*
X122020000Y-120770000D01*
X121820000Y-120770000D01*
X121820000Y-120750000D01*
X121800000Y-120750000D01*
X121800000Y-120550000D01*
X121820000Y-120550000D01*
X121820000Y-120530000D01*
X122020000Y-120530000D01*
X122020000Y-120550000D01*
X123536510Y-120550000D01*
X123750274Y-120258867D01*
X123490777Y-119632370D01*
X123291040Y-119426884D01*
X123683008Y-118840262D01*
X123828266Y-118110000D01*
X123683008Y-117379738D01*
X123322367Y-116840000D01*
X123683008Y-116300262D01*
X123828266Y-115570000D01*
X123683008Y-114839738D01*
X123322367Y-114300000D01*
X123683008Y-113760262D01*
X123828266Y-113030000D01*
X123683008Y-112299738D01*
X123322367Y-111760000D01*
X123332164Y-111745337D01*
X124512310Y-112925484D01*
X124322000Y-113384931D01*
X124322000Y-113945069D01*
X124472000Y-114307200D01*
X124472001Y-115396486D01*
X124447355Y-115520388D01*
X124544991Y-116011234D01*
X124738113Y-116300262D01*
X124823034Y-116427355D01*
X124928069Y-116497537D01*
X130517463Y-122086932D01*
X130587645Y-122191967D01*
X131003765Y-122470009D01*
X131370714Y-122543000D01*
X131370718Y-122543000D01*
X131494611Y-122567644D01*
X131618504Y-122543000D01*
X136401102Y-122543000D01*
X136525000Y-122567645D01*
X136648898Y-122543000D01*
X136666401Y-122539518D01*
X136003920Y-123202000D01*
X129547200Y-123202000D01*
X129185069Y-123052000D01*
X128624931Y-123052000D01*
X128107432Y-123266356D01*
X127711356Y-123662432D01*
X127497000Y-124179931D01*
X127497000Y-124740069D01*
X127711356Y-125257568D01*
X128107432Y-125653644D01*
X128624931Y-125868000D01*
X129185069Y-125868000D01*
X129547200Y-125718000D01*
X136401102Y-125718000D01*
X136525000Y-125742645D01*
X136648898Y-125718000D01*
X137015847Y-125645009D01*
X137431967Y-125366967D01*
X137502151Y-125261929D01*
X141491081Y-121273000D01*
X141597800Y-121273000D01*
X141959931Y-121423000D01*
X142520069Y-121423000D01*
X143037568Y-121208644D01*
X143433644Y-120812568D01*
X143648000Y-120295069D01*
X143648000Y-119734931D01*
X143433644Y-119217432D01*
X143037568Y-118821356D01*
X142520069Y-118607000D01*
X141959931Y-118607000D01*
X141597800Y-118757000D01*
X141093892Y-118757000D01*
X140969999Y-118732356D01*
X140965880Y-118733175D01*
X141108000Y-118390069D01*
X141108000Y-117829931D01*
X140893644Y-117312432D01*
X140497568Y-116916356D01*
X139980069Y-116702000D01*
X139535304Y-116702000D01*
X140422248Y-115815056D01*
X140516847Y-115751847D01*
X140767262Y-115377074D01*
X140833000Y-115046587D01*
X140855196Y-114935001D01*
X140833000Y-114823415D01*
X140833000Y-108173212D01*
X140893644Y-108112568D01*
X141108000Y-107595069D01*
X141108000Y-107413001D01*
X147523700Y-107413001D01*
X148197699Y-108087000D01*
X143733212Y-108087000D01*
X143672568Y-108026356D01*
X143155069Y-107812000D01*
X142594931Y-107812000D01*
X142077432Y-108026356D01*
X141681356Y-108422432D01*
X141467000Y-108939931D01*
X141467000Y-109500069D01*
X141681356Y-110017568D01*
X142077432Y-110413644D01*
X142594931Y-110628000D01*
X143155069Y-110628000D01*
X143672568Y-110413644D01*
X143733212Y-110353000D01*
X148317695Y-110353000D01*
X164893997Y-126929303D01*
X164893998Y-128888409D01*
X164871801Y-128999999D01*
X164958232Y-129434514D01*
X164959736Y-129442073D01*
X165210151Y-129816846D01*
X165304750Y-129880055D01*
X169596694Y-134172000D01*
X165870546Y-134172000D01*
X165864028Y-134170866D01*
X165690182Y-134168227D01*
X165663770Y-134172000D01*
X165628335Y-134172000D01*
X165538048Y-134189959D01*
X165518064Y-134192814D01*
X165507814Y-134195973D01*
X165312434Y-134234837D01*
X164954201Y-134474201D01*
X164847054Y-134634557D01*
X164324617Y-135227774D01*
X163687682Y-135755256D01*
X162976073Y-136176605D01*
X162207311Y-136481447D01*
X161400322Y-136662275D01*
X160574983Y-136714636D01*
X159751623Y-136637242D01*
X158950493Y-136431995D01*
X158191340Y-136103954D01*
X157492853Y-135661194D01*
X156872226Y-135114617D01*
X156344744Y-134477682D01*
X155923395Y-133766073D01*
X155618553Y-132997311D01*
X155430739Y-132159148D01*
X155404929Y-131946496D01*
X155370503Y-131776074D01*
X155309840Y-131613134D01*
X155224435Y-131461691D01*
X155116391Y-131325472D01*
X154988367Y-131207832D01*
X154843516Y-131111668D01*
X154685406Y-131039348D01*
X154517929Y-130992651D01*
X154345208Y-130972729D01*
X154171498Y-130980071D01*
X154087693Y-130997000D01*
X139593335Y-130997000D01*
X139277434Y-131059837D01*
X138919201Y-131299201D01*
X138799667Y-131478096D01*
X138799648Y-131478120D01*
X138799620Y-131478167D01*
X138679837Y-131657434D01*
X138669977Y-131707004D01*
X138310851Y-132366714D01*
X137803267Y-133021973D01*
X137197448Y-133587651D01*
X136508977Y-134049195D01*
X135755578Y-134394725D01*
X134956621Y-134615357D01*
X134132669Y-134705413D01*
X133304913Y-134662575D01*
X132485368Y-134485945D01*
X131940994Y-134283900D01*
X131867566Y-134234837D01*
X131654668Y-134192489D01*
X131654662Y-134192487D01*
X131654656Y-134192486D01*
X131551665Y-134172000D01*
X115469270Y-134172000D01*
X115168742Y-133780111D01*
X114705732Y-132951093D01*
X114367250Y-132063931D01*
X114155591Y-131115745D01*
X114113001Y-130747567D01*
X114113001Y-128661133D01*
X117549726Y-128661133D01*
X117809223Y-129287630D01*
X118318221Y-129811278D01*
X118988866Y-130100280D01*
X119280000Y-129886933D01*
X119280000Y-128370000D01*
X117763490Y-128370000D01*
X117549726Y-128661133D01*
X114113001Y-128661133D01*
X114113001Y-74930000D01*
X176540600Y-74930000D01*
X176684803Y-75654955D01*
X177048990Y-76200000D01*
X176684803Y-76745045D01*
X176540600Y-77470000D01*
X176684803Y-78194955D01*
X177095457Y-78809543D01*
X177710045Y-79220197D01*
X178252005Y-79328000D01*
X178617995Y-79328000D01*
X179159955Y-79220197D01*
X179774543Y-78809543D01*
X180185197Y-78194955D01*
X180329400Y-77470000D01*
X180185197Y-76745045D01*
X180147081Y-76688000D01*
X181516813Y-76688000D01*
X183419473Y-78590660D01*
X183517553Y-78737447D01*
X183895135Y-78989739D01*
X184099061Y-79125999D01*
X184099062Y-79125999D01*
X184099063Y-79126000D01*
X184611853Y-79228000D01*
X184611857Y-79228000D01*
X184784999Y-79262440D01*
X184958141Y-79228000D01*
X185369273Y-79228000D01*
X185872005Y-79328000D01*
X186237995Y-79328000D01*
X186779955Y-79220197D01*
X187394543Y-78809543D01*
X187805197Y-78194955D01*
X187949400Y-77470000D01*
X187805197Y-76745045D01*
X187441010Y-76200000D01*
X187805197Y-75654955D01*
X187949400Y-74930000D01*
X187805197Y-74205045D01*
X187638843Y-73956078D01*
X187854514Y-73633302D01*
X187932747Y-73240000D01*
X187932747Y-71540000D01*
X187854514Y-71146698D01*
X187631727Y-70813273D01*
X187298302Y-70590486D01*
X186905000Y-70512253D01*
X185205000Y-70512253D01*
X184811698Y-70590486D01*
X184478273Y-70813273D01*
X184255486Y-71146698D01*
X184233545Y-71257000D01*
X182991586Y-71257000D01*
X182880000Y-71234804D01*
X182768414Y-71257000D01*
X182768413Y-71257000D01*
X182437926Y-71322738D01*
X182063153Y-71573153D01*
X182033855Y-71617000D01*
X181964931Y-71617000D01*
X181447432Y-71831356D01*
X181051356Y-72227432D01*
X180837000Y-72744931D01*
X180837000Y-73172000D01*
X180293000Y-73172000D01*
X180293000Y-72742000D01*
X180041000Y-72490000D01*
X178535000Y-72490000D01*
X178535000Y-72510000D01*
X178335000Y-72510000D01*
X178335000Y-72490000D01*
X176829000Y-72490000D01*
X176577000Y-72742000D01*
X176577000Y-73440503D01*
X176730459Y-73810986D01*
X176860928Y-73941455D01*
X176684803Y-74205045D01*
X176540600Y-74930000D01*
X114113001Y-74930000D01*
X114113001Y-71339497D01*
X176577000Y-71339497D01*
X176577000Y-72038000D01*
X176829000Y-72290000D01*
X178335000Y-72290000D01*
X178335000Y-70784000D01*
X178535000Y-70784000D01*
X178535000Y-72290000D01*
X180041000Y-72290000D01*
X180293000Y-72038000D01*
X180293000Y-71339497D01*
X180139541Y-70969014D01*
X179855986Y-70685459D01*
X179485504Y-70532000D01*
X178787000Y-70532000D01*
X178535000Y-70784000D01*
X178335000Y-70784000D01*
X178083000Y-70532000D01*
X177384496Y-70532000D01*
X177014014Y-70685459D01*
X176730459Y-70969014D01*
X176577000Y-71339497D01*
X114113001Y-71339497D01*
X114113001Y-65834153D01*
X176242269Y-65834153D01*
X176379005Y-66260962D01*
X177300742Y-66642923D01*
X178298486Y-66643077D01*
X179220341Y-66261398D01*
X179220995Y-66260962D01*
X179357731Y-65834153D01*
X177800000Y-64276421D01*
X176242269Y-65834153D01*
X114113001Y-65834153D01*
X114113001Y-64633486D01*
X175291923Y-64633486D01*
X175673602Y-65555341D01*
X175674038Y-65555995D01*
X176100847Y-65692731D01*
X177658579Y-64135000D01*
X177941421Y-64135000D01*
X179499153Y-65692731D01*
X179925962Y-65555995D01*
X180307923Y-64634258D01*
X180308077Y-63636514D01*
X179926398Y-62714659D01*
X179925962Y-62714005D01*
X179679356Y-62635000D01*
X180352253Y-62635000D01*
X180352253Y-65635000D01*
X180430486Y-66028302D01*
X180653273Y-66361727D01*
X180986698Y-66584514D01*
X181380000Y-66662747D01*
X184380000Y-66662747D01*
X184773302Y-66584514D01*
X185106727Y-66361727D01*
X185329514Y-66028302D01*
X185407747Y-65635000D01*
X185407747Y-62635000D01*
X185329514Y-62241698D01*
X185106727Y-61908273D01*
X184773302Y-61685486D01*
X184380000Y-61607253D01*
X181380000Y-61607253D01*
X180986698Y-61685486D01*
X180653273Y-61908273D01*
X180430486Y-62241698D01*
X180352253Y-62635000D01*
X179679356Y-62635000D01*
X179499153Y-62577269D01*
X177941421Y-64135000D01*
X177658579Y-64135000D01*
X176100847Y-62577269D01*
X175674038Y-62714005D01*
X175292077Y-63635742D01*
X175291923Y-64633486D01*
X114113001Y-64633486D01*
X114113001Y-59892632D01*
X114309630Y-59385571D01*
X114649554Y-58835089D01*
X115084097Y-58355777D01*
X115121368Y-58327379D01*
X132867000Y-58327379D01*
X132867000Y-59782621D01*
X133423898Y-61127090D01*
X134452910Y-62156102D01*
X135797379Y-62713000D01*
X137252621Y-62713000D01*
X137921726Y-62435847D01*
X176242269Y-62435847D01*
X177800000Y-63993579D01*
X179357731Y-62435847D01*
X179220995Y-62009038D01*
X178299258Y-61627077D01*
X177301514Y-61626923D01*
X176379659Y-62008602D01*
X176379005Y-62009038D01*
X176242269Y-62435847D01*
X137921726Y-62435847D01*
X138597090Y-62156102D01*
X139626102Y-61127090D01*
X140183000Y-59782621D01*
X140183000Y-58327379D01*
X139626102Y-56982910D01*
X138597090Y-55953898D01*
X137252621Y-55397000D01*
X135797379Y-55397000D01*
X134452910Y-55953898D01*
X133423898Y-56982910D01*
X132867000Y-58327379D01*
X115121368Y-58327379D01*
X115598719Y-57963675D01*
X116196933Y-57661436D01*
X116482640Y-57564451D01*
X132818191Y-54423000D01*
X141791407Y-54423000D01*
X145208781Y-57840374D01*
X145269201Y-57930799D01*
X145359626Y-57991219D01*
X145359627Y-57991220D01*
X145380547Y-58005198D01*
X145627434Y-58170163D01*
X145943335Y-58233000D01*
X145943339Y-58233000D01*
X146050000Y-58254216D01*
X146156661Y-58233000D01*
X156777016Y-58233000D01*
X156923276Y-58251438D01*
X157093968Y-58204694D01*
X157267566Y-58170163D01*
X157390149Y-58088255D01*
X159705901Y-56930379D01*
X165252000Y-56930379D01*
X165252000Y-58385621D01*
X165808898Y-59730090D01*
X166837910Y-60759102D01*
X168182379Y-61316000D01*
X169637621Y-61316000D01*
X170982090Y-60759102D01*
X172011102Y-59730090D01*
X172568000Y-58385621D01*
X172568000Y-56930379D01*
X172011102Y-55585910D01*
X170982090Y-54556898D01*
X169637621Y-54000000D01*
X168182379Y-54000000D01*
X166837910Y-54556898D01*
X165808898Y-55585910D01*
X165252000Y-56930379D01*
X159705901Y-56930379D01*
X165044736Y-54260963D01*
X165299185Y-54063485D01*
X165311706Y-54041520D01*
X165868406Y-53567731D01*
X166581799Y-53135684D01*
X167355084Y-52823258D01*
X168168376Y-52638483D01*
X169000750Y-52586114D01*
X169830780Y-52667499D01*
X169830780Y-52667499D01*
G37*
X169830780Y-52667499D02*
X170637131Y-52880546D01*
X171399044Y-53219772D01*
X172104873Y-53681652D01*
X172598073Y-54116467D01*
X172707635Y-54234545D01*
X173000391Y-54368843D01*
X186316996Y-57539463D01*
X187166639Y-57965301D01*
X187989757Y-58533553D01*
X188725778Y-59210830D01*
X189360379Y-59983952D01*
X189881206Y-60837869D01*
X190278122Y-61755959D01*
X190543404Y-62720364D01*
X190674697Y-63734018D01*
X190687000Y-64150978D01*
X190687001Y-132019439D01*
X190628389Y-132541973D01*
X190475508Y-132980989D01*
X190229165Y-133375222D01*
X189901598Y-133705083D01*
X189509096Y-133954172D01*
X189071161Y-134110114D01*
X188552174Y-134172000D01*
X187939305Y-134172000D01*
X187952247Y-134159058D01*
X188046848Y-134095848D01*
X188268463Y-133764177D01*
X188297262Y-133721077D01*
X188297262Y-133721076D01*
X188297263Y-133721075D01*
X188363001Y-133390588D01*
X188363001Y-133390584D01*
X188385196Y-133279002D01*
X188363001Y-133167420D01*
X188363001Y-127821582D01*
X188385196Y-127710000D01*
X188363001Y-127598418D01*
X188363001Y-127598414D01*
X188297263Y-127267927D01*
X188046848Y-126893154D01*
X188001888Y-126863113D01*
X187971847Y-126818153D01*
X187932747Y-126792027D01*
X187932747Y-126785000D01*
X187854514Y-126391698D01*
X187631727Y-126058273D01*
X187298302Y-125835486D01*
X186905000Y-125757253D01*
X185205000Y-125757253D01*
X184811698Y-125835486D01*
X184478273Y-126058273D01*
X184255486Y-126391698D01*
X184177253Y-126785000D01*
X184177253Y-128485000D01*
X184255486Y-128878302D01*
X184471157Y-129201078D01*
X184304803Y-129450045D01*
X184266535Y-129642429D01*
X183678446Y-129054340D01*
X183580366Y-128907553D01*
X182998856Y-128519000D01*
X182486066Y-128417000D01*
X182486061Y-128417000D01*
X182312919Y-128382560D01*
X182139777Y-128417000D01*
X180293000Y-128417000D01*
X180293000Y-127987000D01*
X180041000Y-127735000D01*
X178535000Y-127735000D01*
X178535000Y-127755000D01*
X178335000Y-127755000D01*
X178335000Y-127735000D01*
X176829000Y-127735000D01*
X176577000Y-127987000D01*
X176577000Y-128685503D01*
X176730459Y-129055986D01*
X176860928Y-129186455D01*
X176684803Y-129450045D01*
X176540600Y-130175000D01*
X176684803Y-130899955D01*
X177048990Y-131445000D01*
X176684803Y-131990045D01*
X176540600Y-132715000D01*
X176548955Y-132757001D01*
X171386303Y-132757001D01*
X169487301Y-130857999D01*
X169915070Y-130857999D01*
X170432569Y-130643643D01*
X170828645Y-130247567D01*
X171043001Y-129730068D01*
X171043001Y-129169930D01*
X170828645Y-128652431D01*
X170768001Y-128591787D01*
X170768001Y-126584497D01*
X176577000Y-126584497D01*
X176577000Y-127283000D01*
X176829000Y-127535000D01*
X178335000Y-127535000D01*
X178335000Y-126029000D01*
X178535000Y-126029000D01*
X178535000Y-127535000D01*
X180041000Y-127535000D01*
X180293000Y-127283000D01*
X180293000Y-126584497D01*
X180139541Y-126214014D01*
X179855986Y-125930459D01*
X179485504Y-125777000D01*
X178787000Y-125777000D01*
X178535000Y-126029000D01*
X178335000Y-126029000D01*
X178083000Y-125777000D01*
X177384496Y-125777000D01*
X177014014Y-125930459D01*
X176730459Y-126214014D01*
X176577000Y-126584497D01*
X170768001Y-126584497D01*
X170768001Y-122756582D01*
X170790196Y-122645000D01*
X170768001Y-122533418D01*
X170768001Y-122533414D01*
X170702263Y-122202927D01*
X170451848Y-121828154D01*
X170357249Y-121764945D01*
X170318000Y-121725696D01*
X170318000Y-121639931D01*
X170103644Y-121122432D01*
X169707568Y-120726356D01*
X169190069Y-120512000D01*
X168629931Y-120512000D01*
X168112432Y-120726356D01*
X167716356Y-121122432D01*
X167502000Y-121639931D01*
X167502000Y-121725696D01*
X166810697Y-122417000D01*
X166724931Y-122417000D01*
X166207432Y-122631356D01*
X166077047Y-122761741D01*
X165273306Y-121958000D01*
X165360177Y-121958000D01*
X165840922Y-121758869D01*
X166208869Y-121390922D01*
X166408000Y-120910177D01*
X166408000Y-120389823D01*
X166208869Y-119909078D01*
X165840922Y-119541131D01*
X165360177Y-119342000D01*
X164839823Y-119342000D01*
X164417335Y-119517000D01*
X163861302Y-119517000D01*
X155537665Y-111193364D01*
X155599582Y-111043883D01*
X162657947Y-118102249D01*
X162721156Y-118196848D01*
X163095929Y-118447263D01*
X163426416Y-118513001D01*
X163426420Y-118513001D01*
X163538002Y-118535196D01*
X163649584Y-118513001D01*
X176586748Y-118513001D01*
X176540600Y-118745000D01*
X176684803Y-119469955D01*
X177048990Y-120015000D01*
X176684803Y-120560045D01*
X176540600Y-121285000D01*
X176684803Y-122009955D01*
X177095457Y-122624543D01*
X177710045Y-123035197D01*
X178252005Y-123143000D01*
X178617995Y-123143000D01*
X179159955Y-123035197D01*
X179774543Y-122624543D01*
X180185197Y-122009955D01*
X180329400Y-121285000D01*
X180185197Y-120560045D01*
X180147081Y-120503000D01*
X181516813Y-120503000D01*
X183419473Y-122405660D01*
X183517553Y-122552447D01*
X183764674Y-122717568D01*
X184099061Y-122940999D01*
X184099062Y-122940999D01*
X184099063Y-122941000D01*
X184611853Y-123043000D01*
X184611857Y-123043000D01*
X184784999Y-123077440D01*
X184958141Y-123043000D01*
X185369273Y-123043000D01*
X185872005Y-123143000D01*
X186237995Y-123143000D01*
X186779955Y-123035197D01*
X187394543Y-122624543D01*
X187805197Y-122009955D01*
X187949400Y-121285000D01*
X187805197Y-120560045D01*
X187441010Y-120015000D01*
X187805197Y-119469955D01*
X187949400Y-118745000D01*
X187805197Y-118020045D01*
X187638843Y-117771078D01*
X187854514Y-117448302D01*
X187932747Y-117055000D01*
X187932747Y-115355000D01*
X187854514Y-114961698D01*
X187631727Y-114628273D01*
X187298302Y-114405486D01*
X186905000Y-114327253D01*
X185205000Y-114327253D01*
X184811698Y-114405486D01*
X184478273Y-114628273D01*
X184255486Y-114961698D01*
X184177253Y-115355000D01*
X184177253Y-115362027D01*
X184138153Y-115388153D01*
X184074944Y-115482752D01*
X183310696Y-116247001D01*
X164007307Y-116247001D01*
X163923305Y-116162999D01*
X180863414Y-116162999D01*
X180975000Y-116185195D01*
X181086586Y-116162999D01*
X181086587Y-116162999D01*
X181417074Y-116097261D01*
X181791847Y-115846846D01*
X181855058Y-115752244D01*
X184809302Y-112798001D01*
X186507415Y-112798001D01*
X186619001Y-112820197D01*
X186730587Y-112798001D01*
X186730588Y-112798001D01*
X187061075Y-112732263D01*
X187435848Y-112481848D01*
X187499059Y-112387246D01*
X187952247Y-111934058D01*
X188046848Y-111870848D01*
X188256380Y-111557261D01*
X188297262Y-111496077D01*
X188297262Y-111496076D01*
X188297263Y-111496075D01*
X188363001Y-111165588D01*
X188363001Y-111165584D01*
X188385196Y-111054002D01*
X188363001Y-110942420D01*
X188363001Y-105596582D01*
X188385196Y-105485000D01*
X188363001Y-105373418D01*
X188363001Y-105373414D01*
X188297263Y-105042927D01*
X188046848Y-104668154D01*
X188001888Y-104638113D01*
X187971847Y-104593153D01*
X187932747Y-104567027D01*
X187932747Y-104560000D01*
X187854514Y-104166698D01*
X187631727Y-103833273D01*
X187298302Y-103610486D01*
X186905000Y-103532253D01*
X185205000Y-103532253D01*
X184811698Y-103610486D01*
X184478273Y-103833273D01*
X184255486Y-104166698D01*
X184177253Y-104560000D01*
X184177253Y-106260000D01*
X184255486Y-106653302D01*
X184471157Y-106976078D01*
X184304803Y-107225045D01*
X184255267Y-107474080D01*
X183610527Y-106829340D01*
X183512447Y-106682553D01*
X182930937Y-106294000D01*
X182418147Y-106192000D01*
X182418142Y-106192000D01*
X182245000Y-106157560D01*
X182071858Y-106192000D01*
X180293000Y-106192000D01*
X180293000Y-105762000D01*
X180041000Y-105510000D01*
X178535000Y-105510000D01*
X178535000Y-105530000D01*
X178335000Y-105530000D01*
X178335000Y-105510000D01*
X176829000Y-105510000D01*
X176577000Y-105762000D01*
X176577000Y-106460503D01*
X176730459Y-106830986D01*
X176860928Y-106961455D01*
X176684803Y-107225045D01*
X176540600Y-107950000D01*
X176684803Y-108674955D01*
X177048990Y-109220000D01*
X176684803Y-109765045D01*
X176540600Y-110490000D01*
X176684803Y-111214955D01*
X177095457Y-111829543D01*
X177710045Y-112240197D01*
X178252005Y-112348000D01*
X178617995Y-112348000D01*
X179159955Y-112240197D01*
X179774543Y-111829543D01*
X180185197Y-111214955D01*
X180329400Y-110490000D01*
X180185197Y-109765045D01*
X180147081Y-109708000D01*
X181516813Y-109708000D01*
X183105754Y-111296941D01*
X180505697Y-113896999D01*
X164552080Y-113896999D01*
X164388644Y-113502432D01*
X163992568Y-113106356D01*
X163475069Y-112892000D01*
X163389304Y-112892000D01*
X162423000Y-111925697D01*
X162423000Y-104359497D01*
X176577000Y-104359497D01*
X176577000Y-105058000D01*
X176829000Y-105310000D01*
X178335000Y-105310000D01*
X178335000Y-103804000D01*
X178535000Y-103804000D01*
X178535000Y-105310000D01*
X180041000Y-105310000D01*
X180293000Y-105058000D01*
X180293000Y-104359497D01*
X180139541Y-103989014D01*
X179855986Y-103705459D01*
X179485504Y-103552000D01*
X178787000Y-103552000D01*
X178535000Y-103804000D01*
X178335000Y-103804000D01*
X178083000Y-103552000D01*
X177384496Y-103552000D01*
X177014014Y-103705459D01*
X176730459Y-103989014D01*
X176577000Y-104359497D01*
X162423000Y-104359497D01*
X162423000Y-98013212D01*
X162483644Y-97952568D01*
X162698000Y-97435069D01*
X162698000Y-96874931D01*
X162483644Y-96357432D01*
X162087568Y-95961356D01*
X161570069Y-95747000D01*
X161484304Y-95747000D01*
X159301801Y-93564497D01*
X176577000Y-93564497D01*
X176577000Y-94263000D01*
X176829000Y-94515000D01*
X178335000Y-94515000D01*
X178335000Y-93009000D01*
X178535000Y-93009000D01*
X178535000Y-94515000D01*
X180041000Y-94515000D01*
X180293000Y-94263000D01*
X180293000Y-93564497D01*
X180139541Y-93194014D01*
X179855986Y-92910459D01*
X179485504Y-92757000D01*
X178787000Y-92757000D01*
X178535000Y-93009000D01*
X178335000Y-93009000D01*
X178083000Y-92757000D01*
X177384496Y-92757000D01*
X177014014Y-92910459D01*
X176730459Y-93194014D01*
X176577000Y-93564497D01*
X159301801Y-93564497D01*
X159248000Y-93510697D01*
X159248000Y-92933212D01*
X159308644Y-92872568D01*
X159523000Y-92355069D01*
X159523000Y-91794931D01*
X159308644Y-91277432D01*
X158912568Y-90881356D01*
X158395069Y-90667000D01*
X157834931Y-90667000D01*
X157317432Y-90881356D01*
X156921356Y-91277432D01*
X156707000Y-91794931D01*
X156707000Y-92355069D01*
X156921356Y-92872568D01*
X156982000Y-92933212D01*
X156982001Y-93868410D01*
X156959804Y-93980000D01*
X157031548Y-94340675D01*
X157047739Y-94422074D01*
X157298154Y-94796847D01*
X157392752Y-94860055D01*
X159882000Y-97349304D01*
X159882000Y-97435069D01*
X160096356Y-97952568D01*
X160157001Y-98013213D01*
X160157000Y-110732698D01*
X151122046Y-101697745D01*
X151058835Y-101603143D01*
X150684062Y-101352728D01*
X150353575Y-101286990D01*
X150353574Y-101286990D01*
X150241988Y-101264794D01*
X150130402Y-101286990D01*
X147666372Y-101286990D01*
X154728736Y-94224627D01*
X154793303Y-94251372D01*
X155353441Y-94251372D01*
X155870940Y-94037016D01*
X156267016Y-93640940D01*
X156481372Y-93123441D01*
X156481372Y-92563303D01*
X156267016Y-92045804D01*
X156130259Y-91909047D01*
X158837245Y-89202060D01*
X158931847Y-89138849D01*
X159182262Y-88764076D01*
X159248000Y-88433589D01*
X159248000Y-88433588D01*
X159270196Y-88322002D01*
X159248000Y-88210416D01*
X159248000Y-87853212D01*
X159308644Y-87792568D01*
X159523000Y-87275069D01*
X159523000Y-86714931D01*
X159308644Y-86197432D01*
X158912568Y-85801356D01*
X158395069Y-85587000D01*
X157834931Y-85587000D01*
X157317432Y-85801356D01*
X156921356Y-86197432D01*
X156707000Y-86714931D01*
X156707000Y-87275069D01*
X156921356Y-87792568D01*
X156981744Y-87852956D01*
X145953000Y-98881699D01*
X145953000Y-98544931D01*
X145738644Y-98027432D01*
X145678000Y-97966788D01*
X145678000Y-97224303D01*
X146244304Y-96658000D01*
X146330069Y-96658000D01*
X146847568Y-96443644D01*
X147243644Y-96047568D01*
X147458000Y-95530069D01*
X147458000Y-94969931D01*
X147243644Y-94452432D01*
X146847568Y-94056356D01*
X146330069Y-93842000D01*
X145769931Y-93842000D01*
X145252432Y-94056356D01*
X144856356Y-94452432D01*
X144642000Y-94969931D01*
X144642000Y-95055696D01*
X143822753Y-95874944D01*
X143728154Y-95938153D01*
X143664945Y-96032752D01*
X143477739Y-96312926D01*
X143389804Y-96755000D01*
X143412001Y-96866590D01*
X143412000Y-97966788D01*
X143351356Y-98027432D01*
X143137000Y-98544931D01*
X143137000Y-99105069D01*
X143214430Y-99292000D01*
X141398665Y-99292000D01*
X140976177Y-99117000D01*
X140455823Y-99117000D01*
X139975078Y-99316131D01*
X139607131Y-99684078D01*
X139408000Y-100164823D01*
X139408000Y-100643732D01*
X139275000Y-100964823D01*
X139275000Y-101485177D01*
X139474131Y-101965922D01*
X139842078Y-102333869D01*
X140322823Y-102533000D01*
X140843177Y-102533000D01*
X141265665Y-102358000D01*
X142837000Y-102358000D01*
X142837000Y-102495177D01*
X142938137Y-102739344D01*
X142737000Y-103224931D01*
X142737000Y-103242001D01*
X136486712Y-103242001D01*
X138606260Y-101122454D01*
X138700856Y-101059247D01*
X138764063Y-100964651D01*
X138764065Y-100964649D01*
X138951271Y-100684475D01*
X139039205Y-100242401D01*
X139017009Y-100130815D01*
X139017010Y-99173293D01*
X139943546Y-98246758D01*
X140115432Y-98418644D01*
X140632931Y-98633000D01*
X141193069Y-98633000D01*
X141710568Y-98418644D01*
X142106644Y-98022568D01*
X142321000Y-97505069D01*
X142321000Y-96944931D01*
X142106644Y-96427432D01*
X142001072Y-96321860D01*
X141980262Y-96217242D01*
X141980153Y-96217078D01*
X141821918Y-95980262D01*
X141729847Y-95842468D01*
X141635248Y-95779259D01*
X139338989Y-93483000D01*
X139345069Y-93483000D01*
X139700000Y-93335982D01*
X140054931Y-93483000D01*
X140615069Y-93483000D01*
X140970000Y-93335982D01*
X141324931Y-93483000D01*
X141885069Y-93483000D01*
X142402568Y-93268644D01*
X142798644Y-92872568D01*
X143013000Y-92355069D01*
X143013000Y-92269303D01*
X152139305Y-83142999D01*
X159882000Y-83142999D01*
X159882000Y-83465069D01*
X160029018Y-83820000D01*
X159882000Y-84174931D01*
X159882000Y-84735069D01*
X160096356Y-85252568D01*
X160492432Y-85648644D01*
X161009931Y-85863000D01*
X161570069Y-85863000D01*
X162087568Y-85648644D01*
X162148212Y-85588000D01*
X166258414Y-85588000D01*
X166370000Y-85610196D01*
X166481586Y-85588000D01*
X166481587Y-85588000D01*
X166812074Y-85522262D01*
X167186847Y-85271847D01*
X167250058Y-85177245D01*
X167834304Y-84593000D01*
X167920069Y-84593000D01*
X168437568Y-84378644D01*
X168833644Y-83982568D01*
X169048000Y-83465069D01*
X169048000Y-83142999D01*
X183310696Y-83142999D01*
X184074944Y-83907248D01*
X184138153Y-84001847D01*
X184177253Y-84027973D01*
X184177253Y-84035000D01*
X184255486Y-84428302D01*
X184471157Y-84751078D01*
X184304803Y-85000045D01*
X184266535Y-85192429D01*
X183678446Y-84604340D01*
X183580366Y-84457553D01*
X182998856Y-84069000D01*
X182486066Y-83967000D01*
X182486061Y-83967000D01*
X182312919Y-83932560D01*
X182139777Y-83967000D01*
X180293000Y-83967000D01*
X180293000Y-83537000D01*
X180041000Y-83285000D01*
X178535000Y-83285000D01*
X178535000Y-83305000D01*
X178335000Y-83305000D01*
X178335000Y-83285000D01*
X176829000Y-83285000D01*
X176577000Y-83537000D01*
X176577000Y-84235503D01*
X176730459Y-84605986D01*
X176860928Y-84736455D01*
X176684803Y-85000045D01*
X176540600Y-85725000D01*
X176684803Y-86449955D01*
X177048990Y-86995000D01*
X176684803Y-87540045D01*
X176540600Y-88265000D01*
X176684803Y-88989955D01*
X177095457Y-89604543D01*
X177710045Y-90015197D01*
X178252005Y-90123000D01*
X178617995Y-90123000D01*
X179159955Y-90015197D01*
X179774543Y-89604543D01*
X180185197Y-88989955D01*
X180329400Y-88265000D01*
X180185197Y-87540045D01*
X180147081Y-87483000D01*
X181584732Y-87483000D01*
X183487392Y-89385660D01*
X183585472Y-89532447D01*
X183739624Y-89635448D01*
X184166980Y-89920999D01*
X184166981Y-89920999D01*
X184166982Y-89921000D01*
X184679772Y-90023000D01*
X184679776Y-90023000D01*
X184852918Y-90057440D01*
X185026060Y-90023000D01*
X185369273Y-90023000D01*
X185872005Y-90123000D01*
X186237995Y-90123000D01*
X186779955Y-90015197D01*
X186827000Y-89983762D01*
X186827000Y-91140696D01*
X185332753Y-92634944D01*
X185238154Y-92698153D01*
X185212028Y-92737253D01*
X185205000Y-92737253D01*
X184811698Y-92815486D01*
X184478273Y-93038273D01*
X184255486Y-93371698D01*
X184177253Y-93765000D01*
X184177253Y-95465000D01*
X184255486Y-95858302D01*
X184471157Y-96181078D01*
X184304803Y-96430045D01*
X184266535Y-96622429D01*
X183678446Y-96034340D01*
X183580366Y-95887553D01*
X182998856Y-95499000D01*
X182486066Y-95397000D01*
X182486061Y-95397000D01*
X182312919Y-95362560D01*
X182139777Y-95397000D01*
X180293000Y-95397000D01*
X180293000Y-94967000D01*
X180041000Y-94715000D01*
X178535000Y-94715000D01*
X178535000Y-94735000D01*
X178335000Y-94735000D01*
X178335000Y-94715000D01*
X176829000Y-94715000D01*
X176577000Y-94967000D01*
X176577000Y-95665503D01*
X176730459Y-96035986D01*
X176860928Y-96166455D01*
X176684803Y-96430045D01*
X176540600Y-97155000D01*
X176684803Y-97879955D01*
X177048990Y-98425000D01*
X176684803Y-98970045D01*
X176540600Y-99695000D01*
X176684803Y-100419955D01*
X177095457Y-101034543D01*
X177710045Y-101445197D01*
X178252005Y-101553000D01*
X178617995Y-101553000D01*
X179159955Y-101445197D01*
X179774543Y-101034543D01*
X180185197Y-100419955D01*
X180329400Y-99695000D01*
X180185197Y-98970045D01*
X180147081Y-98913000D01*
X181584732Y-98913000D01*
X183487392Y-100815660D01*
X183585472Y-100962447D01*
X183892713Y-101167739D01*
X184166980Y-101350999D01*
X184166981Y-101350999D01*
X184166982Y-101351000D01*
X184679772Y-101453000D01*
X184679776Y-101453000D01*
X184852918Y-101487440D01*
X185026060Y-101453000D01*
X185369273Y-101453000D01*
X185872005Y-101553000D01*
X186237995Y-101553000D01*
X186779955Y-101445197D01*
X187394543Y-101034543D01*
X187805197Y-100419955D01*
X187949400Y-99695000D01*
X187805197Y-98970045D01*
X187441010Y-98425000D01*
X187805197Y-97879955D01*
X187949400Y-97155000D01*
X187805197Y-96430045D01*
X187638843Y-96181078D01*
X187854514Y-95858302D01*
X187932747Y-95465000D01*
X187932747Y-93765000D01*
X187854514Y-93371698D01*
X187832921Y-93339382D01*
X188682248Y-92490056D01*
X188776847Y-92426847D01*
X189027262Y-92052074D01*
X189093000Y-91721587D01*
X189093000Y-91721586D01*
X189115196Y-91610000D01*
X189093000Y-91498414D01*
X189093000Y-82916583D01*
X189115196Y-82804997D01*
X189091924Y-82688000D01*
X189027262Y-82362924D01*
X188776847Y-81988151D01*
X188682248Y-81924942D01*
X186590059Y-79832754D01*
X186526848Y-79738152D01*
X186152075Y-79487737D01*
X185821588Y-79421999D01*
X185821587Y-79421999D01*
X185710001Y-79399803D01*
X185598415Y-79421999D01*
X150696587Y-79421999D01*
X150585001Y-79399803D01*
X150473415Y-79421999D01*
X150473414Y-79421999D01*
X150142927Y-79487737D01*
X149768154Y-79738152D01*
X149704945Y-79832751D01*
X138870697Y-90667000D01*
X138784931Y-90667000D01*
X138267432Y-90881356D01*
X137871356Y-91277432D01*
X137657000Y-91794931D01*
X137657000Y-91801012D01*
X136769000Y-90913012D01*
X136769000Y-88503586D01*
X136791196Y-88392000D01*
X136732388Y-88096353D01*
X136703262Y-87949926D01*
X136452847Y-87575153D01*
X136358248Y-87511944D01*
X135500058Y-86653754D01*
X135436847Y-86559153D01*
X135062074Y-86308738D01*
X134731587Y-86243000D01*
X134731586Y-86243000D01*
X134620000Y-86220804D01*
X134508414Y-86243000D01*
X130398212Y-86243000D01*
X130337568Y-86182356D01*
X129820069Y-85968000D01*
X129259931Y-85968000D01*
X128742432Y-86182356D01*
X128346356Y-86578432D01*
X128132000Y-87095931D01*
X128132000Y-87656069D01*
X128346356Y-88173568D01*
X128742432Y-88569644D01*
X128940218Y-88651570D01*
X128854356Y-88737432D01*
X128640000Y-89254931D01*
X128640000Y-89815069D01*
X128854356Y-90332568D01*
X128915000Y-90393212D01*
X128915001Y-92344410D01*
X128892804Y-92456000D01*
X128980739Y-92898074D01*
X129166680Y-93176354D01*
X129231154Y-93272847D01*
X129325753Y-93336056D01*
X130164000Y-94174304D01*
X130164000Y-94260069D01*
X130378356Y-94777568D01*
X130774432Y-95173644D01*
X131291931Y-95388000D01*
X131377697Y-95388000D01*
X133136944Y-97147248D01*
X133200153Y-97241847D01*
X133574926Y-97492262D01*
X133905413Y-97558000D01*
X133905417Y-97558000D01*
X134016999Y-97580195D01*
X134128581Y-97558000D01*
X135190788Y-97558000D01*
X135251432Y-97618644D01*
X135768931Y-97833000D01*
X136291337Y-97833000D01*
X136301001Y-97881585D01*
X136301001Y-98269990D01*
X135911432Y-98431356D01*
X135850788Y-98492000D01*
X132606304Y-98492000D01*
X128212163Y-94097860D01*
X128408000Y-93625069D01*
X128408000Y-93064931D01*
X128193644Y-92547432D01*
X127797568Y-92151356D01*
X127280069Y-91937000D01*
X126719931Y-91937000D01*
X126202432Y-92151356D01*
X125853046Y-92500742D01*
X123777504Y-90425200D01*
X123828266Y-90170000D01*
X123683008Y-89439738D01*
X123322367Y-88900000D01*
X123683008Y-88360262D01*
X123828266Y-87630000D01*
X123683008Y-86899738D01*
X123291040Y-86313116D01*
X123490777Y-86107630D01*
X123750274Y-85481133D01*
X123536510Y-85190000D01*
X122020000Y-85190000D01*
X122020000Y-85210000D01*
X121820000Y-85210000D01*
X121820000Y-85190000D01*
X121800000Y-85190000D01*
X121800000Y-84990000D01*
X121820000Y-84990000D01*
X121820000Y-84970000D01*
X122020000Y-84970000D01*
X122020000Y-84990000D01*
X123536510Y-84990000D01*
X123750274Y-84698867D01*
X123490777Y-84072370D01*
X123291040Y-83866884D01*
X123683008Y-83280262D01*
X123828266Y-82550000D01*
X123683008Y-81819738D01*
X123322367Y-81280000D01*
X123683008Y-80740262D01*
X123828266Y-80010000D01*
X123683008Y-79279738D01*
X123269348Y-78660652D01*
X122650262Y-78246992D01*
X122104333Y-78138400D01*
X121735667Y-78138400D01*
X121189738Y-78246992D01*
X120950815Y-78406635D01*
X120636902Y-78196886D01*
X120243600Y-78118653D01*
X118516400Y-78118653D01*
X118123098Y-78196886D01*
X117789673Y-78419673D01*
X117566886Y-78753098D01*
X117488653Y-79146400D01*
X117488653Y-80873600D01*
X117566886Y-81266902D01*
X117776635Y-81580815D01*
X117616992Y-81819738D01*
X117471734Y-82550000D01*
X117616992Y-83280262D01*
X117977633Y-83820000D01*
X117616992Y-84359738D01*
X117471734Y-85090000D01*
X117616992Y-85820262D01*
X117977633Y-86360000D01*
X117616992Y-86899738D01*
X117471734Y-87630000D01*
X117616992Y-88360262D01*
X117701632Y-88486935D01*
X117469151Y-88719415D01*
X117374553Y-88782624D01*
X117311344Y-88877223D01*
X117124138Y-89157397D01*
X117036203Y-89599471D01*
X117058400Y-89711061D01*
X117058399Y-93168943D01*
X117036203Y-93280529D01*
X117058399Y-93392115D01*
X117124137Y-93722602D01*
X117374552Y-94097376D01*
X117469154Y-94160587D01*
X117701632Y-94393065D01*
X117616992Y-94519738D01*
X117471734Y-95250000D01*
X117616992Y-95980262D01*
X117977633Y-96520000D01*
X117616992Y-97059738D01*
X117471734Y-97790000D01*
X117616992Y-98520262D01*
X117977633Y-99060000D01*
X117616992Y-99599738D01*
X117471734Y-100330000D01*
X117616992Y-101060262D01*
X117977633Y-101600000D01*
X117616992Y-102139738D01*
X117471734Y-102870000D01*
X117616992Y-103600262D01*
X117977633Y-104140000D01*
X117616992Y-104679738D01*
X117471734Y-105410000D01*
X117616992Y-106140262D01*
X117977633Y-106680000D01*
X117616992Y-107219738D01*
X117471734Y-107950000D01*
X117616992Y-108680262D01*
X117977633Y-109220000D01*
X117616992Y-109759738D01*
X117471734Y-110490000D01*
X117616992Y-111220262D01*
X117977633Y-111760000D01*
X117616992Y-112299738D01*
X117471734Y-113030000D01*
X117616992Y-113760262D01*
X117977633Y-114300000D01*
X117616992Y-114839738D01*
X117471734Y-115570000D01*
X117616992Y-116300262D01*
X117977633Y-116840000D01*
X117616992Y-117379738D01*
X117471734Y-118110000D01*
X117616992Y-118840262D01*
X117977633Y-119380000D01*
X117616992Y-119919738D01*
X117471734Y-120650000D01*
X117616992Y-121380262D01*
X117977633Y-121920000D01*
X117616992Y-122459738D01*
X117471734Y-123190000D01*
X117616992Y-123920262D01*
X117977633Y-124460000D01*
X117616992Y-124999738D01*
X117471734Y-125730000D01*
X117616992Y-126460262D01*
X118008960Y-127046884D01*
X117809223Y-127252370D01*
X117549726Y-127878867D01*
X117763490Y-128170000D01*
X119280000Y-128170000D01*
X119280000Y-128150000D01*
X119480000Y-128150000D01*
X119480000Y-128170000D01*
X119500000Y-128170000D01*
X119500000Y-128370000D01*
X119480000Y-128370000D01*
X119480000Y-129886933D01*
X119771134Y-130100280D01*
X120441779Y-129811278D01*
X120605625Y-129642716D01*
X121189738Y-130033008D01*
X121735667Y-130141600D01*
X122104333Y-130141600D01*
X122650262Y-130033008D01*
X123269348Y-129619348D01*
X123683008Y-129000262D01*
X123720380Y-128812379D01*
X130327000Y-128812379D01*
X130327000Y-130267621D01*
X130883898Y-131612090D01*
X131912910Y-132641102D01*
X133257379Y-133198000D01*
X134712621Y-133198000D01*
X136057090Y-132641102D01*
X137086102Y-131612090D01*
X137456703Y-130717379D01*
X156997000Y-130717379D01*
X156997000Y-132172621D01*
X157553898Y-133517090D01*
X158582910Y-134546102D01*
X159927379Y-135103000D01*
X161382621Y-135103000D01*
X162727090Y-134546102D01*
X163756102Y-133517090D01*
X164313000Y-132172621D01*
X164313000Y-130717379D01*
X163756102Y-129372910D01*
X162727090Y-128343898D01*
X161382621Y-127787000D01*
X159927379Y-127787000D01*
X158582910Y-128343898D01*
X157553898Y-129372910D01*
X156997000Y-130717379D01*
X137456703Y-130717379D01*
X137643000Y-130267621D01*
X137643000Y-128812379D01*
X137086102Y-127467910D01*
X136057090Y-126438898D01*
X134712621Y-125882000D01*
X133257379Y-125882000D01*
X131912910Y-126438898D01*
X130883898Y-127467910D01*
X130327000Y-128812379D01*
X123720380Y-128812379D01*
X123828266Y-128270000D01*
X123683008Y-127539738D01*
X123322367Y-127000000D01*
X123683008Y-126460262D01*
X123828266Y-125730000D01*
X123683008Y-124999738D01*
X123322367Y-124460000D01*
X123683008Y-123920262D01*
X123828266Y-123190000D01*
X123683008Y-122459738D01*
X123291040Y-121873116D01*
X123490777Y-121667630D01*
X123750274Y-121041133D01*
X123536510Y-120750000D01*
X122020000Y-120750000D01*
X122020000Y-120770000D01*
X121820000Y-120770000D01*
X121820000Y-120750000D01*
X121800000Y-120750000D01*
X121800000Y-120550000D01*
X121820000Y-120550000D01*
X121820000Y-120530000D01*
X122020000Y-120530000D01*
X122020000Y-120550000D01*
X123536510Y-120550000D01*
X123750274Y-120258867D01*
X123490777Y-119632370D01*
X123291040Y-119426884D01*
X123683008Y-118840262D01*
X123828266Y-118110000D01*
X123683008Y-117379738D01*
X123322367Y-116840000D01*
X123683008Y-116300262D01*
X123828266Y-115570000D01*
X123683008Y-114839738D01*
X123322367Y-114300000D01*
X123683008Y-113760262D01*
X123828266Y-113030000D01*
X123683008Y-112299738D01*
X123322367Y-111760000D01*
X123332164Y-111745337D01*
X124512310Y-112925484D01*
X124322000Y-113384931D01*
X124322000Y-113945069D01*
X124472000Y-114307200D01*
X124472001Y-115396486D01*
X124447355Y-115520388D01*
X124544991Y-116011234D01*
X124738113Y-116300262D01*
X124823034Y-116427355D01*
X124928069Y-116497537D01*
X130517463Y-122086932D01*
X130587645Y-122191967D01*
X131003765Y-122470009D01*
X131370714Y-122543000D01*
X131370718Y-122543000D01*
X131494611Y-122567644D01*
X131618504Y-122543000D01*
X136401102Y-122543000D01*
X136525000Y-122567645D01*
X136648898Y-122543000D01*
X136666401Y-122539518D01*
X136003920Y-123202000D01*
X129547200Y-123202000D01*
X129185069Y-123052000D01*
X128624931Y-123052000D01*
X128107432Y-123266356D01*
X127711356Y-123662432D01*
X127497000Y-124179931D01*
X127497000Y-124740069D01*
X127711356Y-125257568D01*
X128107432Y-125653644D01*
X128624931Y-125868000D01*
X129185069Y-125868000D01*
X129547200Y-125718000D01*
X136401102Y-125718000D01*
X136525000Y-125742645D01*
X136648898Y-125718000D01*
X137015847Y-125645009D01*
X137431967Y-125366967D01*
X137502151Y-125261929D01*
X141491081Y-121273000D01*
X141597800Y-121273000D01*
X141959931Y-121423000D01*
X142520069Y-121423000D01*
X143037568Y-121208644D01*
X143433644Y-120812568D01*
X143648000Y-120295069D01*
X143648000Y-119734931D01*
X143433644Y-119217432D01*
X143037568Y-118821356D01*
X142520069Y-118607000D01*
X141959931Y-118607000D01*
X141597800Y-118757000D01*
X141093892Y-118757000D01*
X140969999Y-118732356D01*
X140965880Y-118733175D01*
X141108000Y-118390069D01*
X141108000Y-117829931D01*
X140893644Y-117312432D01*
X140497568Y-116916356D01*
X139980069Y-116702000D01*
X139535304Y-116702000D01*
X140422248Y-115815056D01*
X140516847Y-115751847D01*
X140767262Y-115377074D01*
X140833000Y-115046587D01*
X140855196Y-114935001D01*
X140833000Y-114823415D01*
X140833000Y-108173212D01*
X140893644Y-108112568D01*
X141108000Y-107595069D01*
X141108000Y-107413001D01*
X147523700Y-107413001D01*
X148197699Y-108087000D01*
X143733212Y-108087000D01*
X143672568Y-108026356D01*
X143155069Y-107812000D01*
X142594931Y-107812000D01*
X142077432Y-108026356D01*
X141681356Y-108422432D01*
X141467000Y-108939931D01*
X141467000Y-109500069D01*
X141681356Y-110017568D01*
X142077432Y-110413644D01*
X142594931Y-110628000D01*
X143155069Y-110628000D01*
X143672568Y-110413644D01*
X143733212Y-110353000D01*
X148317695Y-110353000D01*
X164893997Y-126929303D01*
X164893998Y-128888409D01*
X164871801Y-128999999D01*
X164958232Y-129434514D01*
X164959736Y-129442073D01*
X165210151Y-129816846D01*
X165304750Y-129880055D01*
X169596694Y-134172000D01*
X165870546Y-134172000D01*
X165864028Y-134170866D01*
X165690182Y-134168227D01*
X165663770Y-134172000D01*
X165628335Y-134172000D01*
X165538048Y-134189959D01*
X165518064Y-134192814D01*
X165507814Y-134195973D01*
X165312434Y-134234837D01*
X164954201Y-134474201D01*
X164847054Y-134634557D01*
X164324617Y-135227774D01*
X163687682Y-135755256D01*
X162976073Y-136176605D01*
X162207311Y-136481447D01*
X161400322Y-136662275D01*
X160574983Y-136714636D01*
X159751623Y-136637242D01*
X158950493Y-136431995D01*
X158191340Y-136103954D01*
X157492853Y-135661194D01*
X156872226Y-135114617D01*
X156344744Y-134477682D01*
X155923395Y-133766073D01*
X155618553Y-132997311D01*
X155430739Y-132159148D01*
X155404929Y-131946496D01*
X155370503Y-131776074D01*
X155309840Y-131613134D01*
X155224435Y-131461691D01*
X155116391Y-131325472D01*
X154988367Y-131207832D01*
X154843516Y-131111668D01*
X154685406Y-131039348D01*
X154517929Y-130992651D01*
X154345208Y-130972729D01*
X154171498Y-130980071D01*
X154087693Y-130997000D01*
X139593335Y-130997000D01*
X139277434Y-131059837D01*
X138919201Y-131299201D01*
X138799667Y-131478096D01*
X138799648Y-131478120D01*
X138799620Y-131478167D01*
X138679837Y-131657434D01*
X138669977Y-131707004D01*
X138310851Y-132366714D01*
X137803267Y-133021973D01*
X137197448Y-133587651D01*
X136508977Y-134049195D01*
X135755578Y-134394725D01*
X134956621Y-134615357D01*
X134132669Y-134705413D01*
X133304913Y-134662575D01*
X132485368Y-134485945D01*
X131940994Y-134283900D01*
X131867566Y-134234837D01*
X131654668Y-134192489D01*
X131654662Y-134192487D01*
X131654656Y-134192486D01*
X131551665Y-134172000D01*
X115469270Y-134172000D01*
X115168742Y-133780111D01*
X114705732Y-132951093D01*
X114367250Y-132063931D01*
X114155591Y-131115745D01*
X114113001Y-130747567D01*
X114113001Y-128661133D01*
X117549726Y-128661133D01*
X117809223Y-129287630D01*
X118318221Y-129811278D01*
X118988866Y-130100280D01*
X119280000Y-129886933D01*
X119280000Y-128370000D01*
X117763490Y-128370000D01*
X117549726Y-128661133D01*
X114113001Y-128661133D01*
X114113001Y-74930000D01*
X176540600Y-74930000D01*
X176684803Y-75654955D01*
X177048990Y-76200000D01*
X176684803Y-76745045D01*
X176540600Y-77470000D01*
X176684803Y-78194955D01*
X177095457Y-78809543D01*
X177710045Y-79220197D01*
X178252005Y-79328000D01*
X178617995Y-79328000D01*
X179159955Y-79220197D01*
X179774543Y-78809543D01*
X180185197Y-78194955D01*
X180329400Y-77470000D01*
X180185197Y-76745045D01*
X180147081Y-76688000D01*
X181516813Y-76688000D01*
X183419473Y-78590660D01*
X183517553Y-78737447D01*
X183895135Y-78989739D01*
X184099061Y-79125999D01*
X184099062Y-79125999D01*
X184099063Y-79126000D01*
X184611853Y-79228000D01*
X184611857Y-79228000D01*
X184784999Y-79262440D01*
X184958141Y-79228000D01*
X185369273Y-79228000D01*
X185872005Y-79328000D01*
X186237995Y-79328000D01*
X186779955Y-79220197D01*
X187394543Y-78809543D01*
X187805197Y-78194955D01*
X187949400Y-77470000D01*
X187805197Y-76745045D01*
X187441010Y-76200000D01*
X187805197Y-75654955D01*
X187949400Y-74930000D01*
X187805197Y-74205045D01*
X187638843Y-73956078D01*
X187854514Y-73633302D01*
X187932747Y-73240000D01*
X187932747Y-71540000D01*
X187854514Y-71146698D01*
X187631727Y-70813273D01*
X187298302Y-70590486D01*
X186905000Y-70512253D01*
X185205000Y-70512253D01*
X184811698Y-70590486D01*
X184478273Y-70813273D01*
X184255486Y-71146698D01*
X184233545Y-71257000D01*
X182991586Y-71257000D01*
X182880000Y-71234804D01*
X182768414Y-71257000D01*
X182768413Y-71257000D01*
X182437926Y-71322738D01*
X182063153Y-71573153D01*
X182033855Y-71617000D01*
X181964931Y-71617000D01*
X181447432Y-71831356D01*
X181051356Y-72227432D01*
X180837000Y-72744931D01*
X180837000Y-73172000D01*
X180293000Y-73172000D01*
X180293000Y-72742000D01*
X180041000Y-72490000D01*
X178535000Y-72490000D01*
X178535000Y-72510000D01*
X178335000Y-72510000D01*
X178335000Y-72490000D01*
X176829000Y-72490000D01*
X176577000Y-72742000D01*
X176577000Y-73440503D01*
X176730459Y-73810986D01*
X176860928Y-73941455D01*
X176684803Y-74205045D01*
X176540600Y-74930000D01*
X114113001Y-74930000D01*
X114113001Y-71339497D01*
X176577000Y-71339497D01*
X176577000Y-72038000D01*
X176829000Y-72290000D01*
X178335000Y-72290000D01*
X178335000Y-70784000D01*
X178535000Y-70784000D01*
X178535000Y-72290000D01*
X180041000Y-72290000D01*
X180293000Y-72038000D01*
X180293000Y-71339497D01*
X180139541Y-70969014D01*
X179855986Y-70685459D01*
X179485504Y-70532000D01*
X178787000Y-70532000D01*
X178535000Y-70784000D01*
X178335000Y-70784000D01*
X178083000Y-70532000D01*
X177384496Y-70532000D01*
X177014014Y-70685459D01*
X176730459Y-70969014D01*
X176577000Y-71339497D01*
X114113001Y-71339497D01*
X114113001Y-65834153D01*
X176242269Y-65834153D01*
X176379005Y-66260962D01*
X177300742Y-66642923D01*
X178298486Y-66643077D01*
X179220341Y-66261398D01*
X179220995Y-66260962D01*
X179357731Y-65834153D01*
X177800000Y-64276421D01*
X176242269Y-65834153D01*
X114113001Y-65834153D01*
X114113001Y-64633486D01*
X175291923Y-64633486D01*
X175673602Y-65555341D01*
X175674038Y-65555995D01*
X176100847Y-65692731D01*
X177658579Y-64135000D01*
X177941421Y-64135000D01*
X179499153Y-65692731D01*
X179925962Y-65555995D01*
X180307923Y-64634258D01*
X180308077Y-63636514D01*
X179926398Y-62714659D01*
X179925962Y-62714005D01*
X179679356Y-62635000D01*
X180352253Y-62635000D01*
X180352253Y-65635000D01*
X180430486Y-66028302D01*
X180653273Y-66361727D01*
X180986698Y-66584514D01*
X181380000Y-66662747D01*
X184380000Y-66662747D01*
X184773302Y-66584514D01*
X185106727Y-66361727D01*
X185329514Y-66028302D01*
X185407747Y-65635000D01*
X185407747Y-62635000D01*
X185329514Y-62241698D01*
X185106727Y-61908273D01*
X184773302Y-61685486D01*
X184380000Y-61607253D01*
X181380000Y-61607253D01*
X180986698Y-61685486D01*
X180653273Y-61908273D01*
X180430486Y-62241698D01*
X180352253Y-62635000D01*
X179679356Y-62635000D01*
X179499153Y-62577269D01*
X177941421Y-64135000D01*
X177658579Y-64135000D01*
X176100847Y-62577269D01*
X175674038Y-62714005D01*
X175292077Y-63635742D01*
X175291923Y-64633486D01*
X114113001Y-64633486D01*
X114113001Y-59892632D01*
X114309630Y-59385571D01*
X114649554Y-58835089D01*
X115084097Y-58355777D01*
X115121368Y-58327379D01*
X132867000Y-58327379D01*
X132867000Y-59782621D01*
X133423898Y-61127090D01*
X134452910Y-62156102D01*
X135797379Y-62713000D01*
X137252621Y-62713000D01*
X137921726Y-62435847D01*
X176242269Y-62435847D01*
X177800000Y-63993579D01*
X179357731Y-62435847D01*
X179220995Y-62009038D01*
X178299258Y-61627077D01*
X177301514Y-61626923D01*
X176379659Y-62008602D01*
X176379005Y-62009038D01*
X176242269Y-62435847D01*
X137921726Y-62435847D01*
X138597090Y-62156102D01*
X139626102Y-61127090D01*
X140183000Y-59782621D01*
X140183000Y-58327379D01*
X139626102Y-56982910D01*
X138597090Y-55953898D01*
X137252621Y-55397000D01*
X135797379Y-55397000D01*
X134452910Y-55953898D01*
X133423898Y-56982910D01*
X132867000Y-58327379D01*
X115121368Y-58327379D01*
X115598719Y-57963675D01*
X116196933Y-57661436D01*
X116482640Y-57564451D01*
X132818191Y-54423000D01*
X141791407Y-54423000D01*
X145208781Y-57840374D01*
X145269201Y-57930799D01*
X145359626Y-57991219D01*
X145359627Y-57991220D01*
X145380547Y-58005198D01*
X145627434Y-58170163D01*
X145943335Y-58233000D01*
X145943339Y-58233000D01*
X146050000Y-58254216D01*
X146156661Y-58233000D01*
X156777016Y-58233000D01*
X156923276Y-58251438D01*
X157093968Y-58204694D01*
X157267566Y-58170163D01*
X157390149Y-58088255D01*
X159705901Y-56930379D01*
X165252000Y-56930379D01*
X165252000Y-58385621D01*
X165808898Y-59730090D01*
X166837910Y-60759102D01*
X168182379Y-61316000D01*
X169637621Y-61316000D01*
X170982090Y-60759102D01*
X172011102Y-59730090D01*
X172568000Y-58385621D01*
X172568000Y-56930379D01*
X172011102Y-55585910D01*
X170982090Y-54556898D01*
X169637621Y-54000000D01*
X168182379Y-54000000D01*
X166837910Y-54556898D01*
X165808898Y-55585910D01*
X165252000Y-56930379D01*
X159705901Y-56930379D01*
X165044736Y-54260963D01*
X165299185Y-54063485D01*
X165311706Y-54041520D01*
X165868406Y-53567731D01*
X166581799Y-53135684D01*
X167355084Y-52823258D01*
X168168376Y-52638483D01*
X169000750Y-52586114D01*
X169830780Y-52667499D01*
G36*
X131256944Y-100347248D02*
X131320153Y-100441847D01*
X131694926Y-100692262D01*
X132025413Y-100758000D01*
X132136999Y-100780196D01*
X132248585Y-100758000D01*
X135129696Y-100758000D01*
X132627755Y-103259942D01*
X132533153Y-103323153D01*
X132282738Y-103697927D01*
X132233180Y-103947074D01*
X132194804Y-104140000D01*
X132217000Y-104251586D01*
X132217000Y-104551788D01*
X132156356Y-104612432D01*
X131942000Y-105129931D01*
X131942000Y-105690069D01*
X132156356Y-106207568D01*
X132552432Y-106603644D01*
X133069931Y-106818000D01*
X133487001Y-106818000D01*
X133487001Y-107076410D01*
X133464804Y-107188000D01*
X133522620Y-107478657D01*
X133552739Y-107630074D01*
X133803154Y-108004847D01*
X133897753Y-108068056D01*
X134991944Y-109162248D01*
X135055153Y-109256847D01*
X135429926Y-109507262D01*
X135760413Y-109573000D01*
X135760417Y-109573000D01*
X135871999Y-109595195D01*
X135983581Y-109573000D01*
X137716788Y-109573000D01*
X137777432Y-109633644D01*
X138294931Y-109848000D01*
X138567000Y-109848000D01*
X138567001Y-114465695D01*
X138204266Y-114828430D01*
X138066278Y-114508221D01*
X137542630Y-113999223D01*
X136916133Y-113739726D01*
X136625000Y-113953490D01*
X136625000Y-115470000D01*
X136645000Y-115470000D01*
X136645000Y-115670000D01*
X136625000Y-115670000D01*
X136625000Y-115690000D01*
X136425000Y-115690000D01*
X136425000Y-115670000D01*
X136405000Y-115670000D01*
X136405000Y-115470000D01*
X136425000Y-115470000D01*
X136425000Y-113953490D01*
X136133867Y-113739726D01*
X135507370Y-113999223D01*
X135301884Y-114198960D01*
X134715262Y-113806992D01*
X134169333Y-113698400D01*
X133800667Y-113698400D01*
X133729800Y-113712496D01*
X123612078Y-103594775D01*
X123750274Y-103261133D01*
X123536510Y-102970000D01*
X122020000Y-102970000D01*
X122020000Y-102990000D01*
X121820000Y-102990000D01*
X121820000Y-102970000D01*
X121800000Y-102970000D01*
X121800000Y-102770000D01*
X121820000Y-102770000D01*
X121820000Y-102750000D01*
X122020000Y-102750000D01*
X122020000Y-102770000D01*
X123536510Y-102770000D01*
X123750274Y-102478867D01*
X123490777Y-101852370D01*
X123291040Y-101646884D01*
X123422007Y-101450877D01*
X123643153Y-101781847D01*
X123737755Y-101845058D01*
X124957000Y-103064304D01*
X124957000Y-103150069D01*
X125171356Y-103667568D01*
X125567432Y-104063644D01*
X126084931Y-104278000D01*
X126645069Y-104278000D01*
X127162568Y-104063644D01*
X127558644Y-103667568D01*
X127773000Y-103150069D01*
X127773000Y-102589931D01*
X127558644Y-102072432D01*
X127162568Y-101676356D01*
X126645069Y-101462000D01*
X126559304Y-101462000D01*
X125593000Y-100495697D01*
X125593000Y-99629235D01*
X126084931Y-99833000D01*
X126645069Y-99833000D01*
X127162568Y-99618644D01*
X127558644Y-99222568D01*
X127773000Y-98705069D01*
X127773000Y-98144931D01*
X127558644Y-97627432D01*
X127498000Y-97566788D01*
X127498000Y-96588303D01*
X131256944Y-100347248D01*
X131256944Y-100347248D01*
G37*
X131256944Y-100347248D02*
X131320153Y-100441847D01*
X131694926Y-100692262D01*
X132025413Y-100758000D01*
X132136999Y-100780196D01*
X132248585Y-100758000D01*
X135129696Y-100758000D01*
X132627755Y-103259942D01*
X132533153Y-103323153D01*
X132282738Y-103697927D01*
X132233180Y-103947074D01*
X132194804Y-104140000D01*
X132217000Y-104251586D01*
X132217000Y-104551788D01*
X132156356Y-104612432D01*
X131942000Y-105129931D01*
X131942000Y-105690069D01*
X132156356Y-106207568D01*
X132552432Y-106603644D01*
X133069931Y-106818000D01*
X133487001Y-106818000D01*
X133487001Y-107076410D01*
X133464804Y-107188000D01*
X133522620Y-107478657D01*
X133552739Y-107630074D01*
X133803154Y-108004847D01*
X133897753Y-108068056D01*
X134991944Y-109162248D01*
X135055153Y-109256847D01*
X135429926Y-109507262D01*
X135760413Y-109573000D01*
X135760417Y-109573000D01*
X135871999Y-109595195D01*
X135983581Y-109573000D01*
X137716788Y-109573000D01*
X137777432Y-109633644D01*
X138294931Y-109848000D01*
X138567000Y-109848000D01*
X138567001Y-114465695D01*
X138204266Y-114828430D01*
X138066278Y-114508221D01*
X137542630Y-113999223D01*
X136916133Y-113739726D01*
X136625000Y-113953490D01*
X136625000Y-115470000D01*
X136645000Y-115470000D01*
X136645000Y-115670000D01*
X136625000Y-115670000D01*
X136625000Y-115690000D01*
X136425000Y-115690000D01*
X136425000Y-115670000D01*
X136405000Y-115670000D01*
X136405000Y-115470000D01*
X136425000Y-115470000D01*
X136425000Y-113953490D01*
X136133867Y-113739726D01*
X135507370Y-113999223D01*
X135301884Y-114198960D01*
X134715262Y-113806992D01*
X134169333Y-113698400D01*
X133800667Y-113698400D01*
X133729800Y-113712496D01*
X123612078Y-103594775D01*
X123750274Y-103261133D01*
X123536510Y-102970000D01*
X122020000Y-102970000D01*
X122020000Y-102990000D01*
X121820000Y-102990000D01*
X121820000Y-102970000D01*
X121800000Y-102970000D01*
X121800000Y-102770000D01*
X121820000Y-102770000D01*
X121820000Y-102750000D01*
X122020000Y-102750000D01*
X122020000Y-102770000D01*
X123536510Y-102770000D01*
X123750274Y-102478867D01*
X123490777Y-101852370D01*
X123291040Y-101646884D01*
X123422007Y-101450877D01*
X123643153Y-101781847D01*
X123737755Y-101845058D01*
X124957000Y-103064304D01*
X124957000Y-103150069D01*
X125171356Y-103667568D01*
X125567432Y-104063644D01*
X126084931Y-104278000D01*
X126645069Y-104278000D01*
X127162568Y-104063644D01*
X127558644Y-103667568D01*
X127773000Y-103150069D01*
X127773000Y-102589931D01*
X127558644Y-102072432D01*
X127162568Y-101676356D01*
X126645069Y-101462000D01*
X126559304Y-101462000D01*
X125593000Y-100495697D01*
X125593000Y-99629235D01*
X126084931Y-99833000D01*
X126645069Y-99833000D01*
X127162568Y-99618644D01*
X127558644Y-99222568D01*
X127773000Y-98705069D01*
X127773000Y-98144931D01*
X127558644Y-97627432D01*
X127498000Y-97566788D01*
X127498000Y-96588303D01*
X131256944Y-100347248D01*
G36*
X122020000Y-95150000D02*
X122040000Y-95150000D01*
X122040000Y-95350000D01*
X122020000Y-95350000D01*
X122020000Y-95370000D01*
X121820000Y-95370000D01*
X121820000Y-95350000D01*
X121800000Y-95350000D01*
X121800000Y-95150000D01*
X121820000Y-95150000D01*
X121820000Y-95130000D01*
X122020000Y-95130000D01*
X122020000Y-95150000D01*
X122020000Y-95150000D01*
G37*
X122020000Y-95150000D02*
X122040000Y-95150000D01*
X122040000Y-95350000D01*
X122020000Y-95350000D01*
X122020000Y-95370000D01*
X121820000Y-95370000D01*
X121820000Y-95350000D01*
X121800000Y-95350000D01*
X121800000Y-95150000D01*
X121820000Y-95150000D01*
X121820000Y-95130000D01*
X122020000Y-95130000D01*
X122020000Y-95150000D01*
G36*
X119480000Y-90070000D02*
X119500000Y-90070000D01*
X119500000Y-90270000D01*
X119480000Y-90270000D01*
X119480000Y-90290000D01*
X119324399Y-90290000D01*
X119324399Y-90068774D01*
X119343173Y-90050000D01*
X119480000Y-90050000D01*
X119480000Y-90070000D01*
X119480000Y-90070000D01*
G37*
X119480000Y-90070000D02*
X119500000Y-90070000D01*
X119500000Y-90270000D01*
X119480000Y-90270000D01*
X119480000Y-90290000D01*
X119324399Y-90290000D01*
X119324399Y-90068774D01*
X119343173Y-90050000D01*
X119480000Y-90050000D01*
X119480000Y-90070000D01*
%TD*%
M02*
