%TF.GenerationSoftware,KiCad,Pcbnew,5.0.2-bee76a0~70~ubuntu18.04.1*%
%TF.CreationDate,2019-03-23T16:18:47+02:00*%
%TF.ProjectId,servos_control_schem,73657276-6f73-45f6-936f-6e74726f6c5f,rev?*%
%TF.SameCoordinates,Original*%
%TF.FileFunction,Legend,Top*%
%TF.FilePolarity,Positive*%
%FSLAX46Y46*%
G04 Gerber Fmt 4.6, Leading zero omitted, Abs format (unit mm)*
G04 Created by KiCad (PCBNEW 5.0.2-bee76a0~70~ubuntu18.04.1) date Sat 23 Mar 2019 04:18:47 PM EET*
%MOMM*%
%LPD*%
G01*
G04 APERTURE LIST*
%ADD10C,0.300000*%
%ADD11C,0.250000*%
%ADD12C,0.150000*%
%ADD13C,0.200000*%
%ADD14C,0.120000*%
G04 APERTURE END LIST*
D10*
X181403571Y-128303571D02*
X180546428Y-128303571D01*
X180975000Y-128303571D02*
X180975000Y-126803571D01*
X180832142Y-127017857D01*
X180689285Y-127160714D01*
X180546428Y-127232142D01*
X180546428Y-129496428D02*
X180617857Y-129425000D01*
X180760714Y-129353571D01*
X181117857Y-129353571D01*
X181260714Y-129425000D01*
X181332142Y-129496428D01*
X181403571Y-129639285D01*
X181403571Y-129782142D01*
X181332142Y-129996428D01*
X180475000Y-130853571D01*
X181403571Y-130853571D01*
X180475000Y-131903571D02*
X181403571Y-131903571D01*
X180903571Y-132475000D01*
X181117857Y-132475000D01*
X181260714Y-132546428D01*
X181332142Y-132617857D01*
X181403571Y-132760714D01*
X181403571Y-133117857D01*
X181332142Y-133260714D01*
X181260714Y-133332142D01*
X181117857Y-133403571D01*
X180689285Y-133403571D01*
X180546428Y-133332142D01*
X180475000Y-133260714D01*
X181403571Y-116873571D02*
X180546428Y-116873571D01*
X180975000Y-116873571D02*
X180975000Y-115373571D01*
X180832142Y-115587857D01*
X180689285Y-115730714D01*
X180546428Y-115802142D01*
X180546428Y-118066428D02*
X180617857Y-117995000D01*
X180760714Y-117923571D01*
X181117857Y-117923571D01*
X181260714Y-117995000D01*
X181332142Y-118066428D01*
X181403571Y-118209285D01*
X181403571Y-118352142D01*
X181332142Y-118566428D01*
X180475000Y-119423571D01*
X181403571Y-119423571D01*
X180475000Y-120473571D02*
X181403571Y-120473571D01*
X180903571Y-121045000D01*
X181117857Y-121045000D01*
X181260714Y-121116428D01*
X181332142Y-121187857D01*
X181403571Y-121330714D01*
X181403571Y-121687857D01*
X181332142Y-121830714D01*
X181260714Y-121902142D01*
X181117857Y-121973571D01*
X180689285Y-121973571D01*
X180546428Y-121902142D01*
X180475000Y-121830714D01*
X181403571Y-106078571D02*
X180546428Y-106078571D01*
X180975000Y-106078571D02*
X180975000Y-104578571D01*
X180832142Y-104792857D01*
X180689285Y-104935714D01*
X180546428Y-105007142D01*
X180546428Y-107271428D02*
X180617857Y-107200000D01*
X180760714Y-107128571D01*
X181117857Y-107128571D01*
X181260714Y-107200000D01*
X181332142Y-107271428D01*
X181403571Y-107414285D01*
X181403571Y-107557142D01*
X181332142Y-107771428D01*
X180475000Y-108628571D01*
X181403571Y-108628571D01*
X180475000Y-109678571D02*
X181403571Y-109678571D01*
X180903571Y-110250000D01*
X181117857Y-110250000D01*
X181260714Y-110321428D01*
X181332142Y-110392857D01*
X181403571Y-110535714D01*
X181403571Y-110892857D01*
X181332142Y-111035714D01*
X181260714Y-111107142D01*
X181117857Y-111178571D01*
X180689285Y-111178571D01*
X180546428Y-111107142D01*
X180475000Y-111035714D01*
X181403571Y-95283571D02*
X180546428Y-95283571D01*
X180975000Y-95283571D02*
X180975000Y-93783571D01*
X180832142Y-93997857D01*
X180689285Y-94140714D01*
X180546428Y-94212142D01*
X180546428Y-96476428D02*
X180617857Y-96405000D01*
X180760714Y-96333571D01*
X181117857Y-96333571D01*
X181260714Y-96405000D01*
X181332142Y-96476428D01*
X181403571Y-96619285D01*
X181403571Y-96762142D01*
X181332142Y-96976428D01*
X180475000Y-97833571D01*
X181403571Y-97833571D01*
X180475000Y-98883571D02*
X181403571Y-98883571D01*
X180903571Y-99455000D01*
X181117857Y-99455000D01*
X181260714Y-99526428D01*
X181332142Y-99597857D01*
X181403571Y-99740714D01*
X181403571Y-100097857D01*
X181332142Y-100240714D01*
X181260714Y-100312142D01*
X181117857Y-100383571D01*
X180689285Y-100383571D01*
X180546428Y-100312142D01*
X180475000Y-100240714D01*
X181403571Y-73058571D02*
X180546428Y-73058571D01*
X180975000Y-73058571D02*
X180975000Y-71558571D01*
X180832142Y-71772857D01*
X180689285Y-71915714D01*
X180546428Y-71987142D01*
X180546428Y-74251428D02*
X180617857Y-74180000D01*
X180760714Y-74108571D01*
X181117857Y-74108571D01*
X181260714Y-74180000D01*
X181332142Y-74251428D01*
X181403571Y-74394285D01*
X181403571Y-74537142D01*
X181332142Y-74751428D01*
X180475000Y-75608571D01*
X181403571Y-75608571D01*
X180475000Y-76658571D02*
X181403571Y-76658571D01*
X180903571Y-77230000D01*
X181117857Y-77230000D01*
X181260714Y-77301428D01*
X181332142Y-77372857D01*
X181403571Y-77515714D01*
X181403571Y-77872857D01*
X181332142Y-78015714D01*
X181260714Y-78087142D01*
X181117857Y-78158571D01*
X180689285Y-78158571D01*
X180546428Y-78087142D01*
X180475000Y-78015714D01*
X181403571Y-83853571D02*
X180546428Y-83853571D01*
X180975000Y-83853571D02*
X180975000Y-82353571D01*
X180832142Y-82567857D01*
X180689285Y-82710714D01*
X180546428Y-82782142D01*
X180546428Y-85046428D02*
X180617857Y-84975000D01*
X180760714Y-84903571D01*
X181117857Y-84903571D01*
X181260714Y-84975000D01*
X181332142Y-85046428D01*
X181403571Y-85189285D01*
X181403571Y-85332142D01*
X181332142Y-85546428D01*
X180475000Y-86403571D01*
X181403571Y-86403571D01*
X180475000Y-87453571D02*
X181403571Y-87453571D01*
X180903571Y-88025000D01*
X181117857Y-88025000D01*
X181260714Y-88096428D01*
X181332142Y-88167857D01*
X181403571Y-88310714D01*
X181403571Y-88667857D01*
X181332142Y-88810714D01*
X181260714Y-88882142D01*
X181117857Y-88953571D01*
X180689285Y-88953571D01*
X180546428Y-88882142D01*
X180475000Y-88810714D01*
X188166428Y-128232142D02*
X188380714Y-128303571D01*
X188737857Y-128303571D01*
X188880714Y-128232142D01*
X188952142Y-128160714D01*
X189023571Y-128017857D01*
X189023571Y-127875000D01*
X188952142Y-127732142D01*
X188880714Y-127660714D01*
X188737857Y-127589285D01*
X188452142Y-127517857D01*
X188309285Y-127446428D01*
X188237857Y-127375000D01*
X188166428Y-127232142D01*
X188166428Y-127089285D01*
X188237857Y-126946428D01*
X188309285Y-126875000D01*
X188452142Y-126803571D01*
X188809285Y-126803571D01*
X189023571Y-126875000D01*
X188095000Y-129353571D02*
X188595000Y-130853571D01*
X189095000Y-129353571D01*
X188987857Y-131975000D02*
X188845000Y-131903571D01*
X188630714Y-131903571D01*
X188416428Y-131975000D01*
X188273571Y-132117857D01*
X188202142Y-132260714D01*
X188130714Y-132546428D01*
X188130714Y-132760714D01*
X188202142Y-133046428D01*
X188273571Y-133189285D01*
X188416428Y-133332142D01*
X188630714Y-133403571D01*
X188773571Y-133403571D01*
X188987857Y-133332142D01*
X189059285Y-133260714D01*
X189059285Y-132760714D01*
X188773571Y-132760714D01*
X188166428Y-116802142D02*
X188380714Y-116873571D01*
X188737857Y-116873571D01*
X188880714Y-116802142D01*
X188952142Y-116730714D01*
X189023571Y-116587857D01*
X189023571Y-116445000D01*
X188952142Y-116302142D01*
X188880714Y-116230714D01*
X188737857Y-116159285D01*
X188452142Y-116087857D01*
X188309285Y-116016428D01*
X188237857Y-115945000D01*
X188166428Y-115802142D01*
X188166428Y-115659285D01*
X188237857Y-115516428D01*
X188309285Y-115445000D01*
X188452142Y-115373571D01*
X188809285Y-115373571D01*
X189023571Y-115445000D01*
X188095000Y-117923571D02*
X188595000Y-119423571D01*
X189095000Y-117923571D01*
X188987857Y-120545000D02*
X188845000Y-120473571D01*
X188630714Y-120473571D01*
X188416428Y-120545000D01*
X188273571Y-120687857D01*
X188202142Y-120830714D01*
X188130714Y-121116428D01*
X188130714Y-121330714D01*
X188202142Y-121616428D01*
X188273571Y-121759285D01*
X188416428Y-121902142D01*
X188630714Y-121973571D01*
X188773571Y-121973571D01*
X188987857Y-121902142D01*
X189059285Y-121830714D01*
X189059285Y-121330714D01*
X188773571Y-121330714D01*
X188166428Y-106007142D02*
X188380714Y-106078571D01*
X188737857Y-106078571D01*
X188880714Y-106007142D01*
X188952142Y-105935714D01*
X189023571Y-105792857D01*
X189023571Y-105650000D01*
X188952142Y-105507142D01*
X188880714Y-105435714D01*
X188737857Y-105364285D01*
X188452142Y-105292857D01*
X188309285Y-105221428D01*
X188237857Y-105150000D01*
X188166428Y-105007142D01*
X188166428Y-104864285D01*
X188237857Y-104721428D01*
X188309285Y-104650000D01*
X188452142Y-104578571D01*
X188809285Y-104578571D01*
X189023571Y-104650000D01*
X188095000Y-107128571D02*
X188595000Y-108628571D01*
X189095000Y-107128571D01*
X188987857Y-109750000D02*
X188845000Y-109678571D01*
X188630714Y-109678571D01*
X188416428Y-109750000D01*
X188273571Y-109892857D01*
X188202142Y-110035714D01*
X188130714Y-110321428D01*
X188130714Y-110535714D01*
X188202142Y-110821428D01*
X188273571Y-110964285D01*
X188416428Y-111107142D01*
X188630714Y-111178571D01*
X188773571Y-111178571D01*
X188987857Y-111107142D01*
X189059285Y-111035714D01*
X189059285Y-110535714D01*
X188773571Y-110535714D01*
X188166428Y-95212142D02*
X188380714Y-95283571D01*
X188737857Y-95283571D01*
X188880714Y-95212142D01*
X188952142Y-95140714D01*
X189023571Y-94997857D01*
X189023571Y-94855000D01*
X188952142Y-94712142D01*
X188880714Y-94640714D01*
X188737857Y-94569285D01*
X188452142Y-94497857D01*
X188309285Y-94426428D01*
X188237857Y-94355000D01*
X188166428Y-94212142D01*
X188166428Y-94069285D01*
X188237857Y-93926428D01*
X188309285Y-93855000D01*
X188452142Y-93783571D01*
X188809285Y-93783571D01*
X189023571Y-93855000D01*
X188095000Y-96333571D02*
X188595000Y-97833571D01*
X189095000Y-96333571D01*
X188987857Y-98955000D02*
X188845000Y-98883571D01*
X188630714Y-98883571D01*
X188416428Y-98955000D01*
X188273571Y-99097857D01*
X188202142Y-99240714D01*
X188130714Y-99526428D01*
X188130714Y-99740714D01*
X188202142Y-100026428D01*
X188273571Y-100169285D01*
X188416428Y-100312142D01*
X188630714Y-100383571D01*
X188773571Y-100383571D01*
X188987857Y-100312142D01*
X189059285Y-100240714D01*
X189059285Y-99740714D01*
X188773571Y-99740714D01*
X188166428Y-83782142D02*
X188380714Y-83853571D01*
X188737857Y-83853571D01*
X188880714Y-83782142D01*
X188952142Y-83710714D01*
X189023571Y-83567857D01*
X189023571Y-83425000D01*
X188952142Y-83282142D01*
X188880714Y-83210714D01*
X188737857Y-83139285D01*
X188452142Y-83067857D01*
X188309285Y-82996428D01*
X188237857Y-82925000D01*
X188166428Y-82782142D01*
X188166428Y-82639285D01*
X188237857Y-82496428D01*
X188309285Y-82425000D01*
X188452142Y-82353571D01*
X188809285Y-82353571D01*
X189023571Y-82425000D01*
X188095000Y-84903571D02*
X188595000Y-86403571D01*
X189095000Y-84903571D01*
X188987857Y-87525000D02*
X188845000Y-87453571D01*
X188630714Y-87453571D01*
X188416428Y-87525000D01*
X188273571Y-87667857D01*
X188202142Y-87810714D01*
X188130714Y-88096428D01*
X188130714Y-88310714D01*
X188202142Y-88596428D01*
X188273571Y-88739285D01*
X188416428Y-88882142D01*
X188630714Y-88953571D01*
X188773571Y-88953571D01*
X188987857Y-88882142D01*
X189059285Y-88810714D01*
X189059285Y-88310714D01*
X188773571Y-88310714D01*
X188166428Y-72987142D02*
X188380714Y-73058571D01*
X188737857Y-73058571D01*
X188880714Y-72987142D01*
X188952142Y-72915714D01*
X189023571Y-72772857D01*
X189023571Y-72630000D01*
X188952142Y-72487142D01*
X188880714Y-72415714D01*
X188737857Y-72344285D01*
X188452142Y-72272857D01*
X188309285Y-72201428D01*
X188237857Y-72130000D01*
X188166428Y-71987142D01*
X188166428Y-71844285D01*
X188237857Y-71701428D01*
X188309285Y-71630000D01*
X188452142Y-71558571D01*
X188809285Y-71558571D01*
X189023571Y-71630000D01*
X188095000Y-74108571D02*
X188595000Y-75608571D01*
X189095000Y-74108571D01*
X188987857Y-76730000D02*
X188845000Y-76658571D01*
X188630714Y-76658571D01*
X188416428Y-76730000D01*
X188273571Y-76872857D01*
X188202142Y-77015714D01*
X188130714Y-77301428D01*
X188130714Y-77515714D01*
X188202142Y-77801428D01*
X188273571Y-77944285D01*
X188416428Y-78087142D01*
X188630714Y-78158571D01*
X188773571Y-78158571D01*
X188987857Y-78087142D01*
X189059285Y-78015714D01*
X189059285Y-77515714D01*
X188773571Y-77515714D01*
X182451428Y-88008839D02*
X182394285Y-87944553D01*
X182337142Y-87765982D01*
X182337142Y-87651696D01*
X182394285Y-87487410D01*
X182508571Y-87387410D01*
X182622857Y-87344553D01*
X182851428Y-87315982D01*
X183022857Y-87337410D01*
X183251428Y-87423125D01*
X183365714Y-87494553D01*
X183480000Y-87623125D01*
X183537142Y-87801696D01*
X183537142Y-87915982D01*
X183480000Y-88080267D01*
X183422857Y-88130267D01*
X183137142Y-89123125D02*
X182337142Y-89023125D01*
X183137142Y-88608839D02*
X182508571Y-88530267D01*
X182394285Y-88573125D01*
X182337142Y-88680267D01*
X182337142Y-88851696D01*
X182394285Y-88973125D01*
X182451428Y-89037410D01*
X182337142Y-89594553D02*
X183137142Y-89694553D01*
X182908571Y-89665982D02*
X183022857Y-89737410D01*
X183080000Y-89801696D01*
X183137142Y-89923125D01*
X183137142Y-90037410D01*
X182337142Y-90337410D02*
X183137142Y-90437410D01*
X182908571Y-90408839D02*
X183022857Y-90480267D01*
X183080000Y-90544553D01*
X183137142Y-90665982D01*
X183137142Y-90780267D01*
X182394285Y-91544553D02*
X182337142Y-91423125D01*
X182337142Y-91194553D01*
X182394285Y-91087410D01*
X182508571Y-91044553D01*
X182965714Y-91101696D01*
X183080000Y-91173125D01*
X183137142Y-91294553D01*
X183137142Y-91523125D01*
X183080000Y-91630267D01*
X182965714Y-91673125D01*
X182851428Y-91658839D01*
X182737142Y-91073125D01*
X183137142Y-92208839D02*
X182337142Y-92108839D01*
X183022857Y-92194553D02*
X183080000Y-92258839D01*
X183137142Y-92380267D01*
X183137142Y-92551696D01*
X183080000Y-92658839D01*
X182965714Y-92701696D01*
X182337142Y-92623125D01*
X183137142Y-93123125D02*
X183137142Y-93580267D01*
X183537142Y-93344553D02*
X182508571Y-93215982D01*
X182394285Y-93258839D01*
X182337142Y-93365982D01*
X182337142Y-93480267D01*
X182394285Y-94744553D02*
X182337142Y-94908839D01*
X182337142Y-95194553D01*
X182394285Y-95315982D01*
X182451428Y-95380267D01*
X182565714Y-95451696D01*
X182680000Y-95465982D01*
X182794285Y-95423125D01*
X182851428Y-95373125D01*
X182908571Y-95265982D01*
X182965714Y-95044553D01*
X183022857Y-94937410D01*
X183080000Y-94887410D01*
X183194285Y-94844553D01*
X183308571Y-94858839D01*
X183422857Y-94930267D01*
X183480000Y-94994553D01*
X183537142Y-95115982D01*
X183537142Y-95401696D01*
X183480000Y-95565982D01*
X182394285Y-96401696D02*
X182337142Y-96280267D01*
X182337142Y-96051696D01*
X182394285Y-95944553D01*
X182508571Y-95901696D01*
X182965714Y-95958839D01*
X183080000Y-96030267D01*
X183137142Y-96151696D01*
X183137142Y-96380267D01*
X183080000Y-96487410D01*
X182965714Y-96530267D01*
X182851428Y-96515982D01*
X182737142Y-95930267D01*
X183137142Y-97065982D02*
X182337142Y-96965982D01*
X183022857Y-97051696D02*
X183080000Y-97115982D01*
X183137142Y-97237410D01*
X183137142Y-97408839D01*
X183080000Y-97515982D01*
X182965714Y-97558839D01*
X182337142Y-97480267D01*
X182394285Y-98001696D02*
X182337142Y-98108839D01*
X182337142Y-98337410D01*
X182394285Y-98458839D01*
X182508571Y-98530267D01*
X182565714Y-98537410D01*
X182680000Y-98494553D01*
X182737142Y-98387410D01*
X182737142Y-98215982D01*
X182794285Y-98108839D01*
X182908571Y-98065982D01*
X182965714Y-98073125D01*
X183080000Y-98144553D01*
X183137142Y-98265982D01*
X183137142Y-98437410D01*
X183080000Y-98544553D01*
X182394285Y-99487410D02*
X182337142Y-99365982D01*
X182337142Y-99137410D01*
X182394285Y-99030267D01*
X182508571Y-98987410D01*
X182965714Y-99044553D01*
X183080000Y-99115982D01*
X183137142Y-99237410D01*
X183137142Y-99465982D01*
X183080000Y-99573125D01*
X182965714Y-99615982D01*
X182851428Y-99601696D01*
X182737142Y-99015982D01*
X182965714Y-101044553D02*
X182965714Y-101444553D01*
X182337142Y-101537410D02*
X182337142Y-100965982D01*
X183537142Y-101115982D01*
X183537142Y-101687410D01*
X183137142Y-102151696D02*
X182337142Y-102051696D01*
X183022857Y-102137410D02*
X183080000Y-102201696D01*
X183137142Y-102323125D01*
X183137142Y-102494553D01*
X183080000Y-102601696D01*
X182965714Y-102644553D01*
X182337142Y-102565982D01*
X182337142Y-103651696D02*
X182965714Y-103730267D01*
X183080000Y-103687410D01*
X183137142Y-103580267D01*
X183137142Y-103351696D01*
X183080000Y-103230267D01*
X182394285Y-103658839D02*
X182337142Y-103537410D01*
X182337142Y-103251696D01*
X182394285Y-103144553D01*
X182508571Y-103101696D01*
X182622857Y-103115982D01*
X182737142Y-103187410D01*
X182794285Y-103308839D01*
X182794285Y-103594553D01*
X182851428Y-103715982D01*
X182337142Y-104223125D02*
X183537142Y-104373125D01*
X183080000Y-104315982D02*
X183137142Y-104437410D01*
X183137142Y-104665982D01*
X183080000Y-104773125D01*
X183022857Y-104823125D01*
X182908571Y-104865982D01*
X182565714Y-104823125D01*
X182451428Y-104751696D01*
X182394285Y-104687410D01*
X182337142Y-104565982D01*
X182337142Y-104337410D01*
X182394285Y-104230267D01*
X182337142Y-105480267D02*
X182394285Y-105373125D01*
X182508571Y-105330267D01*
X183537142Y-105458839D01*
X182394285Y-106401696D02*
X182337142Y-106280267D01*
X182337142Y-106051696D01*
X182394285Y-105944553D01*
X182508571Y-105901696D01*
X182965714Y-105958839D01*
X183080000Y-106030267D01*
X183137142Y-106151696D01*
X183137142Y-106380267D01*
X183080000Y-106487410D01*
X182965714Y-106530267D01*
X182851428Y-106515982D01*
X182737142Y-105930267D01*
X183422857Y-107958839D02*
X183480000Y-108023125D01*
X183537142Y-108144553D01*
X183537142Y-108430267D01*
X183480000Y-108537410D01*
X183422857Y-108587410D01*
X183308571Y-108630267D01*
X183194285Y-108615982D01*
X183022857Y-108537410D01*
X182337142Y-107765982D01*
X182337142Y-108508839D01*
X182794285Y-109080267D02*
X182794285Y-109994553D01*
X183537142Y-110544553D02*
X183537142Y-111287410D01*
X183080000Y-110830267D01*
X183080000Y-111001696D01*
X183022857Y-111108839D01*
X182965714Y-111158839D01*
X182851428Y-111201696D01*
X182565714Y-111165982D01*
X182451428Y-111094553D01*
X182394285Y-111030267D01*
X182337142Y-110908839D01*
X182337142Y-110565982D01*
X182394285Y-110458839D01*
X182451428Y-110408839D01*
X182337142Y-112565982D02*
X183537142Y-112715982D01*
X183537142Y-113001696D01*
X183480000Y-113165982D01*
X183365714Y-113265982D01*
X183251428Y-113308839D01*
X183022857Y-113337410D01*
X182851428Y-113315982D01*
X182622857Y-113230267D01*
X182508571Y-113158839D01*
X182394285Y-113030267D01*
X182337142Y-112851696D01*
X182337142Y-112565982D01*
X182337142Y-113765982D02*
X183137142Y-113865982D01*
X183537142Y-113915982D02*
X183480000Y-113851696D01*
X183422857Y-113901696D01*
X183480000Y-113965982D01*
X183537142Y-113915982D01*
X183422857Y-113901696D01*
X182394285Y-114287410D02*
X182337142Y-114394553D01*
X182337142Y-114623125D01*
X182394285Y-114744553D01*
X182508571Y-114815982D01*
X182565714Y-114823125D01*
X182680000Y-114780267D01*
X182737142Y-114673125D01*
X182737142Y-114501696D01*
X182794285Y-114394553D01*
X182908571Y-114351696D01*
X182965714Y-114358839D01*
X183080000Y-114430267D01*
X183137142Y-114551696D01*
X183137142Y-114723125D01*
X183080000Y-114830267D01*
X182337142Y-115823125D02*
X182965714Y-115901696D01*
X183080000Y-115858839D01*
X183137142Y-115751696D01*
X183137142Y-115523125D01*
X183080000Y-115401696D01*
X182394285Y-115830267D02*
X182337142Y-115708839D01*
X182337142Y-115423125D01*
X182394285Y-115315982D01*
X182508571Y-115273125D01*
X182622857Y-115287410D01*
X182737142Y-115358839D01*
X182794285Y-115480267D01*
X182794285Y-115765982D01*
X182851428Y-115887410D01*
X182337142Y-116394553D02*
X183537142Y-116544553D01*
X183080000Y-116487410D02*
X183137142Y-116608839D01*
X183137142Y-116837410D01*
X183080000Y-116944553D01*
X183022857Y-116994553D01*
X182908571Y-117037410D01*
X182565714Y-116994553D01*
X182451428Y-116923125D01*
X182394285Y-116858839D01*
X182337142Y-116737410D01*
X182337142Y-116508839D01*
X182394285Y-116401696D01*
X182337142Y-117651696D02*
X182394285Y-117544553D01*
X182508571Y-117501696D01*
X183537142Y-117630267D01*
X182394285Y-118573125D02*
X182337142Y-118451696D01*
X182337142Y-118223125D01*
X182394285Y-118115982D01*
X182508571Y-118073125D01*
X182965714Y-118130267D01*
X183080000Y-118201696D01*
X183137142Y-118323125D01*
X183137142Y-118551696D01*
X183080000Y-118658839D01*
X182965714Y-118701696D01*
X182851428Y-118687410D01*
X182737142Y-118101696D01*
X182337142Y-120680267D02*
X182337142Y-119994553D01*
X182337142Y-120337410D02*
X183537142Y-120487410D01*
X183365714Y-120351696D01*
X183251428Y-120223125D01*
X183194285Y-120101696D01*
X182794285Y-121251696D02*
X182794285Y-122165982D01*
X183422857Y-122758839D02*
X183480000Y-122823125D01*
X183537142Y-122944553D01*
X183537142Y-123230267D01*
X183480000Y-123337410D01*
X183422857Y-123387410D01*
X183308571Y-123430267D01*
X183194285Y-123415982D01*
X183022857Y-123337410D01*
X182337142Y-122565982D01*
X182337142Y-123308839D01*
D11*
X172940000Y-58962857D02*
X172940000Y-57762857D01*
X173397142Y-57762857D01*
X173511428Y-57820000D01*
X173568571Y-57877142D01*
X173625714Y-57991428D01*
X173625714Y-58162857D01*
X173568571Y-58277142D01*
X173511428Y-58334285D01*
X173397142Y-58391428D01*
X172940000Y-58391428D01*
X174025714Y-57762857D02*
X174311428Y-58962857D01*
X174540000Y-58105714D01*
X174768571Y-58962857D01*
X175054285Y-57762857D01*
X176425714Y-58962857D02*
X176425714Y-57762857D01*
X176997142Y-58962857D02*
X176997142Y-57762857D01*
X177682857Y-58962857D01*
X177682857Y-57762857D01*
X179682857Y-58162857D02*
X179682857Y-58962857D01*
X179397142Y-57705714D02*
X179111428Y-58562857D01*
X179854285Y-58562857D01*
X180311428Y-58848571D02*
X180368571Y-58905714D01*
X180311428Y-58962857D01*
X180254285Y-58905714D01*
X180311428Y-58848571D01*
X180311428Y-58962857D01*
X181054285Y-58277142D02*
X180940000Y-58220000D01*
X180882857Y-58162857D01*
X180825714Y-58048571D01*
X180825714Y-57991428D01*
X180882857Y-57877142D01*
X180940000Y-57820000D01*
X181054285Y-57762857D01*
X181282857Y-57762857D01*
X181397142Y-57820000D01*
X181454285Y-57877142D01*
X181511428Y-57991428D01*
X181511428Y-58048571D01*
X181454285Y-58162857D01*
X181397142Y-58220000D01*
X181282857Y-58277142D01*
X181054285Y-58277142D01*
X180940000Y-58334285D01*
X180882857Y-58391428D01*
X180825714Y-58505714D01*
X180825714Y-58734285D01*
X180882857Y-58848571D01*
X180940000Y-58905714D01*
X181054285Y-58962857D01*
X181282857Y-58962857D01*
X181397142Y-58905714D01*
X181454285Y-58848571D01*
X181511428Y-58734285D01*
X181511428Y-58505714D01*
X181454285Y-58391428D01*
X181397142Y-58334285D01*
X181282857Y-58277142D01*
X182025714Y-58505714D02*
X182940000Y-58505714D01*
X184025714Y-57762857D02*
X183797142Y-57762857D01*
X183682857Y-57820000D01*
X183625714Y-57877142D01*
X183511428Y-58048571D01*
X183454285Y-58277142D01*
X183454285Y-58734285D01*
X183511428Y-58848571D01*
X183568571Y-58905714D01*
X183682857Y-58962857D01*
X183911428Y-58962857D01*
X184025714Y-58905714D01*
X184082857Y-58848571D01*
X184140000Y-58734285D01*
X184140000Y-58448571D01*
X184082857Y-58334285D01*
X184025714Y-58277142D01*
X183911428Y-58220000D01*
X183682857Y-58220000D01*
X183568571Y-58277142D01*
X183511428Y-58334285D01*
X183454285Y-58448571D01*
X184654285Y-58848571D02*
X184711428Y-58905714D01*
X184654285Y-58962857D01*
X184597142Y-58905714D01*
X184654285Y-58848571D01*
X184654285Y-58962857D01*
X185397142Y-58277142D02*
X185282857Y-58220000D01*
X185225714Y-58162857D01*
X185168571Y-58048571D01*
X185168571Y-57991428D01*
X185225714Y-57877142D01*
X185282857Y-57820000D01*
X185397142Y-57762857D01*
X185625714Y-57762857D01*
X185740000Y-57820000D01*
X185797142Y-57877142D01*
X185854285Y-57991428D01*
X185854285Y-58048571D01*
X185797142Y-58162857D01*
X185740000Y-58220000D01*
X185625714Y-58277142D01*
X185397142Y-58277142D01*
X185282857Y-58334285D01*
X185225714Y-58391428D01*
X185168571Y-58505714D01*
X185168571Y-58734285D01*
X185225714Y-58848571D01*
X185282857Y-58905714D01*
X185397142Y-58962857D01*
X185625714Y-58962857D01*
X185740000Y-58905714D01*
X185797142Y-58848571D01*
X185854285Y-58734285D01*
X185854285Y-58505714D01*
X185797142Y-58391428D01*
X185740000Y-58334285D01*
X185625714Y-58277142D01*
X187111428Y-57762857D02*
X187511428Y-58962857D01*
X187911428Y-57762857D01*
D10*
X131770714Y-123868571D02*
X131770714Y-122368571D01*
X133342142Y-123725714D02*
X133270714Y-123797142D01*
X133056428Y-123868571D01*
X132913571Y-123868571D01*
X132699285Y-123797142D01*
X132556428Y-123654285D01*
X132485000Y-123511428D01*
X132413571Y-123225714D01*
X132413571Y-123011428D01*
X132485000Y-122725714D01*
X132556428Y-122582857D01*
X132699285Y-122440000D01*
X132913571Y-122368571D01*
X133056428Y-122368571D01*
X133270714Y-122440000D01*
X133342142Y-122511428D01*
X133913571Y-123797142D02*
X134127857Y-123868571D01*
X134485000Y-123868571D01*
X134627857Y-123797142D01*
X134699285Y-123725714D01*
X134770714Y-123582857D01*
X134770714Y-123440000D01*
X134699285Y-123297142D01*
X134627857Y-123225714D01*
X134485000Y-123154285D01*
X134199285Y-123082857D01*
X134056428Y-123011428D01*
X133985000Y-122940000D01*
X133913571Y-122797142D01*
X133913571Y-122654285D01*
X133985000Y-122511428D01*
X134056428Y-122440000D01*
X134199285Y-122368571D01*
X134556428Y-122368571D01*
X134770714Y-122440000D01*
X135413571Y-123868571D02*
X135413571Y-122368571D01*
X135985000Y-122368571D01*
X136127857Y-122440000D01*
X136199285Y-122511428D01*
X136270714Y-122654285D01*
X136270714Y-122868571D01*
X136199285Y-123011428D01*
X136127857Y-123082857D01*
X135985000Y-123154285D01*
X135413571Y-123154285D01*
X115185000Y-132899285D02*
X115185000Y-132185000D01*
X115613571Y-133042142D02*
X114113571Y-132542142D01*
X115613571Y-132042142D01*
X115613571Y-131542142D02*
X114613571Y-131542142D01*
X114899285Y-131542142D02*
X114756428Y-131470714D01*
X114685000Y-131399285D01*
X114613571Y-131256428D01*
X114613571Y-131113571D01*
X115613571Y-130613571D02*
X114613571Y-130613571D01*
X114756428Y-130613571D02*
X114685000Y-130542142D01*
X114613571Y-130399285D01*
X114613571Y-130185000D01*
X114685000Y-130042142D01*
X114827857Y-129970714D01*
X115613571Y-129970714D01*
X114827857Y-129970714D02*
X114685000Y-129899285D01*
X114613571Y-129756428D01*
X114613571Y-129542142D01*
X114685000Y-129399285D01*
X114827857Y-129327857D01*
X115613571Y-129327857D01*
X115613571Y-126613571D02*
X114899285Y-127113571D01*
X115613571Y-127470714D02*
X114113571Y-127470714D01*
X114113571Y-126899285D01*
X114185000Y-126756428D01*
X114256428Y-126685000D01*
X114399285Y-126613571D01*
X114613571Y-126613571D01*
X114756428Y-126685000D01*
X114827857Y-126756428D01*
X114899285Y-126899285D01*
X114899285Y-127470714D01*
X115613571Y-125756428D02*
X115542142Y-125899285D01*
X115470714Y-125970714D01*
X115327857Y-126042142D01*
X114899285Y-126042142D01*
X114756428Y-125970714D01*
X114685000Y-125899285D01*
X114613571Y-125756428D01*
X114613571Y-125542142D01*
X114685000Y-125399285D01*
X114756428Y-125327857D01*
X114899285Y-125256428D01*
X115327857Y-125256428D01*
X115470714Y-125327857D01*
X115542142Y-125399285D01*
X115613571Y-125542142D01*
X115613571Y-125756428D01*
X115613571Y-124613571D02*
X114113571Y-124613571D01*
X114685000Y-124613571D02*
X114613571Y-124470714D01*
X114613571Y-124185000D01*
X114685000Y-124042142D01*
X114756428Y-123970714D01*
X114899285Y-123899285D01*
X115327857Y-123899285D01*
X115470714Y-123970714D01*
X115542142Y-124042142D01*
X115613571Y-124185000D01*
X115613571Y-124470714D01*
X115542142Y-124613571D01*
X115613571Y-123042142D02*
X115542142Y-123185000D01*
X115470714Y-123256428D01*
X115327857Y-123327857D01*
X114899285Y-123327857D01*
X114756428Y-123256428D01*
X114685000Y-123185000D01*
X114613571Y-123042142D01*
X114613571Y-122827857D01*
X114685000Y-122685000D01*
X114756428Y-122613571D01*
X114899285Y-122542142D01*
X115327857Y-122542142D01*
X115470714Y-122613571D01*
X115542142Y-122685000D01*
X115613571Y-122827857D01*
X115613571Y-123042142D01*
X114613571Y-122113571D02*
X114613571Y-121542142D01*
X114113571Y-121899285D02*
X115399285Y-121899285D01*
X115542142Y-121827857D01*
X115613571Y-121685000D01*
X115613571Y-121542142D01*
X115542142Y-119970714D02*
X115613571Y-119756428D01*
X115613571Y-119399285D01*
X115542142Y-119256428D01*
X115470714Y-119185000D01*
X115327857Y-119113571D01*
X115185000Y-119113571D01*
X115042142Y-119185000D01*
X114970714Y-119256428D01*
X114899285Y-119399285D01*
X114827857Y-119685000D01*
X114756428Y-119827857D01*
X114685000Y-119899285D01*
X114542142Y-119970714D01*
X114399285Y-119970714D01*
X114256428Y-119899285D01*
X114185000Y-119827857D01*
X114113571Y-119685000D01*
X114113571Y-119327857D01*
X114185000Y-119113571D01*
X115542142Y-117899285D02*
X115613571Y-118042142D01*
X115613571Y-118327857D01*
X115542142Y-118470714D01*
X115399285Y-118542142D01*
X114827857Y-118542142D01*
X114685000Y-118470714D01*
X114613571Y-118327857D01*
X114613571Y-118042142D01*
X114685000Y-117899285D01*
X114827857Y-117827857D01*
X114970714Y-117827857D01*
X115113571Y-118542142D01*
X115613571Y-117185000D02*
X114613571Y-117185000D01*
X114899285Y-117185000D02*
X114756428Y-117113571D01*
X114685000Y-117042142D01*
X114613571Y-116899285D01*
X114613571Y-116756428D01*
X114613571Y-116399285D02*
X115613571Y-116042142D01*
X114613571Y-115685000D01*
X115613571Y-114899285D02*
X115542142Y-115042142D01*
X115470714Y-115113571D01*
X115327857Y-115185000D01*
X114899285Y-115185000D01*
X114756428Y-115113571D01*
X114685000Y-115042142D01*
X114613571Y-114899285D01*
X114613571Y-114685000D01*
X114685000Y-114542142D01*
X114756428Y-114470714D01*
X114899285Y-114399285D01*
X115327857Y-114399285D01*
X115470714Y-114470714D01*
X115542142Y-114542142D01*
X115613571Y-114685000D01*
X115613571Y-114899285D01*
X115613571Y-112613571D02*
X114113571Y-112613571D01*
X114113571Y-112256428D01*
X114185000Y-112042142D01*
X114327857Y-111899285D01*
X114470714Y-111827857D01*
X114756428Y-111756428D01*
X114970714Y-111756428D01*
X115256428Y-111827857D01*
X115399285Y-111899285D01*
X115542142Y-112042142D01*
X115613571Y-112256428D01*
X115613571Y-112613571D01*
X115613571Y-111113571D02*
X114613571Y-111113571D01*
X114899285Y-111113571D02*
X114756428Y-111042142D01*
X114685000Y-110970714D01*
X114613571Y-110827857D01*
X114613571Y-110685000D01*
X115613571Y-110185000D02*
X114613571Y-110185000D01*
X114113571Y-110185000D02*
X114185000Y-110256428D01*
X114256428Y-110185000D01*
X114185000Y-110113571D01*
X114113571Y-110185000D01*
X114256428Y-110185000D01*
X114613571Y-109613571D02*
X115613571Y-109256428D01*
X114613571Y-108899285D01*
X115542142Y-107756428D02*
X115613571Y-107899285D01*
X115613571Y-108185000D01*
X115542142Y-108327857D01*
X115399285Y-108399285D01*
X114827857Y-108399285D01*
X114685000Y-108327857D01*
X114613571Y-108185000D01*
X114613571Y-107899285D01*
X114685000Y-107756428D01*
X114827857Y-107685000D01*
X114970714Y-107685000D01*
X115113571Y-108399285D01*
X115613571Y-107042142D02*
X114613571Y-107042142D01*
X114899285Y-107042142D02*
X114756428Y-106970714D01*
X114685000Y-106899285D01*
X114613571Y-106756428D01*
X114613571Y-106613571D01*
X115613571Y-104113571D02*
X114899285Y-104613571D01*
X115613571Y-104970714D02*
X114113571Y-104970714D01*
X114113571Y-104399285D01*
X114185000Y-104256428D01*
X114256428Y-104185000D01*
X114399285Y-104113571D01*
X114613571Y-104113571D01*
X114756428Y-104185000D01*
X114827857Y-104256428D01*
X114899285Y-104399285D01*
X114899285Y-104970714D01*
X115542142Y-102899285D02*
X115613571Y-103042142D01*
X115613571Y-103327857D01*
X115542142Y-103470714D01*
X115399285Y-103542142D01*
X114827857Y-103542142D01*
X114685000Y-103470714D01*
X114613571Y-103327857D01*
X114613571Y-103042142D01*
X114685000Y-102899285D01*
X114827857Y-102827857D01*
X114970714Y-102827857D01*
X115113571Y-103542142D01*
X114613571Y-102327857D02*
X115613571Y-101970714D01*
X114613571Y-101613571D01*
X115613571Y-99113571D02*
X115613571Y-99970714D01*
X115613571Y-99542142D02*
X114113571Y-99542142D01*
X114327857Y-99685000D01*
X114470714Y-99827857D01*
X114542142Y-99970714D01*
X115470714Y-98470714D02*
X115542142Y-98399285D01*
X115613571Y-98470714D01*
X115542142Y-98542142D01*
X115470714Y-98470714D01*
X115613571Y-98470714D01*
X114113571Y-97470714D02*
X114113571Y-97327857D01*
X114185000Y-97185000D01*
X114256428Y-97113571D01*
X114399285Y-97042142D01*
X114685000Y-96970714D01*
X115042142Y-96970714D01*
X115327857Y-97042142D01*
X115470714Y-97113571D01*
X115542142Y-97185000D01*
X115613571Y-97327857D01*
X115613571Y-97470714D01*
X115542142Y-97613571D01*
X115470714Y-97685000D01*
X115327857Y-97756428D01*
X115042142Y-97827857D01*
X114685000Y-97827857D01*
X114399285Y-97756428D01*
X114256428Y-97685000D01*
X114185000Y-97613571D01*
X114113571Y-97470714D01*
D12*
X187325000Y-135255000D02*
X188595000Y-135255000D01*
X191770000Y-64135000D02*
X191770000Y-132080000D01*
X191770000Y-132080000D02*
G75*
G02X188595000Y-135255000I-3175000J0D01*
G01*
D13*
X165760335Y-135274003D02*
G75*
G02X154305001Y-132079999I-5105335J3829003D01*
G01*
D12*
X113030001Y-59690000D02*
X113030001Y-130809999D01*
X113030001Y-59690000D02*
G75*
G02X116205001Y-56515001I4444999J-1270000D01*
G01*
X173355000Y-53340000D02*
X186690000Y-56515000D01*
X186690000Y-56515000D02*
G75*
G02X191770000Y-64135000I-3175000J-7620000D01*
G01*
X156845000Y-57150000D02*
X164465000Y-53340000D01*
X146050000Y-57150000D02*
X142240000Y-53340000D01*
X156845000Y-57150000D02*
X146050000Y-57150000D01*
X164465001Y-53340001D02*
G75*
G02X173354999Y-53340001I4444999J-4444999D01*
G01*
X114935000Y-135255000D02*
X125095000Y-135255000D01*
X114935001Y-135254998D02*
G75*
G02X113030001Y-130809999I5714999J5079998D01*
G01*
X132715000Y-53340000D02*
X116205000Y-56515000D01*
X142240000Y-53340000D02*
X132715000Y-53340000D01*
X165735000Y-135255000D02*
X169545000Y-135255000D01*
X140970000Y-132080000D02*
X154305000Y-132080000D01*
X131445000Y-135255000D02*
X130175000Y-135255000D01*
X139699999Y-132079999D02*
G75*
G02X131445001Y-135254999I-5714999J2539999D01*
G01*
X139700000Y-132080000D02*
X140970000Y-132080000D01*
X126365000Y-135255000D02*
X130175000Y-135255000D01*
X169545000Y-135255000D02*
X187325000Y-135255000D01*
X126365000Y-135255000D02*
X125095000Y-135255000D01*
D14*
%TO.C,RESET*%
X151015000Y-129445000D02*
X144895000Y-129445000D01*
X144895000Y-129445000D02*
X144895000Y-125825000D01*
X144895000Y-125825000D02*
X151015000Y-125825000D01*
X151015000Y-125825000D02*
X151015000Y-129445000D01*
%TO.C,RShunt6*%
X171010000Y-130769564D02*
X171010000Y-126665436D01*
X174430000Y-130769564D02*
X174430000Y-126665436D01*
%TO.C,CSEN4*%
X177105000Y-104080000D02*
X178435000Y-104080000D01*
X177105000Y-105410000D02*
X177105000Y-104080000D01*
X177105000Y-106680000D02*
X179765000Y-106680000D01*
X179765000Y-106680000D02*
X179765000Y-111820000D01*
X177105000Y-106680000D02*
X177105000Y-111820000D01*
X177105000Y-111820000D02*
X179765000Y-111820000D01*
%TO.C,CSEN2*%
X177105000Y-89595000D02*
X179765000Y-89595000D01*
X177105000Y-84455000D02*
X177105000Y-89595000D01*
X179765000Y-84455000D02*
X179765000Y-89595000D01*
X177105000Y-84455000D02*
X179765000Y-84455000D01*
X177105000Y-83185000D02*
X177105000Y-81855000D01*
X177105000Y-81855000D02*
X178435000Y-81855000D01*
%TO.C,CSEN1*%
X177105000Y-71060000D02*
X178435000Y-71060000D01*
X177105000Y-72390000D02*
X177105000Y-71060000D01*
X177105000Y-73660000D02*
X179765000Y-73660000D01*
X179765000Y-73660000D02*
X179765000Y-78800000D01*
X177105000Y-73660000D02*
X177105000Y-78800000D01*
X177105000Y-78800000D02*
X179765000Y-78800000D01*
%TO.C,CSEN3*%
X177105000Y-101025000D02*
X179765000Y-101025000D01*
X177105000Y-95885000D02*
X177105000Y-101025000D01*
X179765000Y-95885000D02*
X179765000Y-101025000D01*
X177105000Y-95885000D02*
X179765000Y-95885000D01*
X177105000Y-94615000D02*
X177105000Y-93285000D01*
X177105000Y-93285000D02*
X178435000Y-93285000D01*
%TO.C,CSEN5*%
X177105000Y-114875000D02*
X178435000Y-114875000D01*
X177105000Y-116205000D02*
X177105000Y-114875000D01*
X177105000Y-117475000D02*
X179765000Y-117475000D01*
X179765000Y-117475000D02*
X179765000Y-122615000D01*
X177105000Y-117475000D02*
X177105000Y-122615000D01*
X177105000Y-122615000D02*
X179765000Y-122615000D01*
%TO.C,CSEN6*%
X177105000Y-134045000D02*
X179765000Y-134045000D01*
X177105000Y-128905000D02*
X177105000Y-134045000D01*
X179765000Y-128905000D02*
X179765000Y-134045000D01*
X177105000Y-128905000D02*
X179765000Y-128905000D01*
X177105000Y-127635000D02*
X177105000Y-126305000D01*
X177105000Y-126305000D02*
X178435000Y-126305000D01*
%TO.C,J2*%
X115725000Y-74410000D02*
X118265000Y-74410000D01*
X115725000Y-74410000D02*
X115725000Y-76950000D01*
X115975000Y-74660000D02*
X125325000Y-74660000D01*
X115975000Y-133620000D02*
X115975000Y-74660000D01*
X125325000Y-133620000D02*
X115975000Y-133620000D01*
X125325000Y-74660000D02*
X125325000Y-133620000D01*
%TO.C,C2*%
X155810000Y-91675000D02*
X155810000Y-89325000D01*
X155810000Y-84855000D02*
X155810000Y-87205000D01*
X150054437Y-84855000D02*
X155810000Y-84855000D01*
X150054437Y-91675000D02*
X155810000Y-91675000D01*
X148990000Y-90610563D02*
X148990000Y-89325000D01*
X148990000Y-85919437D02*
X148990000Y-87205000D01*
X148990000Y-85919437D02*
X150054437Y-84855000D01*
X148990000Y-90610563D02*
X150054437Y-91675000D01*
X147962500Y-86417500D02*
X148750000Y-86417500D01*
X148356250Y-86023750D02*
X148356250Y-86811250D01*
%TO.C,C6*%
X160356250Y-61361250D02*
X159568750Y-61361250D01*
X159962500Y-60967500D02*
X159962500Y-61755000D01*
X155769437Y-61995000D02*
X154705000Y-63059437D01*
X160460563Y-61995000D02*
X161525000Y-63059437D01*
X160460563Y-61995000D02*
X159175000Y-61995000D01*
X155769437Y-61995000D02*
X157055000Y-61995000D01*
X154705000Y-63059437D02*
X154705000Y-68815000D01*
X161525000Y-63059437D02*
X161525000Y-68815000D01*
X161525000Y-68815000D02*
X159175000Y-68815000D01*
X154705000Y-68815000D02*
X157055000Y-68815000D01*
%TO.C,Co1*%
X136125000Y-83420000D02*
X136125000Y-81070000D01*
X136125000Y-76600000D02*
X136125000Y-78950000D01*
X130369437Y-76600000D02*
X136125000Y-76600000D01*
X130369437Y-83420000D02*
X136125000Y-83420000D01*
X129305000Y-82355563D02*
X129305000Y-81070000D01*
X129305000Y-77664437D02*
X129305000Y-78950000D01*
X129305000Y-77664437D02*
X130369437Y-76600000D01*
X129305000Y-82355563D02*
X130369437Y-83420000D01*
X128277500Y-78162500D02*
X129065000Y-78162500D01*
X128671250Y-77768750D02*
X128671250Y-78556250D01*
%TO.C,C12*%
X149731252Y-73735000D02*
X149208748Y-73735000D01*
X149731252Y-72315000D02*
X149208748Y-72315000D01*
%TO.C,C10*%
X148573748Y-94182000D02*
X149096252Y-94182000D01*
X148573748Y-92762000D02*
X149096252Y-92762000D01*
%TO.C,C9*%
X147448881Y-81990000D02*
X146926377Y-81990000D01*
X147448881Y-80570000D02*
X146926377Y-80570000D01*
%TO.C,C8*%
X134060000Y-87011252D02*
X134060000Y-86488748D01*
X132640000Y-87011252D02*
X132640000Y-86488748D01*
%TO.C,C7*%
X145286252Y-85165000D02*
X144763748Y-85165000D01*
X145286252Y-83745000D02*
X144763748Y-83745000D01*
%TO.C,C5*%
X131370000Y-108078748D02*
X131370000Y-108601252D01*
X132790000Y-108078748D02*
X132790000Y-108601252D01*
%TO.C,C4*%
X148030000Y-99043748D02*
X148030000Y-99566252D01*
X146610000Y-99043748D02*
X146610000Y-99566252D01*
%TO.C,C3*%
X148030000Y-104156252D02*
X148030000Y-103633748D01*
X146610000Y-104156252D02*
X146610000Y-103633748D01*
%TO.C,C18*%
X162485000Y-96536252D02*
X162485000Y-96013748D01*
X163905000Y-96536252D02*
X163905000Y-96013748D01*
%TO.C,C13*%
X164390000Y-72763748D02*
X164390000Y-73286252D01*
X165810000Y-72763748D02*
X165810000Y-73286252D01*
%TO.C,C14*%
X173280000Y-69833748D02*
X173280000Y-70356252D01*
X174700000Y-69833748D02*
X174700000Y-70356252D01*
%TO.C,C15*%
X168350000Y-91456252D02*
X168350000Y-90933748D01*
X166930000Y-91456252D02*
X166930000Y-90933748D01*
%TO.C,C16*%
X163120000Y-78121252D02*
X163120000Y-77598748D01*
X164540000Y-78121252D02*
X164540000Y-77598748D01*
%TO.C,C17*%
X167080000Y-109871252D02*
X167080000Y-109348748D01*
X165660000Y-109871252D02*
X165660000Y-109348748D01*
%TO.C,C1*%
X151113748Y-121845000D02*
X151636252Y-121845000D01*
X151113748Y-123265000D02*
X151636252Y-123265000D01*
%TO.C,C19*%
X167438000Y-118619748D02*
X167438000Y-119142252D01*
X168858000Y-118619748D02*
X168858000Y-119142252D01*
%TO.C,C20*%
X160580000Y-114316252D02*
X160580000Y-113793748D01*
X162000000Y-114316252D02*
X162000000Y-113793748D01*
%TO.C,CT1*%
X140260000Y-68953748D02*
X140260000Y-69476252D01*
X141680000Y-68953748D02*
X141680000Y-69476252D01*
%TO.C,C11*%
X139775000Y-76963748D02*
X139775000Y-77486252D01*
X138355000Y-76963748D02*
X138355000Y-77486252D01*
%TO.C,J1*%
X126095000Y-112165000D02*
X141875000Y-112165000D01*
X141875000Y-112165000D02*
X141875000Y-121515000D01*
X141875000Y-121515000D02*
X126095000Y-121515000D01*
X126095000Y-121515000D02*
X126095000Y-112165000D01*
X125845000Y-121765000D02*
X128385000Y-121765000D01*
X125845000Y-121765000D02*
X125845000Y-119225000D01*
%TO.C,M5*%
X184725000Y-122615000D02*
X187385000Y-122615000D01*
X184725000Y-117475000D02*
X184725000Y-122615000D01*
X187385000Y-117475000D02*
X187385000Y-122615000D01*
X184725000Y-117475000D02*
X187385000Y-117475000D01*
X184725000Y-116205000D02*
X184725000Y-114875000D01*
X184725000Y-114875000D02*
X186055000Y-114875000D01*
%TO.C,M6*%
X184725000Y-126305000D02*
X186055000Y-126305000D01*
X184725000Y-127635000D02*
X184725000Y-126305000D01*
X184725000Y-128905000D02*
X187385000Y-128905000D01*
X187385000Y-128905000D02*
X187385000Y-134045000D01*
X184725000Y-128905000D02*
X184725000Y-134045000D01*
X184725000Y-134045000D02*
X187385000Y-134045000D01*
%TO.C,M1*%
X184725000Y-78800000D02*
X187385000Y-78800000D01*
X184725000Y-73660000D02*
X184725000Y-78800000D01*
X187385000Y-73660000D02*
X187385000Y-78800000D01*
X184725000Y-73660000D02*
X187385000Y-73660000D01*
X184725000Y-72390000D02*
X184725000Y-71060000D01*
X184725000Y-71060000D02*
X186055000Y-71060000D01*
%TO.C,M3*%
X184725000Y-93285000D02*
X186055000Y-93285000D01*
X184725000Y-94615000D02*
X184725000Y-93285000D01*
X184725000Y-95885000D02*
X187385000Y-95885000D01*
X187385000Y-95885000D02*
X187385000Y-101025000D01*
X184725000Y-95885000D02*
X184725000Y-101025000D01*
X184725000Y-101025000D02*
X187385000Y-101025000D01*
%TO.C,M4*%
X184725000Y-104080000D02*
X186055000Y-104080000D01*
X184725000Y-105410000D02*
X184725000Y-104080000D01*
X184725000Y-106680000D02*
X187385000Y-106680000D01*
X187385000Y-106680000D02*
X187385000Y-111820000D01*
X184725000Y-106680000D02*
X184725000Y-111820000D01*
X184725000Y-111820000D02*
X187385000Y-111820000D01*
%TO.C,M2*%
X184725000Y-89595000D02*
X187385000Y-89595000D01*
X184725000Y-84455000D02*
X184725000Y-89595000D01*
X187385000Y-84455000D02*
X187385000Y-89595000D01*
X184725000Y-84455000D02*
X187385000Y-84455000D01*
X184725000Y-83185000D02*
X184725000Y-81855000D01*
X184725000Y-81855000D02*
X186055000Y-81855000D01*
%TO.C,Y1*%
X151120000Y-94870000D02*
X151120000Y-107470000D01*
X151120000Y-107470000D02*
X156220000Y-107470000D01*
X156220000Y-107470000D02*
X156220000Y-94870000D01*
%TO.C,D1*%
X131370000Y-65050000D02*
X137870000Y-65050000D01*
X131370000Y-65050000D02*
X131370000Y-73450000D01*
X137870000Y-65050000D02*
X137870000Y-73450000D01*
%TO.C,L1*%
X140302064Y-88355000D02*
X139097936Y-88355000D01*
X140302064Y-85635000D02*
X139097936Y-85635000D01*
%TO.C,L2*%
X126490000Y-59610000D02*
X129490000Y-59610000D01*
X129490000Y-59610000D02*
X129490000Y-72210000D01*
X129490000Y-72210000D02*
X126490000Y-72210000D01*
X119890000Y-72210000D02*
X116890000Y-72210000D01*
X116890000Y-72210000D02*
X116890000Y-59610000D01*
X116890000Y-59610000D02*
X119890000Y-59610000D01*
%TO.C,L3*%
X156972629Y-79019688D02*
X154672629Y-79019688D01*
X154672629Y-79019688D02*
X154672629Y-71619688D01*
X154672629Y-71619688D02*
X156972629Y-71619688D01*
X159772629Y-71619688D02*
X162072629Y-71619688D01*
X162072629Y-71619688D02*
X162072629Y-79019688D01*
X162072629Y-79019688D02*
X159772629Y-79019688D01*
%TO.C,D3*%
X151900000Y-113552500D02*
X151900000Y-117612500D01*
X151900000Y-117612500D02*
X154170000Y-117612500D01*
X154170000Y-117612500D02*
X154170000Y-113552500D01*
%TO.C,D4*%
X150360000Y-117612500D02*
X150360000Y-113552500D01*
X148090000Y-117612500D02*
X150360000Y-117612500D01*
X148090000Y-113552500D02*
X148090000Y-117612500D01*
%TO.C,D2*%
X144280000Y-113552500D02*
X144280000Y-117612500D01*
X144280000Y-117612500D02*
X146550000Y-117612500D01*
X146550000Y-117612500D02*
X146550000Y-113552500D01*
D12*
%TO.C,U2*%
X142055000Y-102050000D02*
X142055000Y-101825000D01*
X134805000Y-102050000D02*
X134805000Y-101725000D01*
X134805000Y-94800000D02*
X134805000Y-95125000D01*
X142055000Y-94800000D02*
X142055000Y-95125000D01*
X142055000Y-102050000D02*
X141730000Y-102050000D01*
X142055000Y-94800000D02*
X141730000Y-94800000D01*
X134805000Y-94800000D02*
X135130000Y-94800000D01*
X134805000Y-102050000D02*
X135130000Y-102050000D01*
X142055000Y-101825000D02*
X143480000Y-101825000D01*
%TO.C,U3*%
X147807629Y-74914688D02*
X147807629Y-75089688D01*
X151157629Y-74914688D02*
X151157629Y-75164688D01*
X151157629Y-78264688D02*
X151157629Y-78014688D01*
X147807629Y-78264688D02*
X147807629Y-78014688D01*
X147807629Y-74914688D02*
X151157629Y-74914688D01*
X147807629Y-78264688D02*
X151157629Y-78264688D01*
X147807629Y-75089688D02*
X146557629Y-75089688D01*
%TO.C,U7*%
X165720000Y-118735000D02*
X165720000Y-117335000D01*
X160620000Y-118735000D02*
X160620000Y-122885000D01*
X165770000Y-118735000D02*
X165770000Y-122885000D01*
X160620000Y-118735000D02*
X160765000Y-118735000D01*
X160620000Y-122885000D02*
X160765000Y-122885000D01*
X165770000Y-122885000D02*
X165625000Y-122885000D01*
X165770000Y-118735000D02*
X165720000Y-118735000D01*
%TO.C,U6*%
X167675000Y-100795000D02*
X167625000Y-100795000D01*
X167675000Y-104945000D02*
X167530000Y-104945000D01*
X162525000Y-104945000D02*
X162670000Y-104945000D01*
X162525000Y-100795000D02*
X162670000Y-100795000D01*
X167675000Y-100795000D02*
X167675000Y-104945000D01*
X162525000Y-100795000D02*
X162525000Y-104945000D01*
X167625000Y-100795000D02*
X167625000Y-99395000D01*
%TO.C,U5*%
X168260000Y-82380000D02*
X168260000Y-80980000D01*
X163160000Y-82380000D02*
X163160000Y-86530000D01*
X168310000Y-82380000D02*
X168310000Y-86530000D01*
X163160000Y-82380000D02*
X163305000Y-82380000D01*
X163160000Y-86530000D02*
X163305000Y-86530000D01*
X168310000Y-86530000D02*
X168165000Y-86530000D01*
X168310000Y-82380000D02*
X168260000Y-82380000D01*
%TO.C,U1*%
X145245000Y-62195000D02*
X145245000Y-62245000D01*
X149395000Y-62195000D02*
X149395000Y-62340000D01*
X149395000Y-67345000D02*
X149395000Y-67200000D01*
X145245000Y-67345000D02*
X145245000Y-67200000D01*
X145245000Y-62195000D02*
X149395000Y-62195000D01*
X145245000Y-67345000D02*
X149395000Y-67345000D01*
X145245000Y-62245000D02*
X143845000Y-62245000D01*
D14*
%TO.C,U4*%
X171740000Y-70720000D02*
X165730000Y-70720000D01*
X169490000Y-63900000D02*
X165730000Y-63900000D01*
X165730000Y-70720000D02*
X165730000Y-69460000D01*
X165730000Y-63900000D02*
X165730000Y-65160000D01*
%TO.C,R12*%
X127710000Y-85853748D02*
X127710000Y-86376252D01*
X126290000Y-85853748D02*
X126290000Y-86376252D01*
%TO.C,R7*%
X140260000Y-109203748D02*
X140260000Y-109726252D01*
X141680000Y-109203748D02*
X141680000Y-109726252D01*
%TO.C,R1*%
X145543748Y-121845000D02*
X146066252Y-121845000D01*
X145543748Y-123265000D02*
X146066252Y-123265000D01*
%TO.C,R13*%
X143585000Y-79145940D02*
X143585000Y-78623436D01*
X142165000Y-79145940D02*
X142165000Y-78623436D01*
%TO.C,R14*%
X142165000Y-74311252D02*
X142165000Y-73788748D01*
X143585000Y-74311252D02*
X143585000Y-73788748D01*
%TO.C,RF1*%
X160095000Y-84471252D02*
X160095000Y-83948748D01*
X158675000Y-84471252D02*
X158675000Y-83948748D01*
%TO.C,RF2*%
X163120000Y-91456252D02*
X163120000Y-90933748D01*
X164540000Y-91456252D02*
X164540000Y-90933748D01*
%TO.C,RF3*%
X160095000Y-103521252D02*
X160095000Y-102998748D01*
X158675000Y-103521252D02*
X158675000Y-102998748D01*
%TO.C,RF4*%
X156135000Y-110506252D02*
X156135000Y-109983748D01*
X157555000Y-110506252D02*
X157555000Y-109983748D01*
%TO.C,RF5*%
X157555000Y-117491252D02*
X157555000Y-116968748D01*
X156135000Y-117491252D02*
X156135000Y-116968748D01*
%TO.C,RF6*%
X168350000Y-126493748D02*
X168350000Y-127016252D01*
X166930000Y-126493748D02*
X166930000Y-127016252D01*
%TO.C,RG1*%
X168350000Y-78121252D02*
X168350000Y-77598748D01*
X166930000Y-78121252D02*
X166930000Y-77598748D01*
%TO.C,R2*%
X128195000Y-95266252D02*
X128195000Y-94743748D01*
X129615000Y-95266252D02*
X129615000Y-94743748D01*
%TO.C,R8*%
X128195000Y-108078748D02*
X128195000Y-108601252D01*
X129615000Y-108078748D02*
X129615000Y-108601252D01*
%TO.C,R11*%
X127710000Y-90298748D02*
X127710000Y-90821252D01*
X126290000Y-90298748D02*
X126290000Y-90821252D01*
%TO.C,R10*%
X128195000Y-99188748D02*
X128195000Y-99711252D01*
X129615000Y-99188748D02*
X129615000Y-99711252D01*
%TO.C,Rsc1*%
X152906252Y-59615000D02*
X152383748Y-59615000D01*
X152906252Y-61035000D02*
X152383748Y-61035000D01*
%TO.C,R6*%
X144070000Y-108078748D02*
X144070000Y-108601252D01*
X145490000Y-108078748D02*
X145490000Y-108601252D01*
%TO.C,R3*%
X145041252Y-70560000D02*
X144518748Y-70560000D01*
X145041252Y-69140000D02*
X144518748Y-69140000D01*
%TO.C,RG6*%
X157555000Y-122571252D02*
X157555000Y-122048748D01*
X156135000Y-122571252D02*
X156135000Y-122048748D01*
%TO.C,RG5*%
X165025000Y-114316252D02*
X165025000Y-113793748D01*
X166445000Y-114316252D02*
X166445000Y-113793748D01*
%TO.C,RG4*%
X161365000Y-107966252D02*
X161365000Y-107443748D01*
X159945000Y-107966252D02*
X159945000Y-107443748D01*
%TO.C,RG3*%
X165660000Y-96536252D02*
X165660000Y-96013748D01*
X167080000Y-96536252D02*
X167080000Y-96013748D01*
%TO.C,RG2*%
X160730000Y-89406252D02*
X160730000Y-88883748D01*
X159310000Y-89406252D02*
X159310000Y-88883748D01*
%TO.C,R5*%
X137235000Y-109203748D02*
X137235000Y-109726252D01*
X135815000Y-109203748D02*
X135815000Y-109726252D01*
%TO.C,R4*%
X150233748Y-70560000D02*
X150756252Y-70560000D01*
X150233748Y-69140000D02*
X150756252Y-69140000D01*
%TO.C,R9*%
X129615000Y-103633748D02*
X129615000Y-104156252D01*
X128195000Y-103633748D02*
X128195000Y-104156252D01*
%TO.C,RShunt3*%
X174430000Y-100289564D02*
X174430000Y-96185436D01*
X171010000Y-100289564D02*
X171010000Y-96185436D01*
%TO.C,RShunt5*%
X171010000Y-121244564D02*
X171010000Y-117140436D01*
X174430000Y-121244564D02*
X174430000Y-117140436D01*
%TO.C,RShunt4*%
X171010000Y-111084564D02*
X171010000Y-106980436D01*
X174430000Y-111084564D02*
X174430000Y-106980436D01*
%TO.C,RShunt2*%
X171010000Y-88859564D02*
X171010000Y-84755436D01*
X174430000Y-88859564D02*
X174430000Y-84755436D01*
%TO.C,RShunt1*%
X174430000Y-78699564D02*
X174430000Y-74595436D01*
X171010000Y-78699564D02*
X171010000Y-74595436D01*
%TO.C,J3*%
X185420000Y-60325000D02*
X175260000Y-60325000D01*
X185420000Y-67945000D02*
X185420000Y-60325000D01*
X175260000Y-67945000D02*
X185420000Y-67945000D01*
X175260000Y-60325000D02*
X175260000Y-67945000D01*
X175260000Y-61595000D02*
X185420000Y-61595000D01*
%TD*%
%TO.C,RESET*%
D12*
X146502619Y-130687380D02*
X146169285Y-130211190D01*
X145931190Y-130687380D02*
X145931190Y-129687380D01*
X146312142Y-129687380D01*
X146407380Y-129735000D01*
X146455000Y-129782619D01*
X146502619Y-129877857D01*
X146502619Y-130020714D01*
X146455000Y-130115952D01*
X146407380Y-130163571D01*
X146312142Y-130211190D01*
X145931190Y-130211190D01*
X146931190Y-130163571D02*
X147264523Y-130163571D01*
X147407380Y-130687380D02*
X146931190Y-130687380D01*
X146931190Y-129687380D01*
X147407380Y-129687380D01*
X147788333Y-130639761D02*
X147931190Y-130687380D01*
X148169285Y-130687380D01*
X148264523Y-130639761D01*
X148312142Y-130592142D01*
X148359761Y-130496904D01*
X148359761Y-130401666D01*
X148312142Y-130306428D01*
X148264523Y-130258809D01*
X148169285Y-130211190D01*
X147978809Y-130163571D01*
X147883571Y-130115952D01*
X147835952Y-130068333D01*
X147788333Y-129973095D01*
X147788333Y-129877857D01*
X147835952Y-129782619D01*
X147883571Y-129735000D01*
X147978809Y-129687380D01*
X148216904Y-129687380D01*
X148359761Y-129735000D01*
X148788333Y-130163571D02*
X149121666Y-130163571D01*
X149264523Y-130687380D02*
X148788333Y-130687380D01*
X148788333Y-129687380D01*
X149264523Y-129687380D01*
X149550238Y-129687380D02*
X150121666Y-129687380D01*
X149835952Y-130687380D02*
X149835952Y-129687380D01*
%TO.C,RShunt6*%
X170552380Y-131003214D02*
X170076190Y-131336547D01*
X170552380Y-131574642D02*
X169552380Y-131574642D01*
X169552380Y-131193690D01*
X169600000Y-131098452D01*
X169647619Y-131050833D01*
X169742857Y-131003214D01*
X169885714Y-131003214D01*
X169980952Y-131050833D01*
X170028571Y-131098452D01*
X170076190Y-131193690D01*
X170076190Y-131574642D01*
X170504761Y-130622261D02*
X170552380Y-130479404D01*
X170552380Y-130241309D01*
X170504761Y-130146071D01*
X170457142Y-130098452D01*
X170361904Y-130050833D01*
X170266666Y-130050833D01*
X170171428Y-130098452D01*
X170123809Y-130146071D01*
X170076190Y-130241309D01*
X170028571Y-130431785D01*
X169980952Y-130527023D01*
X169933333Y-130574642D01*
X169838095Y-130622261D01*
X169742857Y-130622261D01*
X169647619Y-130574642D01*
X169600000Y-130527023D01*
X169552380Y-130431785D01*
X169552380Y-130193690D01*
X169600000Y-130050833D01*
X170552380Y-129622261D02*
X169552380Y-129622261D01*
X170552380Y-129193690D02*
X170028571Y-129193690D01*
X169933333Y-129241309D01*
X169885714Y-129336547D01*
X169885714Y-129479404D01*
X169933333Y-129574642D01*
X169980952Y-129622261D01*
X169885714Y-128288928D02*
X170552380Y-128288928D01*
X169885714Y-128717500D02*
X170409523Y-128717500D01*
X170504761Y-128669880D01*
X170552380Y-128574642D01*
X170552380Y-128431785D01*
X170504761Y-128336547D01*
X170457142Y-128288928D01*
X169885714Y-127812738D02*
X170552380Y-127812738D01*
X169980952Y-127812738D02*
X169933333Y-127765119D01*
X169885714Y-127669880D01*
X169885714Y-127527023D01*
X169933333Y-127431785D01*
X170028571Y-127384166D01*
X170552380Y-127384166D01*
X169885714Y-127050833D02*
X169885714Y-126669880D01*
X169552380Y-126907976D02*
X170409523Y-126907976D01*
X170504761Y-126860357D01*
X170552380Y-126765119D01*
X170552380Y-126669880D01*
X169552380Y-125907976D02*
X169552380Y-126098452D01*
X169600000Y-126193690D01*
X169647619Y-126241309D01*
X169790476Y-126336547D01*
X169980952Y-126384166D01*
X170361904Y-126384166D01*
X170457142Y-126336547D01*
X170504761Y-126288928D01*
X170552380Y-126193690D01*
X170552380Y-126003214D01*
X170504761Y-125907976D01*
X170457142Y-125860357D01*
X170361904Y-125812738D01*
X170123809Y-125812738D01*
X170028571Y-125860357D01*
X169980952Y-125907976D01*
X169933333Y-126003214D01*
X169933333Y-126193690D01*
X169980952Y-126288928D01*
X170028571Y-126336547D01*
X170123809Y-126384166D01*
%TO.C,CSEN4*%
X176815952Y-103437142D02*
X176768333Y-103484761D01*
X176625476Y-103532380D01*
X176530238Y-103532380D01*
X176387380Y-103484761D01*
X176292142Y-103389523D01*
X176244523Y-103294285D01*
X176196904Y-103103809D01*
X176196904Y-102960952D01*
X176244523Y-102770476D01*
X176292142Y-102675238D01*
X176387380Y-102580000D01*
X176530238Y-102532380D01*
X176625476Y-102532380D01*
X176768333Y-102580000D01*
X176815952Y-102627619D01*
X177196904Y-103484761D02*
X177339761Y-103532380D01*
X177577857Y-103532380D01*
X177673095Y-103484761D01*
X177720714Y-103437142D01*
X177768333Y-103341904D01*
X177768333Y-103246666D01*
X177720714Y-103151428D01*
X177673095Y-103103809D01*
X177577857Y-103056190D01*
X177387380Y-103008571D01*
X177292142Y-102960952D01*
X177244523Y-102913333D01*
X177196904Y-102818095D01*
X177196904Y-102722857D01*
X177244523Y-102627619D01*
X177292142Y-102580000D01*
X177387380Y-102532380D01*
X177625476Y-102532380D01*
X177768333Y-102580000D01*
X178196904Y-103008571D02*
X178530238Y-103008571D01*
X178673095Y-103532380D02*
X178196904Y-103532380D01*
X178196904Y-102532380D01*
X178673095Y-102532380D01*
X179101666Y-103532380D02*
X179101666Y-102532380D01*
X179673095Y-103532380D01*
X179673095Y-102532380D01*
X180577857Y-102865714D02*
X180577857Y-103532380D01*
X180339761Y-102484761D02*
X180101666Y-103199047D01*
X180720714Y-103199047D01*
%TO.C,CSEN2*%
X176815952Y-81212142D02*
X176768333Y-81259761D01*
X176625476Y-81307380D01*
X176530238Y-81307380D01*
X176387380Y-81259761D01*
X176292142Y-81164523D01*
X176244523Y-81069285D01*
X176196904Y-80878809D01*
X176196904Y-80735952D01*
X176244523Y-80545476D01*
X176292142Y-80450238D01*
X176387380Y-80355000D01*
X176530238Y-80307380D01*
X176625476Y-80307380D01*
X176768333Y-80355000D01*
X176815952Y-80402619D01*
X177196904Y-81259761D02*
X177339761Y-81307380D01*
X177577857Y-81307380D01*
X177673095Y-81259761D01*
X177720714Y-81212142D01*
X177768333Y-81116904D01*
X177768333Y-81021666D01*
X177720714Y-80926428D01*
X177673095Y-80878809D01*
X177577857Y-80831190D01*
X177387380Y-80783571D01*
X177292142Y-80735952D01*
X177244523Y-80688333D01*
X177196904Y-80593095D01*
X177196904Y-80497857D01*
X177244523Y-80402619D01*
X177292142Y-80355000D01*
X177387380Y-80307380D01*
X177625476Y-80307380D01*
X177768333Y-80355000D01*
X178196904Y-80783571D02*
X178530238Y-80783571D01*
X178673095Y-81307380D02*
X178196904Y-81307380D01*
X178196904Y-80307380D01*
X178673095Y-80307380D01*
X179101666Y-81307380D02*
X179101666Y-80307380D01*
X179673095Y-81307380D01*
X179673095Y-80307380D01*
X180101666Y-80402619D02*
X180149285Y-80355000D01*
X180244523Y-80307380D01*
X180482619Y-80307380D01*
X180577857Y-80355000D01*
X180625476Y-80402619D01*
X180673095Y-80497857D01*
X180673095Y-80593095D01*
X180625476Y-80735952D01*
X180054047Y-81307380D01*
X180673095Y-81307380D01*
%TO.C,CSEN1*%
X176815952Y-70417142D02*
X176768333Y-70464761D01*
X176625476Y-70512380D01*
X176530238Y-70512380D01*
X176387380Y-70464761D01*
X176292142Y-70369523D01*
X176244523Y-70274285D01*
X176196904Y-70083809D01*
X176196904Y-69940952D01*
X176244523Y-69750476D01*
X176292142Y-69655238D01*
X176387380Y-69560000D01*
X176530238Y-69512380D01*
X176625476Y-69512380D01*
X176768333Y-69560000D01*
X176815952Y-69607619D01*
X177196904Y-70464761D02*
X177339761Y-70512380D01*
X177577857Y-70512380D01*
X177673095Y-70464761D01*
X177720714Y-70417142D01*
X177768333Y-70321904D01*
X177768333Y-70226666D01*
X177720714Y-70131428D01*
X177673095Y-70083809D01*
X177577857Y-70036190D01*
X177387380Y-69988571D01*
X177292142Y-69940952D01*
X177244523Y-69893333D01*
X177196904Y-69798095D01*
X177196904Y-69702857D01*
X177244523Y-69607619D01*
X177292142Y-69560000D01*
X177387380Y-69512380D01*
X177625476Y-69512380D01*
X177768333Y-69560000D01*
X178196904Y-69988571D02*
X178530238Y-69988571D01*
X178673095Y-70512380D02*
X178196904Y-70512380D01*
X178196904Y-69512380D01*
X178673095Y-69512380D01*
X179101666Y-70512380D02*
X179101666Y-69512380D01*
X179673095Y-70512380D01*
X179673095Y-69512380D01*
X180673095Y-70512380D02*
X180101666Y-70512380D01*
X180387380Y-70512380D02*
X180387380Y-69512380D01*
X180292142Y-69655238D01*
X180196904Y-69750476D01*
X180101666Y-69798095D01*
%TO.C,CSEN3*%
X176815952Y-92642142D02*
X176768333Y-92689761D01*
X176625476Y-92737380D01*
X176530238Y-92737380D01*
X176387380Y-92689761D01*
X176292142Y-92594523D01*
X176244523Y-92499285D01*
X176196904Y-92308809D01*
X176196904Y-92165952D01*
X176244523Y-91975476D01*
X176292142Y-91880238D01*
X176387380Y-91785000D01*
X176530238Y-91737380D01*
X176625476Y-91737380D01*
X176768333Y-91785000D01*
X176815952Y-91832619D01*
X177196904Y-92689761D02*
X177339761Y-92737380D01*
X177577857Y-92737380D01*
X177673095Y-92689761D01*
X177720714Y-92642142D01*
X177768333Y-92546904D01*
X177768333Y-92451666D01*
X177720714Y-92356428D01*
X177673095Y-92308809D01*
X177577857Y-92261190D01*
X177387380Y-92213571D01*
X177292142Y-92165952D01*
X177244523Y-92118333D01*
X177196904Y-92023095D01*
X177196904Y-91927857D01*
X177244523Y-91832619D01*
X177292142Y-91785000D01*
X177387380Y-91737380D01*
X177625476Y-91737380D01*
X177768333Y-91785000D01*
X178196904Y-92213571D02*
X178530238Y-92213571D01*
X178673095Y-92737380D02*
X178196904Y-92737380D01*
X178196904Y-91737380D01*
X178673095Y-91737380D01*
X179101666Y-92737380D02*
X179101666Y-91737380D01*
X179673095Y-92737380D01*
X179673095Y-91737380D01*
X180054047Y-91737380D02*
X180673095Y-91737380D01*
X180339761Y-92118333D01*
X180482619Y-92118333D01*
X180577857Y-92165952D01*
X180625476Y-92213571D01*
X180673095Y-92308809D01*
X180673095Y-92546904D01*
X180625476Y-92642142D01*
X180577857Y-92689761D01*
X180482619Y-92737380D01*
X180196904Y-92737380D01*
X180101666Y-92689761D01*
X180054047Y-92642142D01*
%TO.C,CSEN5*%
X176815952Y-114232142D02*
X176768333Y-114279761D01*
X176625476Y-114327380D01*
X176530238Y-114327380D01*
X176387380Y-114279761D01*
X176292142Y-114184523D01*
X176244523Y-114089285D01*
X176196904Y-113898809D01*
X176196904Y-113755952D01*
X176244523Y-113565476D01*
X176292142Y-113470238D01*
X176387380Y-113375000D01*
X176530238Y-113327380D01*
X176625476Y-113327380D01*
X176768333Y-113375000D01*
X176815952Y-113422619D01*
X177196904Y-114279761D02*
X177339761Y-114327380D01*
X177577857Y-114327380D01*
X177673095Y-114279761D01*
X177720714Y-114232142D01*
X177768333Y-114136904D01*
X177768333Y-114041666D01*
X177720714Y-113946428D01*
X177673095Y-113898809D01*
X177577857Y-113851190D01*
X177387380Y-113803571D01*
X177292142Y-113755952D01*
X177244523Y-113708333D01*
X177196904Y-113613095D01*
X177196904Y-113517857D01*
X177244523Y-113422619D01*
X177292142Y-113375000D01*
X177387380Y-113327380D01*
X177625476Y-113327380D01*
X177768333Y-113375000D01*
X178196904Y-113803571D02*
X178530238Y-113803571D01*
X178673095Y-114327380D02*
X178196904Y-114327380D01*
X178196904Y-113327380D01*
X178673095Y-113327380D01*
X179101666Y-114327380D02*
X179101666Y-113327380D01*
X179673095Y-114327380D01*
X179673095Y-113327380D01*
X180625476Y-113327380D02*
X180149285Y-113327380D01*
X180101666Y-113803571D01*
X180149285Y-113755952D01*
X180244523Y-113708333D01*
X180482619Y-113708333D01*
X180577857Y-113755952D01*
X180625476Y-113803571D01*
X180673095Y-113898809D01*
X180673095Y-114136904D01*
X180625476Y-114232142D01*
X180577857Y-114279761D01*
X180482619Y-114327380D01*
X180244523Y-114327380D01*
X180149285Y-114279761D01*
X180101666Y-114232142D01*
%TO.C,CSEN6*%
X176815952Y-125662142D02*
X176768333Y-125709761D01*
X176625476Y-125757380D01*
X176530238Y-125757380D01*
X176387380Y-125709761D01*
X176292142Y-125614523D01*
X176244523Y-125519285D01*
X176196904Y-125328809D01*
X176196904Y-125185952D01*
X176244523Y-124995476D01*
X176292142Y-124900238D01*
X176387380Y-124805000D01*
X176530238Y-124757380D01*
X176625476Y-124757380D01*
X176768333Y-124805000D01*
X176815952Y-124852619D01*
X177196904Y-125709761D02*
X177339761Y-125757380D01*
X177577857Y-125757380D01*
X177673095Y-125709761D01*
X177720714Y-125662142D01*
X177768333Y-125566904D01*
X177768333Y-125471666D01*
X177720714Y-125376428D01*
X177673095Y-125328809D01*
X177577857Y-125281190D01*
X177387380Y-125233571D01*
X177292142Y-125185952D01*
X177244523Y-125138333D01*
X177196904Y-125043095D01*
X177196904Y-124947857D01*
X177244523Y-124852619D01*
X177292142Y-124805000D01*
X177387380Y-124757380D01*
X177625476Y-124757380D01*
X177768333Y-124805000D01*
X178196904Y-125233571D02*
X178530238Y-125233571D01*
X178673095Y-125757380D02*
X178196904Y-125757380D01*
X178196904Y-124757380D01*
X178673095Y-124757380D01*
X179101666Y-125757380D02*
X179101666Y-124757380D01*
X179673095Y-125757380D01*
X179673095Y-124757380D01*
X180577857Y-124757380D02*
X180387380Y-124757380D01*
X180292142Y-124805000D01*
X180244523Y-124852619D01*
X180149285Y-124995476D01*
X180101666Y-125185952D01*
X180101666Y-125566904D01*
X180149285Y-125662142D01*
X180196904Y-125709761D01*
X180292142Y-125757380D01*
X180482619Y-125757380D01*
X180577857Y-125709761D01*
X180625476Y-125662142D01*
X180673095Y-125566904D01*
X180673095Y-125328809D01*
X180625476Y-125233571D01*
X180577857Y-125185952D01*
X180482619Y-125138333D01*
X180292142Y-125138333D01*
X180196904Y-125185952D01*
X180149285Y-125233571D01*
X180101666Y-125328809D01*
%TO.C,J2*%
X120316666Y-72858380D02*
X120316666Y-73572666D01*
X120269047Y-73715523D01*
X120173809Y-73810761D01*
X120030952Y-73858380D01*
X119935714Y-73858380D01*
X120745238Y-72953619D02*
X120792857Y-72906000D01*
X120888095Y-72858380D01*
X121126190Y-72858380D01*
X121221428Y-72906000D01*
X121269047Y-72953619D01*
X121316666Y-73048857D01*
X121316666Y-73144095D01*
X121269047Y-73286952D01*
X120697619Y-73858380D01*
X121316666Y-73858380D01*
%TO.C,C2*%
X152233333Y-84272142D02*
X152185714Y-84319761D01*
X152042857Y-84367380D01*
X151947619Y-84367380D01*
X151804761Y-84319761D01*
X151709523Y-84224523D01*
X151661904Y-84129285D01*
X151614285Y-83938809D01*
X151614285Y-83795952D01*
X151661904Y-83605476D01*
X151709523Y-83510238D01*
X151804761Y-83415000D01*
X151947619Y-83367380D01*
X152042857Y-83367380D01*
X152185714Y-83415000D01*
X152233333Y-83462619D01*
X152614285Y-83462619D02*
X152661904Y-83415000D01*
X152757142Y-83367380D01*
X152995238Y-83367380D01*
X153090476Y-83415000D01*
X153138095Y-83462619D01*
X153185714Y-83557857D01*
X153185714Y-83653095D01*
X153138095Y-83795952D01*
X152566666Y-84367380D01*
X153185714Y-84367380D01*
%TO.C,C6*%
X162822142Y-65571666D02*
X162869761Y-65619285D01*
X162917380Y-65762142D01*
X162917380Y-65857380D01*
X162869761Y-66000238D01*
X162774523Y-66095476D01*
X162679285Y-66143095D01*
X162488809Y-66190714D01*
X162345952Y-66190714D01*
X162155476Y-66143095D01*
X162060238Y-66095476D01*
X161965000Y-66000238D01*
X161917380Y-65857380D01*
X161917380Y-65762142D01*
X161965000Y-65619285D01*
X162012619Y-65571666D01*
X161917380Y-64714523D02*
X161917380Y-64905000D01*
X161965000Y-65000238D01*
X162012619Y-65047857D01*
X162155476Y-65143095D01*
X162345952Y-65190714D01*
X162726904Y-65190714D01*
X162822142Y-65143095D01*
X162869761Y-65095476D01*
X162917380Y-65000238D01*
X162917380Y-64809761D01*
X162869761Y-64714523D01*
X162822142Y-64666904D01*
X162726904Y-64619285D01*
X162488809Y-64619285D01*
X162393571Y-64666904D01*
X162345952Y-64714523D01*
X162298333Y-64809761D01*
X162298333Y-65000238D01*
X162345952Y-65095476D01*
X162393571Y-65143095D01*
X162488809Y-65190714D01*
%TO.C,Co1*%
X132095952Y-76017142D02*
X132048333Y-76064761D01*
X131905476Y-76112380D01*
X131810238Y-76112380D01*
X131667380Y-76064761D01*
X131572142Y-75969523D01*
X131524523Y-75874285D01*
X131476904Y-75683809D01*
X131476904Y-75540952D01*
X131524523Y-75350476D01*
X131572142Y-75255238D01*
X131667380Y-75160000D01*
X131810238Y-75112380D01*
X131905476Y-75112380D01*
X132048333Y-75160000D01*
X132095952Y-75207619D01*
X132667380Y-76112380D02*
X132572142Y-76064761D01*
X132524523Y-76017142D01*
X132476904Y-75921904D01*
X132476904Y-75636190D01*
X132524523Y-75540952D01*
X132572142Y-75493333D01*
X132667380Y-75445714D01*
X132810238Y-75445714D01*
X132905476Y-75493333D01*
X132953095Y-75540952D01*
X133000714Y-75636190D01*
X133000714Y-75921904D01*
X132953095Y-76017142D01*
X132905476Y-76064761D01*
X132810238Y-76112380D01*
X132667380Y-76112380D01*
X133953095Y-76112380D02*
X133381666Y-76112380D01*
X133667380Y-76112380D02*
X133667380Y-75112380D01*
X133572142Y-75255238D01*
X133476904Y-75350476D01*
X133381666Y-75398095D01*
%TO.C,C12*%
X147042142Y-73667857D02*
X147089761Y-73715476D01*
X147137380Y-73858333D01*
X147137380Y-73953571D01*
X147089761Y-74096428D01*
X146994523Y-74191666D01*
X146899285Y-74239285D01*
X146708809Y-74286904D01*
X146565952Y-74286904D01*
X146375476Y-74239285D01*
X146280238Y-74191666D01*
X146185000Y-74096428D01*
X146137380Y-73953571D01*
X146137380Y-73858333D01*
X146185000Y-73715476D01*
X146232619Y-73667857D01*
X147137380Y-72715476D02*
X147137380Y-73286904D01*
X147137380Y-73001190D02*
X146137380Y-73001190D01*
X146280238Y-73096428D01*
X146375476Y-73191666D01*
X146423095Y-73286904D01*
X146232619Y-72334523D02*
X146185000Y-72286904D01*
X146137380Y-72191666D01*
X146137380Y-71953571D01*
X146185000Y-71858333D01*
X146232619Y-71810714D01*
X146327857Y-71763095D01*
X146423095Y-71763095D01*
X146565952Y-71810714D01*
X147137380Y-72382142D01*
X147137380Y-71763095D01*
%TO.C,C10*%
X148192142Y-92179142D02*
X148144523Y-92226761D01*
X148001666Y-92274380D01*
X147906428Y-92274380D01*
X147763571Y-92226761D01*
X147668333Y-92131523D01*
X147620714Y-92036285D01*
X147573095Y-91845809D01*
X147573095Y-91702952D01*
X147620714Y-91512476D01*
X147668333Y-91417238D01*
X147763571Y-91322000D01*
X147906428Y-91274380D01*
X148001666Y-91274380D01*
X148144523Y-91322000D01*
X148192142Y-91369619D01*
X149144523Y-92274380D02*
X148573095Y-92274380D01*
X148858809Y-92274380D02*
X148858809Y-91274380D01*
X148763571Y-91417238D01*
X148668333Y-91512476D01*
X148573095Y-91560095D01*
X149763571Y-91274380D02*
X149858809Y-91274380D01*
X149954047Y-91322000D01*
X150001666Y-91369619D01*
X150049285Y-91464857D01*
X150096904Y-91655333D01*
X150096904Y-91893428D01*
X150049285Y-92083904D01*
X150001666Y-92179142D01*
X149954047Y-92226761D01*
X149858809Y-92274380D01*
X149763571Y-92274380D01*
X149668333Y-92226761D01*
X149620714Y-92179142D01*
X149573095Y-92083904D01*
X149525476Y-91893428D01*
X149525476Y-91655333D01*
X149573095Y-91464857D01*
X149620714Y-91369619D01*
X149668333Y-91322000D01*
X149763571Y-91274380D01*
%TO.C,C9*%
X147020962Y-83287142D02*
X146973343Y-83334761D01*
X146830486Y-83382380D01*
X146735248Y-83382380D01*
X146592390Y-83334761D01*
X146497152Y-83239523D01*
X146449533Y-83144285D01*
X146401914Y-82953809D01*
X146401914Y-82810952D01*
X146449533Y-82620476D01*
X146497152Y-82525238D01*
X146592390Y-82430000D01*
X146735248Y-82382380D01*
X146830486Y-82382380D01*
X146973343Y-82430000D01*
X147020962Y-82477619D01*
X147497152Y-83382380D02*
X147687629Y-83382380D01*
X147782867Y-83334761D01*
X147830486Y-83287142D01*
X147925724Y-83144285D01*
X147973343Y-82953809D01*
X147973343Y-82572857D01*
X147925724Y-82477619D01*
X147878105Y-82430000D01*
X147782867Y-82382380D01*
X147592390Y-82382380D01*
X147497152Y-82430000D01*
X147449533Y-82477619D01*
X147401914Y-82572857D01*
X147401914Y-82810952D01*
X147449533Y-82906190D01*
X147497152Y-82953809D01*
X147592390Y-83001428D01*
X147782867Y-83001428D01*
X147878105Y-82953809D01*
X147925724Y-82906190D01*
X147973343Y-82810952D01*
%TO.C,C8*%
X132057142Y-86916666D02*
X132104761Y-86964285D01*
X132152380Y-87107142D01*
X132152380Y-87202380D01*
X132104761Y-87345238D01*
X132009523Y-87440476D01*
X131914285Y-87488095D01*
X131723809Y-87535714D01*
X131580952Y-87535714D01*
X131390476Y-87488095D01*
X131295238Y-87440476D01*
X131200000Y-87345238D01*
X131152380Y-87202380D01*
X131152380Y-87107142D01*
X131200000Y-86964285D01*
X131247619Y-86916666D01*
X131580952Y-86345238D02*
X131533333Y-86440476D01*
X131485714Y-86488095D01*
X131390476Y-86535714D01*
X131342857Y-86535714D01*
X131247619Y-86488095D01*
X131200000Y-86440476D01*
X131152380Y-86345238D01*
X131152380Y-86154761D01*
X131200000Y-86059523D01*
X131247619Y-86011904D01*
X131342857Y-85964285D01*
X131390476Y-85964285D01*
X131485714Y-86011904D01*
X131533333Y-86059523D01*
X131580952Y-86154761D01*
X131580952Y-86345238D01*
X131628571Y-86440476D01*
X131676190Y-86488095D01*
X131771428Y-86535714D01*
X131961904Y-86535714D01*
X132057142Y-86488095D01*
X132104761Y-86440476D01*
X132152380Y-86345238D01*
X132152380Y-86154761D01*
X132104761Y-86059523D01*
X132057142Y-86011904D01*
X131961904Y-85964285D01*
X131771428Y-85964285D01*
X131676190Y-86011904D01*
X131628571Y-86059523D01*
X131580952Y-86154761D01*
%TO.C,C7*%
X144858333Y-86462142D02*
X144810714Y-86509761D01*
X144667857Y-86557380D01*
X144572619Y-86557380D01*
X144429761Y-86509761D01*
X144334523Y-86414523D01*
X144286904Y-86319285D01*
X144239285Y-86128809D01*
X144239285Y-85985952D01*
X144286904Y-85795476D01*
X144334523Y-85700238D01*
X144429761Y-85605000D01*
X144572619Y-85557380D01*
X144667857Y-85557380D01*
X144810714Y-85605000D01*
X144858333Y-85652619D01*
X145191666Y-85557380D02*
X145858333Y-85557380D01*
X145429761Y-86557380D01*
%TO.C,C5*%
X134087142Y-108506666D02*
X134134761Y-108554285D01*
X134182380Y-108697142D01*
X134182380Y-108792380D01*
X134134761Y-108935238D01*
X134039523Y-109030476D01*
X133944285Y-109078095D01*
X133753809Y-109125714D01*
X133610952Y-109125714D01*
X133420476Y-109078095D01*
X133325238Y-109030476D01*
X133230000Y-108935238D01*
X133182380Y-108792380D01*
X133182380Y-108697142D01*
X133230000Y-108554285D01*
X133277619Y-108506666D01*
X133182380Y-107601904D02*
X133182380Y-108078095D01*
X133658571Y-108125714D01*
X133610952Y-108078095D01*
X133563333Y-107982857D01*
X133563333Y-107744761D01*
X133610952Y-107649523D01*
X133658571Y-107601904D01*
X133753809Y-107554285D01*
X133991904Y-107554285D01*
X134087142Y-107601904D01*
X134134761Y-107649523D01*
X134182380Y-107744761D01*
X134182380Y-107982857D01*
X134134761Y-108078095D01*
X134087142Y-108125714D01*
%TO.C,C4*%
X149327142Y-99471666D02*
X149374761Y-99519285D01*
X149422380Y-99662142D01*
X149422380Y-99757380D01*
X149374761Y-99900238D01*
X149279523Y-99995476D01*
X149184285Y-100043095D01*
X148993809Y-100090714D01*
X148850952Y-100090714D01*
X148660476Y-100043095D01*
X148565238Y-99995476D01*
X148470000Y-99900238D01*
X148422380Y-99757380D01*
X148422380Y-99662142D01*
X148470000Y-99519285D01*
X148517619Y-99471666D01*
X148755714Y-98614523D02*
X149422380Y-98614523D01*
X148374761Y-98852619D02*
X149089047Y-99090714D01*
X149089047Y-98471666D01*
%TO.C,C3*%
X149437142Y-104061666D02*
X149484761Y-104109285D01*
X149532380Y-104252142D01*
X149532380Y-104347380D01*
X149484761Y-104490238D01*
X149389523Y-104585476D01*
X149294285Y-104633095D01*
X149103809Y-104680714D01*
X148960952Y-104680714D01*
X148770476Y-104633095D01*
X148675238Y-104585476D01*
X148580000Y-104490238D01*
X148532380Y-104347380D01*
X148532380Y-104252142D01*
X148580000Y-104109285D01*
X148627619Y-104061666D01*
X148532380Y-103728333D02*
X148532380Y-103109285D01*
X148913333Y-103442619D01*
X148913333Y-103299761D01*
X148960952Y-103204523D01*
X149008571Y-103156904D01*
X149103809Y-103109285D01*
X149341904Y-103109285D01*
X149437142Y-103156904D01*
X149484761Y-103204523D01*
X149532380Y-103299761D01*
X149532380Y-103585476D01*
X149484761Y-103680714D01*
X149437142Y-103728333D01*
%TO.C,C18*%
X161902142Y-96917857D02*
X161949761Y-96965476D01*
X161997380Y-97108333D01*
X161997380Y-97203571D01*
X161949761Y-97346428D01*
X161854523Y-97441666D01*
X161759285Y-97489285D01*
X161568809Y-97536904D01*
X161425952Y-97536904D01*
X161235476Y-97489285D01*
X161140238Y-97441666D01*
X161045000Y-97346428D01*
X160997380Y-97203571D01*
X160997380Y-97108333D01*
X161045000Y-96965476D01*
X161092619Y-96917857D01*
X161997380Y-95965476D02*
X161997380Y-96536904D01*
X161997380Y-96251190D02*
X160997380Y-96251190D01*
X161140238Y-96346428D01*
X161235476Y-96441666D01*
X161283095Y-96536904D01*
X161425952Y-95394047D02*
X161378333Y-95489285D01*
X161330714Y-95536904D01*
X161235476Y-95584523D01*
X161187857Y-95584523D01*
X161092619Y-95536904D01*
X161045000Y-95489285D01*
X160997380Y-95394047D01*
X160997380Y-95203571D01*
X161045000Y-95108333D01*
X161092619Y-95060714D01*
X161187857Y-95013095D01*
X161235476Y-95013095D01*
X161330714Y-95060714D01*
X161378333Y-95108333D01*
X161425952Y-95203571D01*
X161425952Y-95394047D01*
X161473571Y-95489285D01*
X161521190Y-95536904D01*
X161616428Y-95584523D01*
X161806904Y-95584523D01*
X161902142Y-95536904D01*
X161949761Y-95489285D01*
X161997380Y-95394047D01*
X161997380Y-95203571D01*
X161949761Y-95108333D01*
X161902142Y-95060714D01*
X161806904Y-95013095D01*
X161616428Y-95013095D01*
X161521190Y-95060714D01*
X161473571Y-95108333D01*
X161425952Y-95203571D01*
%TO.C,C13*%
X167107142Y-73667857D02*
X167154761Y-73715476D01*
X167202380Y-73858333D01*
X167202380Y-73953571D01*
X167154761Y-74096428D01*
X167059523Y-74191666D01*
X166964285Y-74239285D01*
X166773809Y-74286904D01*
X166630952Y-74286904D01*
X166440476Y-74239285D01*
X166345238Y-74191666D01*
X166250000Y-74096428D01*
X166202380Y-73953571D01*
X166202380Y-73858333D01*
X166250000Y-73715476D01*
X166297619Y-73667857D01*
X167202380Y-72715476D02*
X167202380Y-73286904D01*
X167202380Y-73001190D02*
X166202380Y-73001190D01*
X166345238Y-73096428D01*
X166440476Y-73191666D01*
X166488095Y-73286904D01*
X166202380Y-72382142D02*
X166202380Y-71763095D01*
X166583333Y-72096428D01*
X166583333Y-71953571D01*
X166630952Y-71858333D01*
X166678571Y-71810714D01*
X166773809Y-71763095D01*
X167011904Y-71763095D01*
X167107142Y-71810714D01*
X167154761Y-71858333D01*
X167202380Y-71953571D01*
X167202380Y-72239285D01*
X167154761Y-72334523D01*
X167107142Y-72382142D01*
%TO.C,C14*%
X173347142Y-67667142D02*
X173299523Y-67714761D01*
X173156666Y-67762380D01*
X173061428Y-67762380D01*
X172918571Y-67714761D01*
X172823333Y-67619523D01*
X172775714Y-67524285D01*
X172728095Y-67333809D01*
X172728095Y-67190952D01*
X172775714Y-67000476D01*
X172823333Y-66905238D01*
X172918571Y-66810000D01*
X173061428Y-66762380D01*
X173156666Y-66762380D01*
X173299523Y-66810000D01*
X173347142Y-66857619D01*
X174299523Y-67762380D02*
X173728095Y-67762380D01*
X174013809Y-67762380D02*
X174013809Y-66762380D01*
X173918571Y-66905238D01*
X173823333Y-67000476D01*
X173728095Y-67048095D01*
X175156666Y-67095714D02*
X175156666Y-67762380D01*
X174918571Y-66714761D02*
X174680476Y-67429047D01*
X175299523Y-67429047D01*
%TO.C,C15*%
X166347142Y-91837857D02*
X166394761Y-91885476D01*
X166442380Y-92028333D01*
X166442380Y-92123571D01*
X166394761Y-92266428D01*
X166299523Y-92361666D01*
X166204285Y-92409285D01*
X166013809Y-92456904D01*
X165870952Y-92456904D01*
X165680476Y-92409285D01*
X165585238Y-92361666D01*
X165490000Y-92266428D01*
X165442380Y-92123571D01*
X165442380Y-92028333D01*
X165490000Y-91885476D01*
X165537619Y-91837857D01*
X166442380Y-90885476D02*
X166442380Y-91456904D01*
X166442380Y-91171190D02*
X165442380Y-91171190D01*
X165585238Y-91266428D01*
X165680476Y-91361666D01*
X165728095Y-91456904D01*
X165442380Y-89980714D02*
X165442380Y-90456904D01*
X165918571Y-90504523D01*
X165870952Y-90456904D01*
X165823333Y-90361666D01*
X165823333Y-90123571D01*
X165870952Y-90028333D01*
X165918571Y-89980714D01*
X166013809Y-89933095D01*
X166251904Y-89933095D01*
X166347142Y-89980714D01*
X166394761Y-90028333D01*
X166442380Y-90123571D01*
X166442380Y-90361666D01*
X166394761Y-90456904D01*
X166347142Y-90504523D01*
%TO.C,C16*%
X163187142Y-75922142D02*
X163139523Y-75969761D01*
X162996666Y-76017380D01*
X162901428Y-76017380D01*
X162758571Y-75969761D01*
X162663333Y-75874523D01*
X162615714Y-75779285D01*
X162568095Y-75588809D01*
X162568095Y-75445952D01*
X162615714Y-75255476D01*
X162663333Y-75160238D01*
X162758571Y-75065000D01*
X162901428Y-75017380D01*
X162996666Y-75017380D01*
X163139523Y-75065000D01*
X163187142Y-75112619D01*
X164139523Y-76017380D02*
X163568095Y-76017380D01*
X163853809Y-76017380D02*
X163853809Y-75017380D01*
X163758571Y-75160238D01*
X163663333Y-75255476D01*
X163568095Y-75303095D01*
X164996666Y-75017380D02*
X164806190Y-75017380D01*
X164710952Y-75065000D01*
X164663333Y-75112619D01*
X164568095Y-75255476D01*
X164520476Y-75445952D01*
X164520476Y-75826904D01*
X164568095Y-75922142D01*
X164615714Y-75969761D01*
X164710952Y-76017380D01*
X164901428Y-76017380D01*
X164996666Y-75969761D01*
X165044285Y-75922142D01*
X165091904Y-75826904D01*
X165091904Y-75588809D01*
X165044285Y-75493571D01*
X164996666Y-75445952D01*
X164901428Y-75398333D01*
X164710952Y-75398333D01*
X164615714Y-75445952D01*
X164568095Y-75493571D01*
X164520476Y-75588809D01*
%TO.C,C17*%
X168632142Y-110497857D02*
X168679761Y-110545476D01*
X168727380Y-110688333D01*
X168727380Y-110783571D01*
X168679761Y-110926428D01*
X168584523Y-111021666D01*
X168489285Y-111069285D01*
X168298809Y-111116904D01*
X168155952Y-111116904D01*
X167965476Y-111069285D01*
X167870238Y-111021666D01*
X167775000Y-110926428D01*
X167727380Y-110783571D01*
X167727380Y-110688333D01*
X167775000Y-110545476D01*
X167822619Y-110497857D01*
X168727380Y-109545476D02*
X168727380Y-110116904D01*
X168727380Y-109831190D02*
X167727380Y-109831190D01*
X167870238Y-109926428D01*
X167965476Y-110021666D01*
X168013095Y-110116904D01*
X167727380Y-109212142D02*
X167727380Y-108545476D01*
X168727380Y-108974047D01*
%TO.C,C1*%
X151208333Y-121262142D02*
X151160714Y-121309761D01*
X151017857Y-121357380D01*
X150922619Y-121357380D01*
X150779761Y-121309761D01*
X150684523Y-121214523D01*
X150636904Y-121119285D01*
X150589285Y-120928809D01*
X150589285Y-120785952D01*
X150636904Y-120595476D01*
X150684523Y-120500238D01*
X150779761Y-120405000D01*
X150922619Y-120357380D01*
X151017857Y-120357380D01*
X151160714Y-120405000D01*
X151208333Y-120452619D01*
X152160714Y-121357380D02*
X151589285Y-121357380D01*
X151875000Y-121357380D02*
X151875000Y-120357380D01*
X151779761Y-120500238D01*
X151684523Y-120595476D01*
X151589285Y-120643095D01*
%TO.C,C19*%
X166997142Y-116562142D02*
X166949523Y-116609761D01*
X166806666Y-116657380D01*
X166711428Y-116657380D01*
X166568571Y-116609761D01*
X166473333Y-116514523D01*
X166425714Y-116419285D01*
X166378095Y-116228809D01*
X166378095Y-116085952D01*
X166425714Y-115895476D01*
X166473333Y-115800238D01*
X166568571Y-115705000D01*
X166711428Y-115657380D01*
X166806666Y-115657380D01*
X166949523Y-115705000D01*
X166997142Y-115752619D01*
X167949523Y-116657380D02*
X167378095Y-116657380D01*
X167663809Y-116657380D02*
X167663809Y-115657380D01*
X167568571Y-115800238D01*
X167473333Y-115895476D01*
X167378095Y-115943095D01*
X168425714Y-116657380D02*
X168616190Y-116657380D01*
X168711428Y-116609761D01*
X168759047Y-116562142D01*
X168854285Y-116419285D01*
X168901904Y-116228809D01*
X168901904Y-115847857D01*
X168854285Y-115752619D01*
X168806666Y-115705000D01*
X168711428Y-115657380D01*
X168520952Y-115657380D01*
X168425714Y-115705000D01*
X168378095Y-115752619D01*
X168330476Y-115847857D01*
X168330476Y-116085952D01*
X168378095Y-116181190D01*
X168425714Y-116228809D01*
X168520952Y-116276428D01*
X168711428Y-116276428D01*
X168806666Y-116228809D01*
X168854285Y-116181190D01*
X168901904Y-116085952D01*
%TO.C,C20*%
X159997142Y-114697857D02*
X160044761Y-114745476D01*
X160092380Y-114888333D01*
X160092380Y-114983571D01*
X160044761Y-115126428D01*
X159949523Y-115221666D01*
X159854285Y-115269285D01*
X159663809Y-115316904D01*
X159520952Y-115316904D01*
X159330476Y-115269285D01*
X159235238Y-115221666D01*
X159140000Y-115126428D01*
X159092380Y-114983571D01*
X159092380Y-114888333D01*
X159140000Y-114745476D01*
X159187619Y-114697857D01*
X159187619Y-114316904D02*
X159140000Y-114269285D01*
X159092380Y-114174047D01*
X159092380Y-113935952D01*
X159140000Y-113840714D01*
X159187619Y-113793095D01*
X159282857Y-113745476D01*
X159378095Y-113745476D01*
X159520952Y-113793095D01*
X160092380Y-114364523D01*
X160092380Y-113745476D01*
X159092380Y-113126428D02*
X159092380Y-113031190D01*
X159140000Y-112935952D01*
X159187619Y-112888333D01*
X159282857Y-112840714D01*
X159473333Y-112793095D01*
X159711428Y-112793095D01*
X159901904Y-112840714D01*
X159997142Y-112888333D01*
X160044761Y-112935952D01*
X160092380Y-113031190D01*
X160092380Y-113126428D01*
X160044761Y-113221666D01*
X159997142Y-113269285D01*
X159901904Y-113316904D01*
X159711428Y-113364523D01*
X159473333Y-113364523D01*
X159282857Y-113316904D01*
X159187619Y-113269285D01*
X159140000Y-113221666D01*
X159092380Y-113126428D01*
%TO.C,CT1*%
X139422142Y-69762619D02*
X139469761Y-69810238D01*
X139517380Y-69953095D01*
X139517380Y-70048333D01*
X139469761Y-70191190D01*
X139374523Y-70286428D01*
X139279285Y-70334047D01*
X139088809Y-70381666D01*
X138945952Y-70381666D01*
X138755476Y-70334047D01*
X138660238Y-70286428D01*
X138565000Y-70191190D01*
X138517380Y-70048333D01*
X138517380Y-69953095D01*
X138565000Y-69810238D01*
X138612619Y-69762619D01*
X138517380Y-69476904D02*
X138517380Y-68905476D01*
X139517380Y-69191190D02*
X138517380Y-69191190D01*
X139517380Y-68048333D02*
X139517380Y-68619761D01*
X139517380Y-68334047D02*
X138517380Y-68334047D01*
X138660238Y-68429285D01*
X138755476Y-68524523D01*
X138803095Y-68619761D01*
%TO.C,C11*%
X138152142Y-77867857D02*
X138199761Y-77915476D01*
X138247380Y-78058333D01*
X138247380Y-78153571D01*
X138199761Y-78296428D01*
X138104523Y-78391666D01*
X138009285Y-78439285D01*
X137818809Y-78486904D01*
X137675952Y-78486904D01*
X137485476Y-78439285D01*
X137390238Y-78391666D01*
X137295000Y-78296428D01*
X137247380Y-78153571D01*
X137247380Y-78058333D01*
X137295000Y-77915476D01*
X137342619Y-77867857D01*
X138247380Y-76915476D02*
X138247380Y-77486904D01*
X138247380Y-77201190D02*
X137247380Y-77201190D01*
X137390238Y-77296428D01*
X137485476Y-77391666D01*
X137533095Y-77486904D01*
X138247380Y-75963095D02*
X138247380Y-76534523D01*
X138247380Y-76248809D02*
X137247380Y-76248809D01*
X137390238Y-76344047D01*
X137485476Y-76439285D01*
X137533095Y-76534523D01*
%TO.C,J1*%
X124293380Y-117173333D02*
X125007666Y-117173333D01*
X125150523Y-117220952D01*
X125245761Y-117316190D01*
X125293380Y-117459047D01*
X125293380Y-117554285D01*
X125293380Y-116173333D02*
X125293380Y-116744761D01*
X125293380Y-116459047D02*
X124293380Y-116459047D01*
X124436238Y-116554285D01*
X124531476Y-116649523D01*
X124579095Y-116744761D01*
%TO.C,M5*%
X185245476Y-114327380D02*
X185245476Y-113327380D01*
X185578809Y-114041666D01*
X185912142Y-113327380D01*
X185912142Y-114327380D01*
X186864523Y-113327380D02*
X186388333Y-113327380D01*
X186340714Y-113803571D01*
X186388333Y-113755952D01*
X186483571Y-113708333D01*
X186721666Y-113708333D01*
X186816904Y-113755952D01*
X186864523Y-113803571D01*
X186912142Y-113898809D01*
X186912142Y-114136904D01*
X186864523Y-114232142D01*
X186816904Y-114279761D01*
X186721666Y-114327380D01*
X186483571Y-114327380D01*
X186388333Y-114279761D01*
X186340714Y-114232142D01*
%TO.C,M6*%
X185245476Y-125757380D02*
X185245476Y-124757380D01*
X185578809Y-125471666D01*
X185912142Y-124757380D01*
X185912142Y-125757380D01*
X186816904Y-124757380D02*
X186626428Y-124757380D01*
X186531190Y-124805000D01*
X186483571Y-124852619D01*
X186388333Y-124995476D01*
X186340714Y-125185952D01*
X186340714Y-125566904D01*
X186388333Y-125662142D01*
X186435952Y-125709761D01*
X186531190Y-125757380D01*
X186721666Y-125757380D01*
X186816904Y-125709761D01*
X186864523Y-125662142D01*
X186912142Y-125566904D01*
X186912142Y-125328809D01*
X186864523Y-125233571D01*
X186816904Y-125185952D01*
X186721666Y-125138333D01*
X186531190Y-125138333D01*
X186435952Y-125185952D01*
X186388333Y-125233571D01*
X186340714Y-125328809D01*
%TO.C,M1*%
X185245476Y-70512380D02*
X185245476Y-69512380D01*
X185578809Y-70226666D01*
X185912142Y-69512380D01*
X185912142Y-70512380D01*
X186912142Y-70512380D02*
X186340714Y-70512380D01*
X186626428Y-70512380D02*
X186626428Y-69512380D01*
X186531190Y-69655238D01*
X186435952Y-69750476D01*
X186340714Y-69798095D01*
%TO.C,M3*%
X185245476Y-92737380D02*
X185245476Y-91737380D01*
X185578809Y-92451666D01*
X185912142Y-91737380D01*
X185912142Y-92737380D01*
X186293095Y-91737380D02*
X186912142Y-91737380D01*
X186578809Y-92118333D01*
X186721666Y-92118333D01*
X186816904Y-92165952D01*
X186864523Y-92213571D01*
X186912142Y-92308809D01*
X186912142Y-92546904D01*
X186864523Y-92642142D01*
X186816904Y-92689761D01*
X186721666Y-92737380D01*
X186435952Y-92737380D01*
X186340714Y-92689761D01*
X186293095Y-92642142D01*
%TO.C,M4*%
X185245476Y-103532380D02*
X185245476Y-102532380D01*
X185578809Y-103246666D01*
X185912142Y-102532380D01*
X185912142Y-103532380D01*
X186816904Y-102865714D02*
X186816904Y-103532380D01*
X186578809Y-102484761D02*
X186340714Y-103199047D01*
X186959761Y-103199047D01*
%TO.C,M2*%
X185245476Y-81307380D02*
X185245476Y-80307380D01*
X185578809Y-81021666D01*
X185912142Y-80307380D01*
X185912142Y-81307380D01*
X186340714Y-80402619D02*
X186388333Y-80355000D01*
X186483571Y-80307380D01*
X186721666Y-80307380D01*
X186816904Y-80355000D01*
X186864523Y-80402619D01*
X186912142Y-80497857D01*
X186912142Y-80593095D01*
X186864523Y-80735952D01*
X186293095Y-81307380D01*
X186912142Y-81307380D01*
%TO.C,Y1*%
X153646190Y-101246190D02*
X154122380Y-101246190D01*
X153122380Y-101579523D02*
X153646190Y-101246190D01*
X153122380Y-100912857D01*
X154122380Y-100055714D02*
X154122380Y-100627142D01*
X154122380Y-100341428D02*
X153122380Y-100341428D01*
X153265238Y-100436666D01*
X153360476Y-100531904D01*
X153408095Y-100627142D01*
%TO.C,D1*%
X135072380Y-70588095D02*
X134072380Y-70588095D01*
X134072380Y-70350000D01*
X134120000Y-70207142D01*
X134215238Y-70111904D01*
X134310476Y-70064285D01*
X134500952Y-70016666D01*
X134643809Y-70016666D01*
X134834285Y-70064285D01*
X134929523Y-70111904D01*
X135024761Y-70207142D01*
X135072380Y-70350000D01*
X135072380Y-70588095D01*
X135072380Y-69064285D02*
X135072380Y-69635714D01*
X135072380Y-69350000D02*
X134072380Y-69350000D01*
X134215238Y-69445238D01*
X134310476Y-69540476D01*
X134358095Y-69635714D01*
%TO.C,L1*%
X139533333Y-89727380D02*
X139057142Y-89727380D01*
X139057142Y-88727380D01*
X140390476Y-89727380D02*
X139819047Y-89727380D01*
X140104761Y-89727380D02*
X140104761Y-88727380D01*
X140009523Y-88870238D01*
X139914285Y-88965476D01*
X139819047Y-89013095D01*
%TO.C,L2*%
X116542380Y-66076666D02*
X116542380Y-66552857D01*
X115542380Y-66552857D01*
X115637619Y-65790952D02*
X115590000Y-65743333D01*
X115542380Y-65648095D01*
X115542380Y-65410000D01*
X115590000Y-65314761D01*
X115637619Y-65267142D01*
X115732857Y-65219523D01*
X115828095Y-65219523D01*
X115970952Y-65267142D01*
X116542380Y-65838571D01*
X116542380Y-65219523D01*
%TO.C,L3*%
X157948333Y-76017380D02*
X157472142Y-76017380D01*
X157472142Y-75017380D01*
X158186428Y-75017380D02*
X158805476Y-75017380D01*
X158472142Y-75398333D01*
X158615000Y-75398333D01*
X158710238Y-75445952D01*
X158757857Y-75493571D01*
X158805476Y-75588809D01*
X158805476Y-75826904D01*
X158757857Y-75922142D01*
X158710238Y-75969761D01*
X158615000Y-76017380D01*
X158329285Y-76017380D01*
X158234047Y-75969761D01*
X158186428Y-75922142D01*
%TO.C,D3*%
X151667380Y-115890595D02*
X150667380Y-115890595D01*
X150667380Y-115652500D01*
X150715000Y-115509642D01*
X150810238Y-115414404D01*
X150905476Y-115366785D01*
X151095952Y-115319166D01*
X151238809Y-115319166D01*
X151429285Y-115366785D01*
X151524523Y-115414404D01*
X151619761Y-115509642D01*
X151667380Y-115652500D01*
X151667380Y-115890595D01*
X150667380Y-114985833D02*
X150667380Y-114366785D01*
X151048333Y-114700119D01*
X151048333Y-114557261D01*
X151095952Y-114462023D01*
X151143571Y-114414404D01*
X151238809Y-114366785D01*
X151476904Y-114366785D01*
X151572142Y-114414404D01*
X151619761Y-114462023D01*
X151667380Y-114557261D01*
X151667380Y-114842976D01*
X151619761Y-114938214D01*
X151572142Y-114985833D01*
%TO.C,D4*%
X147857380Y-115890595D02*
X146857380Y-115890595D01*
X146857380Y-115652500D01*
X146905000Y-115509642D01*
X147000238Y-115414404D01*
X147095476Y-115366785D01*
X147285952Y-115319166D01*
X147428809Y-115319166D01*
X147619285Y-115366785D01*
X147714523Y-115414404D01*
X147809761Y-115509642D01*
X147857380Y-115652500D01*
X147857380Y-115890595D01*
X147190714Y-114462023D02*
X147857380Y-114462023D01*
X146809761Y-114700119D02*
X147524047Y-114938214D01*
X147524047Y-114319166D01*
%TO.C,D2*%
X144047380Y-115890595D02*
X143047380Y-115890595D01*
X143047380Y-115652500D01*
X143095000Y-115509642D01*
X143190238Y-115414404D01*
X143285476Y-115366785D01*
X143475952Y-115319166D01*
X143618809Y-115319166D01*
X143809285Y-115366785D01*
X143904523Y-115414404D01*
X143999761Y-115509642D01*
X144047380Y-115652500D01*
X144047380Y-115890595D01*
X143142619Y-114938214D02*
X143095000Y-114890595D01*
X143047380Y-114795357D01*
X143047380Y-114557261D01*
X143095000Y-114462023D01*
X143142619Y-114414404D01*
X143237857Y-114366785D01*
X143333095Y-114366785D01*
X143475952Y-114414404D01*
X144047380Y-114985833D01*
X144047380Y-114366785D01*
%TO.C,U2*%
X137668095Y-103927380D02*
X137668095Y-104736904D01*
X137715714Y-104832142D01*
X137763333Y-104879761D01*
X137858571Y-104927380D01*
X138049047Y-104927380D01*
X138144285Y-104879761D01*
X138191904Y-104832142D01*
X138239523Y-104736904D01*
X138239523Y-103927380D01*
X138668095Y-104022619D02*
X138715714Y-103975000D01*
X138810952Y-103927380D01*
X139049047Y-103927380D01*
X139144285Y-103975000D01*
X139191904Y-104022619D01*
X139239523Y-104117857D01*
X139239523Y-104213095D01*
X139191904Y-104355952D01*
X138620476Y-104927380D01*
X139239523Y-104927380D01*
%TO.C,U3*%
X148720724Y-78827380D02*
X148720724Y-79636904D01*
X148768343Y-79732142D01*
X148815962Y-79779761D01*
X148911200Y-79827380D01*
X149101676Y-79827380D01*
X149196914Y-79779761D01*
X149244533Y-79732142D01*
X149292152Y-79636904D01*
X149292152Y-78827380D01*
X149673105Y-78827380D02*
X150292152Y-78827380D01*
X149958819Y-79208333D01*
X150101676Y-79208333D01*
X150196914Y-79255952D01*
X150244533Y-79303571D01*
X150292152Y-79398809D01*
X150292152Y-79636904D01*
X150244533Y-79732142D01*
X150196914Y-79779761D01*
X150101676Y-79827380D01*
X149815962Y-79827380D01*
X149720724Y-79779761D01*
X149673105Y-79732142D01*
%TO.C,U7*%
X159472380Y-121571904D02*
X160281904Y-121571904D01*
X160377142Y-121524285D01*
X160424761Y-121476666D01*
X160472380Y-121381428D01*
X160472380Y-121190952D01*
X160424761Y-121095714D01*
X160377142Y-121048095D01*
X160281904Y-121000476D01*
X159472380Y-121000476D01*
X159472380Y-120619523D02*
X159472380Y-119952857D01*
X160472380Y-120381428D01*
%TO.C,U6*%
X168052380Y-103631904D02*
X168861904Y-103631904D01*
X168957142Y-103584285D01*
X169004761Y-103536666D01*
X169052380Y-103441428D01*
X169052380Y-103250952D01*
X169004761Y-103155714D01*
X168957142Y-103108095D01*
X168861904Y-103060476D01*
X168052380Y-103060476D01*
X168052380Y-102155714D02*
X168052380Y-102346190D01*
X168100000Y-102441428D01*
X168147619Y-102489047D01*
X168290476Y-102584285D01*
X168480952Y-102631904D01*
X168861904Y-102631904D01*
X168957142Y-102584285D01*
X169004761Y-102536666D01*
X169052380Y-102441428D01*
X169052380Y-102250952D01*
X169004761Y-102155714D01*
X168957142Y-102108095D01*
X168861904Y-102060476D01*
X168623809Y-102060476D01*
X168528571Y-102108095D01*
X168480952Y-102155714D01*
X168433333Y-102250952D01*
X168433333Y-102441428D01*
X168480952Y-102536666D01*
X168528571Y-102584285D01*
X168623809Y-102631904D01*
%TO.C,U5*%
X162012380Y-85216904D02*
X162821904Y-85216904D01*
X162917142Y-85169285D01*
X162964761Y-85121666D01*
X163012380Y-85026428D01*
X163012380Y-84835952D01*
X162964761Y-84740714D01*
X162917142Y-84693095D01*
X162821904Y-84645476D01*
X162012380Y-84645476D01*
X162012380Y-83693095D02*
X162012380Y-84169285D01*
X162488571Y-84216904D01*
X162440952Y-84169285D01*
X162393333Y-84074047D01*
X162393333Y-83835952D01*
X162440952Y-83740714D01*
X162488571Y-83693095D01*
X162583809Y-83645476D01*
X162821904Y-83645476D01*
X162917142Y-83693095D01*
X162964761Y-83740714D01*
X163012380Y-83835952D01*
X163012380Y-84074047D01*
X162964761Y-84169285D01*
X162917142Y-84216904D01*
%TO.C,U1*%
X146558095Y-59142380D02*
X146558095Y-59951904D01*
X146605714Y-60047142D01*
X146653333Y-60094761D01*
X146748571Y-60142380D01*
X146939047Y-60142380D01*
X147034285Y-60094761D01*
X147081904Y-60047142D01*
X147129523Y-59951904D01*
X147129523Y-59142380D01*
X148129523Y-60142380D02*
X147558095Y-60142380D01*
X147843809Y-60142380D02*
X147843809Y-59142380D01*
X147748571Y-59285238D01*
X147653333Y-59380476D01*
X147558095Y-59428095D01*
%TO.C,U4*%
X168148095Y-71207380D02*
X168148095Y-72016904D01*
X168195714Y-72112142D01*
X168243333Y-72159761D01*
X168338571Y-72207380D01*
X168529047Y-72207380D01*
X168624285Y-72159761D01*
X168671904Y-72112142D01*
X168719523Y-72016904D01*
X168719523Y-71207380D01*
X169624285Y-71540714D02*
X169624285Y-72207380D01*
X169386190Y-71159761D02*
X169148095Y-71874047D01*
X169767142Y-71874047D01*
%TO.C,R12*%
X129102380Y-86757857D02*
X128626190Y-87091190D01*
X129102380Y-87329285D02*
X128102380Y-87329285D01*
X128102380Y-86948333D01*
X128150000Y-86853095D01*
X128197619Y-86805476D01*
X128292857Y-86757857D01*
X128435714Y-86757857D01*
X128530952Y-86805476D01*
X128578571Y-86853095D01*
X128626190Y-86948333D01*
X128626190Y-87329285D01*
X129102380Y-85805476D02*
X129102380Y-86376904D01*
X129102380Y-86091190D02*
X128102380Y-86091190D01*
X128245238Y-86186428D01*
X128340476Y-86281666D01*
X128388095Y-86376904D01*
X128197619Y-85424523D02*
X128150000Y-85376904D01*
X128102380Y-85281666D01*
X128102380Y-85043571D01*
X128150000Y-84948333D01*
X128197619Y-84900714D01*
X128292857Y-84853095D01*
X128388095Y-84853095D01*
X128530952Y-84900714D01*
X129102380Y-85472142D01*
X129102380Y-84853095D01*
%TO.C,R7*%
X143072380Y-109631666D02*
X142596190Y-109965000D01*
X143072380Y-110203095D02*
X142072380Y-110203095D01*
X142072380Y-109822142D01*
X142120000Y-109726904D01*
X142167619Y-109679285D01*
X142262857Y-109631666D01*
X142405714Y-109631666D01*
X142500952Y-109679285D01*
X142548571Y-109726904D01*
X142596190Y-109822142D01*
X142596190Y-110203095D01*
X142072380Y-109298333D02*
X142072380Y-108631666D01*
X143072380Y-109060238D01*
%TO.C,R1*%
X145638333Y-121357380D02*
X145305000Y-120881190D01*
X145066904Y-121357380D02*
X145066904Y-120357380D01*
X145447857Y-120357380D01*
X145543095Y-120405000D01*
X145590714Y-120452619D01*
X145638333Y-120547857D01*
X145638333Y-120690714D01*
X145590714Y-120785952D01*
X145543095Y-120833571D01*
X145447857Y-120881190D01*
X145066904Y-120881190D01*
X146590714Y-121357380D02*
X146019285Y-121357380D01*
X146305000Y-121357380D02*
X146305000Y-120357380D01*
X146209761Y-120500238D01*
X146114523Y-120595476D01*
X146019285Y-120643095D01*
%TO.C,R13*%
X141677380Y-79527545D02*
X141201190Y-79860878D01*
X141677380Y-80098973D02*
X140677380Y-80098973D01*
X140677380Y-79718021D01*
X140725000Y-79622783D01*
X140772619Y-79575164D01*
X140867857Y-79527545D01*
X141010714Y-79527545D01*
X141105952Y-79575164D01*
X141153571Y-79622783D01*
X141201190Y-79718021D01*
X141201190Y-80098973D01*
X141677380Y-78575164D02*
X141677380Y-79146592D01*
X141677380Y-78860878D02*
X140677380Y-78860878D01*
X140820238Y-78956116D01*
X140915476Y-79051354D01*
X140963095Y-79146592D01*
X140677380Y-78241830D02*
X140677380Y-77622783D01*
X141058333Y-77956116D01*
X141058333Y-77813259D01*
X141105952Y-77718021D01*
X141153571Y-77670402D01*
X141248809Y-77622783D01*
X141486904Y-77622783D01*
X141582142Y-77670402D01*
X141629761Y-77718021D01*
X141677380Y-77813259D01*
X141677380Y-78098973D01*
X141629761Y-78194211D01*
X141582142Y-78241830D01*
%TO.C,R14*%
X141677380Y-74692857D02*
X141201190Y-75026190D01*
X141677380Y-75264285D02*
X140677380Y-75264285D01*
X140677380Y-74883333D01*
X140725000Y-74788095D01*
X140772619Y-74740476D01*
X140867857Y-74692857D01*
X141010714Y-74692857D01*
X141105952Y-74740476D01*
X141153571Y-74788095D01*
X141201190Y-74883333D01*
X141201190Y-75264285D01*
X141677380Y-73740476D02*
X141677380Y-74311904D01*
X141677380Y-74026190D02*
X140677380Y-74026190D01*
X140820238Y-74121428D01*
X140915476Y-74216666D01*
X140963095Y-74311904D01*
X141010714Y-72883333D02*
X141677380Y-72883333D01*
X140629761Y-73121428D02*
X141344047Y-73359523D01*
X141344047Y-72740476D01*
%TO.C,RF1*%
X158187380Y-84805238D02*
X157711190Y-85138571D01*
X158187380Y-85376666D02*
X157187380Y-85376666D01*
X157187380Y-84995714D01*
X157235000Y-84900476D01*
X157282619Y-84852857D01*
X157377857Y-84805238D01*
X157520714Y-84805238D01*
X157615952Y-84852857D01*
X157663571Y-84900476D01*
X157711190Y-84995714D01*
X157711190Y-85376666D01*
X157663571Y-84043333D02*
X157663571Y-84376666D01*
X158187380Y-84376666D02*
X157187380Y-84376666D01*
X157187380Y-83900476D01*
X158187380Y-82995714D02*
X158187380Y-83567142D01*
X158187380Y-83281428D02*
X157187380Y-83281428D01*
X157330238Y-83376666D01*
X157425476Y-83471904D01*
X157473095Y-83567142D01*
%TO.C,RF2*%
X162377380Y-92035238D02*
X161901190Y-92368571D01*
X162377380Y-92606666D02*
X161377380Y-92606666D01*
X161377380Y-92225714D01*
X161425000Y-92130476D01*
X161472619Y-92082857D01*
X161567857Y-92035238D01*
X161710714Y-92035238D01*
X161805952Y-92082857D01*
X161853571Y-92130476D01*
X161901190Y-92225714D01*
X161901190Y-92606666D01*
X161853571Y-91273333D02*
X161853571Y-91606666D01*
X162377380Y-91606666D02*
X161377380Y-91606666D01*
X161377380Y-91130476D01*
X161472619Y-90797142D02*
X161425000Y-90749523D01*
X161377380Y-90654285D01*
X161377380Y-90416190D01*
X161425000Y-90320952D01*
X161472619Y-90273333D01*
X161567857Y-90225714D01*
X161663095Y-90225714D01*
X161805952Y-90273333D01*
X162377380Y-90844761D01*
X162377380Y-90225714D01*
%TO.C,RF3*%
X158187380Y-103855238D02*
X157711190Y-104188571D01*
X158187380Y-104426666D02*
X157187380Y-104426666D01*
X157187380Y-104045714D01*
X157235000Y-103950476D01*
X157282619Y-103902857D01*
X157377857Y-103855238D01*
X157520714Y-103855238D01*
X157615952Y-103902857D01*
X157663571Y-103950476D01*
X157711190Y-104045714D01*
X157711190Y-104426666D01*
X157663571Y-103093333D02*
X157663571Y-103426666D01*
X158187380Y-103426666D02*
X157187380Y-103426666D01*
X157187380Y-102950476D01*
X157187380Y-102664761D02*
X157187380Y-102045714D01*
X157568333Y-102379047D01*
X157568333Y-102236190D01*
X157615952Y-102140952D01*
X157663571Y-102093333D01*
X157758809Y-102045714D01*
X157996904Y-102045714D01*
X158092142Y-102093333D01*
X158139761Y-102140952D01*
X158187380Y-102236190D01*
X158187380Y-102521904D01*
X158139761Y-102617142D01*
X158092142Y-102664761D01*
%TO.C,RF4*%
X155647380Y-110840238D02*
X155171190Y-111173571D01*
X155647380Y-111411666D02*
X154647380Y-111411666D01*
X154647380Y-111030714D01*
X154695000Y-110935476D01*
X154742619Y-110887857D01*
X154837857Y-110840238D01*
X154980714Y-110840238D01*
X155075952Y-110887857D01*
X155123571Y-110935476D01*
X155171190Y-111030714D01*
X155171190Y-111411666D01*
X155123571Y-110078333D02*
X155123571Y-110411666D01*
X155647380Y-110411666D02*
X154647380Y-110411666D01*
X154647380Y-109935476D01*
X154980714Y-109125952D02*
X155647380Y-109125952D01*
X154599761Y-109364047D02*
X155314047Y-109602142D01*
X155314047Y-108983095D01*
%TO.C,RF5*%
X155647380Y-117825238D02*
X155171190Y-118158571D01*
X155647380Y-118396666D02*
X154647380Y-118396666D01*
X154647380Y-118015714D01*
X154695000Y-117920476D01*
X154742619Y-117872857D01*
X154837857Y-117825238D01*
X154980714Y-117825238D01*
X155075952Y-117872857D01*
X155123571Y-117920476D01*
X155171190Y-118015714D01*
X155171190Y-118396666D01*
X155123571Y-117063333D02*
X155123571Y-117396666D01*
X155647380Y-117396666D02*
X154647380Y-117396666D01*
X154647380Y-116920476D01*
X154647380Y-116063333D02*
X154647380Y-116539523D01*
X155123571Y-116587142D01*
X155075952Y-116539523D01*
X155028333Y-116444285D01*
X155028333Y-116206190D01*
X155075952Y-116110952D01*
X155123571Y-116063333D01*
X155218809Y-116015714D01*
X155456904Y-116015714D01*
X155552142Y-116063333D01*
X155599761Y-116110952D01*
X155647380Y-116206190D01*
X155647380Y-116444285D01*
X155599761Y-116539523D01*
X155552142Y-116587142D01*
%TO.C,RF6*%
X167044761Y-129992380D02*
X166711428Y-129516190D01*
X166473333Y-129992380D02*
X166473333Y-128992380D01*
X166854285Y-128992380D01*
X166949523Y-129040000D01*
X166997142Y-129087619D01*
X167044761Y-129182857D01*
X167044761Y-129325714D01*
X166997142Y-129420952D01*
X166949523Y-129468571D01*
X166854285Y-129516190D01*
X166473333Y-129516190D01*
X167806666Y-129468571D02*
X167473333Y-129468571D01*
X167473333Y-129992380D02*
X167473333Y-128992380D01*
X167949523Y-128992380D01*
X168759047Y-128992380D02*
X168568571Y-128992380D01*
X168473333Y-129040000D01*
X168425714Y-129087619D01*
X168330476Y-129230476D01*
X168282857Y-129420952D01*
X168282857Y-129801904D01*
X168330476Y-129897142D01*
X168378095Y-129944761D01*
X168473333Y-129992380D01*
X168663809Y-129992380D01*
X168759047Y-129944761D01*
X168806666Y-129897142D01*
X168854285Y-129801904D01*
X168854285Y-129563809D01*
X168806666Y-129468571D01*
X168759047Y-129420952D01*
X168663809Y-129373333D01*
X168473333Y-129373333D01*
X168378095Y-129420952D01*
X168330476Y-129468571D01*
X168282857Y-129563809D01*
%TO.C,RG1*%
X166973333Y-76017380D02*
X166640000Y-75541190D01*
X166401904Y-76017380D02*
X166401904Y-75017380D01*
X166782857Y-75017380D01*
X166878095Y-75065000D01*
X166925714Y-75112619D01*
X166973333Y-75207857D01*
X166973333Y-75350714D01*
X166925714Y-75445952D01*
X166878095Y-75493571D01*
X166782857Y-75541190D01*
X166401904Y-75541190D01*
X167925714Y-75065000D02*
X167830476Y-75017380D01*
X167687619Y-75017380D01*
X167544761Y-75065000D01*
X167449523Y-75160238D01*
X167401904Y-75255476D01*
X167354285Y-75445952D01*
X167354285Y-75588809D01*
X167401904Y-75779285D01*
X167449523Y-75874523D01*
X167544761Y-75969761D01*
X167687619Y-76017380D01*
X167782857Y-76017380D01*
X167925714Y-75969761D01*
X167973333Y-75922142D01*
X167973333Y-75588809D01*
X167782857Y-75588809D01*
X168925714Y-76017380D02*
X168354285Y-76017380D01*
X168640000Y-76017380D02*
X168640000Y-75017380D01*
X168544761Y-75160238D01*
X168449523Y-75255476D01*
X168354285Y-75303095D01*
%TO.C,R2*%
X131262380Y-95171666D02*
X130786190Y-95505000D01*
X131262380Y-95743095D02*
X130262380Y-95743095D01*
X130262380Y-95362142D01*
X130310000Y-95266904D01*
X130357619Y-95219285D01*
X130452857Y-95171666D01*
X130595714Y-95171666D01*
X130690952Y-95219285D01*
X130738571Y-95266904D01*
X130786190Y-95362142D01*
X130786190Y-95743095D01*
X130357619Y-94790714D02*
X130310000Y-94743095D01*
X130262380Y-94647857D01*
X130262380Y-94409761D01*
X130310000Y-94314523D01*
X130357619Y-94266904D01*
X130452857Y-94219285D01*
X130548095Y-94219285D01*
X130690952Y-94266904D01*
X131262380Y-94838333D01*
X131262380Y-94219285D01*
%TO.C,R8*%
X131007380Y-108506666D02*
X130531190Y-108840000D01*
X131007380Y-109078095D02*
X130007380Y-109078095D01*
X130007380Y-108697142D01*
X130055000Y-108601904D01*
X130102619Y-108554285D01*
X130197857Y-108506666D01*
X130340714Y-108506666D01*
X130435952Y-108554285D01*
X130483571Y-108601904D01*
X130531190Y-108697142D01*
X130531190Y-109078095D01*
X130435952Y-107935238D02*
X130388333Y-108030476D01*
X130340714Y-108078095D01*
X130245476Y-108125714D01*
X130197857Y-108125714D01*
X130102619Y-108078095D01*
X130055000Y-108030476D01*
X130007380Y-107935238D01*
X130007380Y-107744761D01*
X130055000Y-107649523D01*
X130102619Y-107601904D01*
X130197857Y-107554285D01*
X130245476Y-107554285D01*
X130340714Y-107601904D01*
X130388333Y-107649523D01*
X130435952Y-107744761D01*
X130435952Y-107935238D01*
X130483571Y-108030476D01*
X130531190Y-108078095D01*
X130626428Y-108125714D01*
X130816904Y-108125714D01*
X130912142Y-108078095D01*
X130959761Y-108030476D01*
X131007380Y-107935238D01*
X131007380Y-107744761D01*
X130959761Y-107649523D01*
X130912142Y-107601904D01*
X130816904Y-107554285D01*
X130626428Y-107554285D01*
X130531190Y-107601904D01*
X130483571Y-107649523D01*
X130435952Y-107744761D01*
%TO.C,R11*%
X129102380Y-91202857D02*
X128626190Y-91536190D01*
X129102380Y-91774285D02*
X128102380Y-91774285D01*
X128102380Y-91393333D01*
X128150000Y-91298095D01*
X128197619Y-91250476D01*
X128292857Y-91202857D01*
X128435714Y-91202857D01*
X128530952Y-91250476D01*
X128578571Y-91298095D01*
X128626190Y-91393333D01*
X128626190Y-91774285D01*
X129102380Y-90250476D02*
X129102380Y-90821904D01*
X129102380Y-90536190D02*
X128102380Y-90536190D01*
X128245238Y-90631428D01*
X128340476Y-90726666D01*
X128388095Y-90821904D01*
X129102380Y-89298095D02*
X129102380Y-89869523D01*
X129102380Y-89583809D02*
X128102380Y-89583809D01*
X128245238Y-89679047D01*
X128340476Y-89774285D01*
X128388095Y-89869523D01*
%TO.C,R10*%
X131007380Y-100092857D02*
X130531190Y-100426190D01*
X131007380Y-100664285D02*
X130007380Y-100664285D01*
X130007380Y-100283333D01*
X130055000Y-100188095D01*
X130102619Y-100140476D01*
X130197857Y-100092857D01*
X130340714Y-100092857D01*
X130435952Y-100140476D01*
X130483571Y-100188095D01*
X130531190Y-100283333D01*
X130531190Y-100664285D01*
X131007380Y-99140476D02*
X131007380Y-99711904D01*
X131007380Y-99426190D02*
X130007380Y-99426190D01*
X130150238Y-99521428D01*
X130245476Y-99616666D01*
X130293095Y-99711904D01*
X130007380Y-98521428D02*
X130007380Y-98426190D01*
X130055000Y-98330952D01*
X130102619Y-98283333D01*
X130197857Y-98235714D01*
X130388333Y-98188095D01*
X130626428Y-98188095D01*
X130816904Y-98235714D01*
X130912142Y-98283333D01*
X130959761Y-98330952D01*
X131007380Y-98426190D01*
X131007380Y-98521428D01*
X130959761Y-98616666D01*
X130912142Y-98664285D01*
X130816904Y-98711904D01*
X130626428Y-98759523D01*
X130388333Y-98759523D01*
X130197857Y-98711904D01*
X130102619Y-98664285D01*
X130055000Y-98616666D01*
X130007380Y-98521428D01*
%TO.C,Rsc1*%
X152035000Y-62427380D02*
X151701666Y-61951190D01*
X151463571Y-62427380D02*
X151463571Y-61427380D01*
X151844523Y-61427380D01*
X151939761Y-61475000D01*
X151987380Y-61522619D01*
X152035000Y-61617857D01*
X152035000Y-61760714D01*
X151987380Y-61855952D01*
X151939761Y-61903571D01*
X151844523Y-61951190D01*
X151463571Y-61951190D01*
X152415952Y-62379761D02*
X152511190Y-62427380D01*
X152701666Y-62427380D01*
X152796904Y-62379761D01*
X152844523Y-62284523D01*
X152844523Y-62236904D01*
X152796904Y-62141666D01*
X152701666Y-62094047D01*
X152558809Y-62094047D01*
X152463571Y-62046428D01*
X152415952Y-61951190D01*
X152415952Y-61903571D01*
X152463571Y-61808333D01*
X152558809Y-61760714D01*
X152701666Y-61760714D01*
X152796904Y-61808333D01*
X153701666Y-62379761D02*
X153606428Y-62427380D01*
X153415952Y-62427380D01*
X153320714Y-62379761D01*
X153273095Y-62332142D01*
X153225476Y-62236904D01*
X153225476Y-61951190D01*
X153273095Y-61855952D01*
X153320714Y-61808333D01*
X153415952Y-61760714D01*
X153606428Y-61760714D01*
X153701666Y-61808333D01*
X154654047Y-62427380D02*
X154082619Y-62427380D01*
X154368333Y-62427380D02*
X154368333Y-61427380D01*
X154273095Y-61570238D01*
X154177857Y-61665476D01*
X154082619Y-61713095D01*
%TO.C,R6*%
X146882380Y-108506666D02*
X146406190Y-108840000D01*
X146882380Y-109078095D02*
X145882380Y-109078095D01*
X145882380Y-108697142D01*
X145930000Y-108601904D01*
X145977619Y-108554285D01*
X146072857Y-108506666D01*
X146215714Y-108506666D01*
X146310952Y-108554285D01*
X146358571Y-108601904D01*
X146406190Y-108697142D01*
X146406190Y-109078095D01*
X145882380Y-107649523D02*
X145882380Y-107840000D01*
X145930000Y-107935238D01*
X145977619Y-107982857D01*
X146120476Y-108078095D01*
X146310952Y-108125714D01*
X146691904Y-108125714D01*
X146787142Y-108078095D01*
X146834761Y-108030476D01*
X146882380Y-107935238D01*
X146882380Y-107744761D01*
X146834761Y-107649523D01*
X146787142Y-107601904D01*
X146691904Y-107554285D01*
X146453809Y-107554285D01*
X146358571Y-107601904D01*
X146310952Y-107649523D01*
X146263333Y-107744761D01*
X146263333Y-107935238D01*
X146310952Y-108030476D01*
X146358571Y-108078095D01*
X146453809Y-108125714D01*
%TO.C,R3*%
X144613333Y-71952380D02*
X144280000Y-71476190D01*
X144041904Y-71952380D02*
X144041904Y-70952380D01*
X144422857Y-70952380D01*
X144518095Y-71000000D01*
X144565714Y-71047619D01*
X144613333Y-71142857D01*
X144613333Y-71285714D01*
X144565714Y-71380952D01*
X144518095Y-71428571D01*
X144422857Y-71476190D01*
X144041904Y-71476190D01*
X144946666Y-70952380D02*
X145565714Y-70952380D01*
X145232380Y-71333333D01*
X145375238Y-71333333D01*
X145470476Y-71380952D01*
X145518095Y-71428571D01*
X145565714Y-71523809D01*
X145565714Y-71761904D01*
X145518095Y-71857142D01*
X145470476Y-71904761D01*
X145375238Y-71952380D01*
X145089523Y-71952380D01*
X144994285Y-71904761D01*
X144946666Y-71857142D01*
%TO.C,RG6*%
X159202380Y-122731666D02*
X158726190Y-123065000D01*
X159202380Y-123303095D02*
X158202380Y-123303095D01*
X158202380Y-122922142D01*
X158250000Y-122826904D01*
X158297619Y-122779285D01*
X158392857Y-122731666D01*
X158535714Y-122731666D01*
X158630952Y-122779285D01*
X158678571Y-122826904D01*
X158726190Y-122922142D01*
X158726190Y-123303095D01*
X158250000Y-121779285D02*
X158202380Y-121874523D01*
X158202380Y-122017380D01*
X158250000Y-122160238D01*
X158345238Y-122255476D01*
X158440476Y-122303095D01*
X158630952Y-122350714D01*
X158773809Y-122350714D01*
X158964285Y-122303095D01*
X159059523Y-122255476D01*
X159154761Y-122160238D01*
X159202380Y-122017380D01*
X159202380Y-121922142D01*
X159154761Y-121779285D01*
X159107142Y-121731666D01*
X158773809Y-121731666D01*
X158773809Y-121922142D01*
X158202380Y-120874523D02*
X158202380Y-121065000D01*
X158250000Y-121160238D01*
X158297619Y-121207857D01*
X158440476Y-121303095D01*
X158630952Y-121350714D01*
X159011904Y-121350714D01*
X159107142Y-121303095D01*
X159154761Y-121255476D01*
X159202380Y-121160238D01*
X159202380Y-120969761D01*
X159154761Y-120874523D01*
X159107142Y-120826904D01*
X159011904Y-120779285D01*
X158773809Y-120779285D01*
X158678571Y-120826904D01*
X158630952Y-120874523D01*
X158583333Y-120969761D01*
X158583333Y-121160238D01*
X158630952Y-121255476D01*
X158678571Y-121303095D01*
X158773809Y-121350714D01*
%TO.C,RG5*%
X164537380Y-114721666D02*
X164061190Y-115055000D01*
X164537380Y-115293095D02*
X163537380Y-115293095D01*
X163537380Y-114912142D01*
X163585000Y-114816904D01*
X163632619Y-114769285D01*
X163727857Y-114721666D01*
X163870714Y-114721666D01*
X163965952Y-114769285D01*
X164013571Y-114816904D01*
X164061190Y-114912142D01*
X164061190Y-115293095D01*
X163585000Y-113769285D02*
X163537380Y-113864523D01*
X163537380Y-114007380D01*
X163585000Y-114150238D01*
X163680238Y-114245476D01*
X163775476Y-114293095D01*
X163965952Y-114340714D01*
X164108809Y-114340714D01*
X164299285Y-114293095D01*
X164394523Y-114245476D01*
X164489761Y-114150238D01*
X164537380Y-114007380D01*
X164537380Y-113912142D01*
X164489761Y-113769285D01*
X164442142Y-113721666D01*
X164108809Y-113721666D01*
X164108809Y-113912142D01*
X163537380Y-112816904D02*
X163537380Y-113293095D01*
X164013571Y-113340714D01*
X163965952Y-113293095D01*
X163918333Y-113197857D01*
X163918333Y-112959761D01*
X163965952Y-112864523D01*
X164013571Y-112816904D01*
X164108809Y-112769285D01*
X164346904Y-112769285D01*
X164442142Y-112816904D01*
X164489761Y-112864523D01*
X164537380Y-112959761D01*
X164537380Y-113197857D01*
X164489761Y-113293095D01*
X164442142Y-113340714D01*
%TO.C,RG4*%
X159457380Y-108371666D02*
X158981190Y-108705000D01*
X159457380Y-108943095D02*
X158457380Y-108943095D01*
X158457380Y-108562142D01*
X158505000Y-108466904D01*
X158552619Y-108419285D01*
X158647857Y-108371666D01*
X158790714Y-108371666D01*
X158885952Y-108419285D01*
X158933571Y-108466904D01*
X158981190Y-108562142D01*
X158981190Y-108943095D01*
X158505000Y-107419285D02*
X158457380Y-107514523D01*
X158457380Y-107657380D01*
X158505000Y-107800238D01*
X158600238Y-107895476D01*
X158695476Y-107943095D01*
X158885952Y-107990714D01*
X159028809Y-107990714D01*
X159219285Y-107943095D01*
X159314523Y-107895476D01*
X159409761Y-107800238D01*
X159457380Y-107657380D01*
X159457380Y-107562142D01*
X159409761Y-107419285D01*
X159362142Y-107371666D01*
X159028809Y-107371666D01*
X159028809Y-107562142D01*
X158790714Y-106514523D02*
X159457380Y-106514523D01*
X158409761Y-106752619D02*
X159124047Y-106990714D01*
X159124047Y-106371666D01*
%TO.C,RG3*%
X165172380Y-96941666D02*
X164696190Y-97275000D01*
X165172380Y-97513095D02*
X164172380Y-97513095D01*
X164172380Y-97132142D01*
X164220000Y-97036904D01*
X164267619Y-96989285D01*
X164362857Y-96941666D01*
X164505714Y-96941666D01*
X164600952Y-96989285D01*
X164648571Y-97036904D01*
X164696190Y-97132142D01*
X164696190Y-97513095D01*
X164220000Y-95989285D02*
X164172380Y-96084523D01*
X164172380Y-96227380D01*
X164220000Y-96370238D01*
X164315238Y-96465476D01*
X164410476Y-96513095D01*
X164600952Y-96560714D01*
X164743809Y-96560714D01*
X164934285Y-96513095D01*
X165029523Y-96465476D01*
X165124761Y-96370238D01*
X165172380Y-96227380D01*
X165172380Y-96132142D01*
X165124761Y-95989285D01*
X165077142Y-95941666D01*
X164743809Y-95941666D01*
X164743809Y-96132142D01*
X164172380Y-95608333D02*
X164172380Y-94989285D01*
X164553333Y-95322619D01*
X164553333Y-95179761D01*
X164600952Y-95084523D01*
X164648571Y-95036904D01*
X164743809Y-94989285D01*
X164981904Y-94989285D01*
X165077142Y-95036904D01*
X165124761Y-95084523D01*
X165172380Y-95179761D01*
X165172380Y-95465476D01*
X165124761Y-95560714D01*
X165077142Y-95608333D01*
%TO.C,RG2*%
X158822380Y-89811666D02*
X158346190Y-90145000D01*
X158822380Y-90383095D02*
X157822380Y-90383095D01*
X157822380Y-90002142D01*
X157870000Y-89906904D01*
X157917619Y-89859285D01*
X158012857Y-89811666D01*
X158155714Y-89811666D01*
X158250952Y-89859285D01*
X158298571Y-89906904D01*
X158346190Y-90002142D01*
X158346190Y-90383095D01*
X157870000Y-88859285D02*
X157822380Y-88954523D01*
X157822380Y-89097380D01*
X157870000Y-89240238D01*
X157965238Y-89335476D01*
X158060476Y-89383095D01*
X158250952Y-89430714D01*
X158393809Y-89430714D01*
X158584285Y-89383095D01*
X158679523Y-89335476D01*
X158774761Y-89240238D01*
X158822380Y-89097380D01*
X158822380Y-89002142D01*
X158774761Y-88859285D01*
X158727142Y-88811666D01*
X158393809Y-88811666D01*
X158393809Y-89002142D01*
X157917619Y-88430714D02*
X157870000Y-88383095D01*
X157822380Y-88287857D01*
X157822380Y-88049761D01*
X157870000Y-87954523D01*
X157917619Y-87906904D01*
X158012857Y-87859285D01*
X158108095Y-87859285D01*
X158250952Y-87906904D01*
X158822380Y-88478333D01*
X158822380Y-87859285D01*
%TO.C,R5*%
X138627380Y-109631666D02*
X138151190Y-109965000D01*
X138627380Y-110203095D02*
X137627380Y-110203095D01*
X137627380Y-109822142D01*
X137675000Y-109726904D01*
X137722619Y-109679285D01*
X137817857Y-109631666D01*
X137960714Y-109631666D01*
X138055952Y-109679285D01*
X138103571Y-109726904D01*
X138151190Y-109822142D01*
X138151190Y-110203095D01*
X137627380Y-108726904D02*
X137627380Y-109203095D01*
X138103571Y-109250714D01*
X138055952Y-109203095D01*
X138008333Y-109107857D01*
X138008333Y-108869761D01*
X138055952Y-108774523D01*
X138103571Y-108726904D01*
X138198809Y-108679285D01*
X138436904Y-108679285D01*
X138532142Y-108726904D01*
X138579761Y-108774523D01*
X138627380Y-108869761D01*
X138627380Y-109107857D01*
X138579761Y-109203095D01*
X138532142Y-109250714D01*
%TO.C,R4*%
X150328333Y-68652380D02*
X149995000Y-68176190D01*
X149756904Y-68652380D02*
X149756904Y-67652380D01*
X150137857Y-67652380D01*
X150233095Y-67700000D01*
X150280714Y-67747619D01*
X150328333Y-67842857D01*
X150328333Y-67985714D01*
X150280714Y-68080952D01*
X150233095Y-68128571D01*
X150137857Y-68176190D01*
X149756904Y-68176190D01*
X151185476Y-67985714D02*
X151185476Y-68652380D01*
X150947380Y-67604761D02*
X150709285Y-68319047D01*
X151328333Y-68319047D01*
%TO.C,R9*%
X131007380Y-104061666D02*
X130531190Y-104395000D01*
X131007380Y-104633095D02*
X130007380Y-104633095D01*
X130007380Y-104252142D01*
X130055000Y-104156904D01*
X130102619Y-104109285D01*
X130197857Y-104061666D01*
X130340714Y-104061666D01*
X130435952Y-104109285D01*
X130483571Y-104156904D01*
X130531190Y-104252142D01*
X130531190Y-104633095D01*
X131007380Y-103585476D02*
X131007380Y-103395000D01*
X130959761Y-103299761D01*
X130912142Y-103252142D01*
X130769285Y-103156904D01*
X130578809Y-103109285D01*
X130197857Y-103109285D01*
X130102619Y-103156904D01*
X130055000Y-103204523D01*
X130007380Y-103299761D01*
X130007380Y-103490238D01*
X130055000Y-103585476D01*
X130102619Y-103633095D01*
X130197857Y-103680714D01*
X130435952Y-103680714D01*
X130531190Y-103633095D01*
X130578809Y-103585476D01*
X130626428Y-103490238D01*
X130626428Y-103299761D01*
X130578809Y-103204523D01*
X130531190Y-103156904D01*
X130435952Y-103109285D01*
%TO.C,RShunt3*%
X170552380Y-100523214D02*
X170076190Y-100856547D01*
X170552380Y-101094642D02*
X169552380Y-101094642D01*
X169552380Y-100713690D01*
X169600000Y-100618452D01*
X169647619Y-100570833D01*
X169742857Y-100523214D01*
X169885714Y-100523214D01*
X169980952Y-100570833D01*
X170028571Y-100618452D01*
X170076190Y-100713690D01*
X170076190Y-101094642D01*
X170504761Y-100142261D02*
X170552380Y-99999404D01*
X170552380Y-99761309D01*
X170504761Y-99666071D01*
X170457142Y-99618452D01*
X170361904Y-99570833D01*
X170266666Y-99570833D01*
X170171428Y-99618452D01*
X170123809Y-99666071D01*
X170076190Y-99761309D01*
X170028571Y-99951785D01*
X169980952Y-100047023D01*
X169933333Y-100094642D01*
X169838095Y-100142261D01*
X169742857Y-100142261D01*
X169647619Y-100094642D01*
X169600000Y-100047023D01*
X169552380Y-99951785D01*
X169552380Y-99713690D01*
X169600000Y-99570833D01*
X170552380Y-99142261D02*
X169552380Y-99142261D01*
X170552380Y-98713690D02*
X170028571Y-98713690D01*
X169933333Y-98761309D01*
X169885714Y-98856547D01*
X169885714Y-98999404D01*
X169933333Y-99094642D01*
X169980952Y-99142261D01*
X169885714Y-97808928D02*
X170552380Y-97808928D01*
X169885714Y-98237500D02*
X170409523Y-98237500D01*
X170504761Y-98189880D01*
X170552380Y-98094642D01*
X170552380Y-97951785D01*
X170504761Y-97856547D01*
X170457142Y-97808928D01*
X169885714Y-97332738D02*
X170552380Y-97332738D01*
X169980952Y-97332738D02*
X169933333Y-97285119D01*
X169885714Y-97189880D01*
X169885714Y-97047023D01*
X169933333Y-96951785D01*
X170028571Y-96904166D01*
X170552380Y-96904166D01*
X169885714Y-96570833D02*
X169885714Y-96189880D01*
X169552380Y-96427976D02*
X170409523Y-96427976D01*
X170504761Y-96380357D01*
X170552380Y-96285119D01*
X170552380Y-96189880D01*
X169552380Y-95951785D02*
X169552380Y-95332738D01*
X169933333Y-95666071D01*
X169933333Y-95523214D01*
X169980952Y-95427976D01*
X170028571Y-95380357D01*
X170123809Y-95332738D01*
X170361904Y-95332738D01*
X170457142Y-95380357D01*
X170504761Y-95427976D01*
X170552380Y-95523214D01*
X170552380Y-95808928D01*
X170504761Y-95904166D01*
X170457142Y-95951785D01*
%TO.C,RShunt5*%
X170552380Y-121478214D02*
X170076190Y-121811547D01*
X170552380Y-122049642D02*
X169552380Y-122049642D01*
X169552380Y-121668690D01*
X169600000Y-121573452D01*
X169647619Y-121525833D01*
X169742857Y-121478214D01*
X169885714Y-121478214D01*
X169980952Y-121525833D01*
X170028571Y-121573452D01*
X170076190Y-121668690D01*
X170076190Y-122049642D01*
X170504761Y-121097261D02*
X170552380Y-120954404D01*
X170552380Y-120716309D01*
X170504761Y-120621071D01*
X170457142Y-120573452D01*
X170361904Y-120525833D01*
X170266666Y-120525833D01*
X170171428Y-120573452D01*
X170123809Y-120621071D01*
X170076190Y-120716309D01*
X170028571Y-120906785D01*
X169980952Y-121002023D01*
X169933333Y-121049642D01*
X169838095Y-121097261D01*
X169742857Y-121097261D01*
X169647619Y-121049642D01*
X169600000Y-121002023D01*
X169552380Y-120906785D01*
X169552380Y-120668690D01*
X169600000Y-120525833D01*
X170552380Y-120097261D02*
X169552380Y-120097261D01*
X170552380Y-119668690D02*
X170028571Y-119668690D01*
X169933333Y-119716309D01*
X169885714Y-119811547D01*
X169885714Y-119954404D01*
X169933333Y-120049642D01*
X169980952Y-120097261D01*
X169885714Y-118763928D02*
X170552380Y-118763928D01*
X169885714Y-119192500D02*
X170409523Y-119192500D01*
X170504761Y-119144880D01*
X170552380Y-119049642D01*
X170552380Y-118906785D01*
X170504761Y-118811547D01*
X170457142Y-118763928D01*
X169885714Y-118287738D02*
X170552380Y-118287738D01*
X169980952Y-118287738D02*
X169933333Y-118240119D01*
X169885714Y-118144880D01*
X169885714Y-118002023D01*
X169933333Y-117906785D01*
X170028571Y-117859166D01*
X170552380Y-117859166D01*
X169885714Y-117525833D02*
X169885714Y-117144880D01*
X169552380Y-117382976D02*
X170409523Y-117382976D01*
X170504761Y-117335357D01*
X170552380Y-117240119D01*
X170552380Y-117144880D01*
X169552380Y-116335357D02*
X169552380Y-116811547D01*
X170028571Y-116859166D01*
X169980952Y-116811547D01*
X169933333Y-116716309D01*
X169933333Y-116478214D01*
X169980952Y-116382976D01*
X170028571Y-116335357D01*
X170123809Y-116287738D01*
X170361904Y-116287738D01*
X170457142Y-116335357D01*
X170504761Y-116382976D01*
X170552380Y-116478214D01*
X170552380Y-116716309D01*
X170504761Y-116811547D01*
X170457142Y-116859166D01*
%TO.C,RShunt4*%
X170552380Y-111318214D02*
X170076190Y-111651547D01*
X170552380Y-111889642D02*
X169552380Y-111889642D01*
X169552380Y-111508690D01*
X169600000Y-111413452D01*
X169647619Y-111365833D01*
X169742857Y-111318214D01*
X169885714Y-111318214D01*
X169980952Y-111365833D01*
X170028571Y-111413452D01*
X170076190Y-111508690D01*
X170076190Y-111889642D01*
X170504761Y-110937261D02*
X170552380Y-110794404D01*
X170552380Y-110556309D01*
X170504761Y-110461071D01*
X170457142Y-110413452D01*
X170361904Y-110365833D01*
X170266666Y-110365833D01*
X170171428Y-110413452D01*
X170123809Y-110461071D01*
X170076190Y-110556309D01*
X170028571Y-110746785D01*
X169980952Y-110842023D01*
X169933333Y-110889642D01*
X169838095Y-110937261D01*
X169742857Y-110937261D01*
X169647619Y-110889642D01*
X169600000Y-110842023D01*
X169552380Y-110746785D01*
X169552380Y-110508690D01*
X169600000Y-110365833D01*
X170552380Y-109937261D02*
X169552380Y-109937261D01*
X170552380Y-109508690D02*
X170028571Y-109508690D01*
X169933333Y-109556309D01*
X169885714Y-109651547D01*
X169885714Y-109794404D01*
X169933333Y-109889642D01*
X169980952Y-109937261D01*
X169885714Y-108603928D02*
X170552380Y-108603928D01*
X169885714Y-109032500D02*
X170409523Y-109032500D01*
X170504761Y-108984880D01*
X170552380Y-108889642D01*
X170552380Y-108746785D01*
X170504761Y-108651547D01*
X170457142Y-108603928D01*
X169885714Y-108127738D02*
X170552380Y-108127738D01*
X169980952Y-108127738D02*
X169933333Y-108080119D01*
X169885714Y-107984880D01*
X169885714Y-107842023D01*
X169933333Y-107746785D01*
X170028571Y-107699166D01*
X170552380Y-107699166D01*
X169885714Y-107365833D02*
X169885714Y-106984880D01*
X169552380Y-107222976D02*
X170409523Y-107222976D01*
X170504761Y-107175357D01*
X170552380Y-107080119D01*
X170552380Y-106984880D01*
X169885714Y-106222976D02*
X170552380Y-106222976D01*
X169504761Y-106461071D02*
X170219047Y-106699166D01*
X170219047Y-106080119D01*
%TO.C,RShunt2*%
X170552380Y-89093214D02*
X170076190Y-89426547D01*
X170552380Y-89664642D02*
X169552380Y-89664642D01*
X169552380Y-89283690D01*
X169600000Y-89188452D01*
X169647619Y-89140833D01*
X169742857Y-89093214D01*
X169885714Y-89093214D01*
X169980952Y-89140833D01*
X170028571Y-89188452D01*
X170076190Y-89283690D01*
X170076190Y-89664642D01*
X170504761Y-88712261D02*
X170552380Y-88569404D01*
X170552380Y-88331309D01*
X170504761Y-88236071D01*
X170457142Y-88188452D01*
X170361904Y-88140833D01*
X170266666Y-88140833D01*
X170171428Y-88188452D01*
X170123809Y-88236071D01*
X170076190Y-88331309D01*
X170028571Y-88521785D01*
X169980952Y-88617023D01*
X169933333Y-88664642D01*
X169838095Y-88712261D01*
X169742857Y-88712261D01*
X169647619Y-88664642D01*
X169600000Y-88617023D01*
X169552380Y-88521785D01*
X169552380Y-88283690D01*
X169600000Y-88140833D01*
X170552380Y-87712261D02*
X169552380Y-87712261D01*
X170552380Y-87283690D02*
X170028571Y-87283690D01*
X169933333Y-87331309D01*
X169885714Y-87426547D01*
X169885714Y-87569404D01*
X169933333Y-87664642D01*
X169980952Y-87712261D01*
X169885714Y-86378928D02*
X170552380Y-86378928D01*
X169885714Y-86807500D02*
X170409523Y-86807500D01*
X170504761Y-86759880D01*
X170552380Y-86664642D01*
X170552380Y-86521785D01*
X170504761Y-86426547D01*
X170457142Y-86378928D01*
X169885714Y-85902738D02*
X170552380Y-85902738D01*
X169980952Y-85902738D02*
X169933333Y-85855119D01*
X169885714Y-85759880D01*
X169885714Y-85617023D01*
X169933333Y-85521785D01*
X170028571Y-85474166D01*
X170552380Y-85474166D01*
X169885714Y-85140833D02*
X169885714Y-84759880D01*
X169552380Y-84997976D02*
X170409523Y-84997976D01*
X170504761Y-84950357D01*
X170552380Y-84855119D01*
X170552380Y-84759880D01*
X169647619Y-84474166D02*
X169600000Y-84426547D01*
X169552380Y-84331309D01*
X169552380Y-84093214D01*
X169600000Y-83997976D01*
X169647619Y-83950357D01*
X169742857Y-83902738D01*
X169838095Y-83902738D01*
X169980952Y-83950357D01*
X170552380Y-84521785D01*
X170552380Y-83902738D01*
%TO.C,RShunt1*%
X170552380Y-78933214D02*
X170076190Y-79266547D01*
X170552380Y-79504642D02*
X169552380Y-79504642D01*
X169552380Y-79123690D01*
X169600000Y-79028452D01*
X169647619Y-78980833D01*
X169742857Y-78933214D01*
X169885714Y-78933214D01*
X169980952Y-78980833D01*
X170028571Y-79028452D01*
X170076190Y-79123690D01*
X170076190Y-79504642D01*
X170504761Y-78552261D02*
X170552380Y-78409404D01*
X170552380Y-78171309D01*
X170504761Y-78076071D01*
X170457142Y-78028452D01*
X170361904Y-77980833D01*
X170266666Y-77980833D01*
X170171428Y-78028452D01*
X170123809Y-78076071D01*
X170076190Y-78171309D01*
X170028571Y-78361785D01*
X169980952Y-78457023D01*
X169933333Y-78504642D01*
X169838095Y-78552261D01*
X169742857Y-78552261D01*
X169647619Y-78504642D01*
X169600000Y-78457023D01*
X169552380Y-78361785D01*
X169552380Y-78123690D01*
X169600000Y-77980833D01*
X170552380Y-77552261D02*
X169552380Y-77552261D01*
X170552380Y-77123690D02*
X170028571Y-77123690D01*
X169933333Y-77171309D01*
X169885714Y-77266547D01*
X169885714Y-77409404D01*
X169933333Y-77504642D01*
X169980952Y-77552261D01*
X169885714Y-76218928D02*
X170552380Y-76218928D01*
X169885714Y-76647500D02*
X170409523Y-76647500D01*
X170504761Y-76599880D01*
X170552380Y-76504642D01*
X170552380Y-76361785D01*
X170504761Y-76266547D01*
X170457142Y-76218928D01*
X169885714Y-75742738D02*
X170552380Y-75742738D01*
X169980952Y-75742738D02*
X169933333Y-75695119D01*
X169885714Y-75599880D01*
X169885714Y-75457023D01*
X169933333Y-75361785D01*
X170028571Y-75314166D01*
X170552380Y-75314166D01*
X169885714Y-74980833D02*
X169885714Y-74599880D01*
X169552380Y-74837976D02*
X170409523Y-74837976D01*
X170504761Y-74790357D01*
X170552380Y-74695119D01*
X170552380Y-74599880D01*
X170552380Y-73742738D02*
X170552380Y-74314166D01*
X170552380Y-74028452D02*
X169552380Y-74028452D01*
X169695238Y-74123690D01*
X169790476Y-74218928D01*
X169838095Y-74314166D01*
%TO.C,J3*%
X182546666Y-68032380D02*
X182546666Y-68746666D01*
X182499047Y-68889523D01*
X182403809Y-68984761D01*
X182260952Y-69032380D01*
X182165714Y-69032380D01*
X182927619Y-68032380D02*
X183546666Y-68032380D01*
X183213333Y-68413333D01*
X183356190Y-68413333D01*
X183451428Y-68460952D01*
X183499047Y-68508571D01*
X183546666Y-68603809D01*
X183546666Y-68841904D01*
X183499047Y-68937142D01*
X183451428Y-68984761D01*
X183356190Y-69032380D01*
X183070476Y-69032380D01*
X182975238Y-68984761D01*
X182927619Y-68937142D01*
%TD*%
M02*
