%TF.GenerationSoftware,KiCad,Pcbnew,5.0.2-bee76a0~70~ubuntu18.04.1*%
%TF.CreationDate,2019-03-23T16:18:42+02:00*%
%TF.ProjectId,servos_control_schem,73657276-6f73-45f6-936f-6e74726f6c5f,rev?*%
%TF.SameCoordinates,Original*%
%TF.FileFunction,Plated,1,2,PTH,Drill*%
%TF.FilePolarity,Positive*%
%FSLAX46Y46*%
G04 Gerber Fmt 4.6, Leading zero omitted, Abs format (unit mm)*
G04 Created by KiCad (PCBNEW 5.0.2-bee76a0~70~ubuntu18.04.1) date Sat 23 Mar 2019 04:18:42 PM EET*
%MOMM*%
%LPD*%
G01*
G04 APERTURE LIST*
%TA.AperFunction,ViaDrill*%
%ADD10C,0.300000*%
%TD*%
%TA.AperFunction,ViaDrill*%
%ADD11C,0.400000*%
%TD*%
%TA.AperFunction,ComponentDrill*%
%ADD12C,1.000000*%
%TD*%
%TA.AperFunction,ComponentDrill*%
%ADD13C,1.016000*%
%TD*%
%TA.AperFunction,ComponentDrill*%
%ADD14C,1.520000*%
%TD*%
G04 APERTURE END LIST*
D10*
X138830000Y-96374000D03*
X139630000Y-96958000D03*
X144145000Y-102235000D03*
X165100000Y-120650000D03*
D11*
X115570000Y-90170000D03*
X115570000Y-94615000D03*
X117475000Y-60960000D03*
X125730000Y-113665000D03*
X126365000Y-98425000D03*
X126365000Y-102870000D03*
X127000000Y-93345000D03*
X128905000Y-124460000D03*
X129540000Y-60960000D03*
X129540000Y-73660000D03*
X129540000Y-87376000D03*
X130048000Y-89535000D03*
X131572000Y-93980000D03*
X133350000Y-105410000D03*
X135630000Y-104775000D03*
X136049000Y-96425000D03*
X136430000Y-105315000D03*
X136525000Y-98044000D03*
X136709000Y-99625000D03*
X137230000Y-106045000D03*
X138030000Y-106680000D03*
X138575000Y-108440000D03*
X139065000Y-92075000D03*
X139700000Y-107315000D03*
X139700000Y-118110000D03*
X140335000Y-92075000D03*
X140583000Y-101225000D03*
X140716000Y-100425000D03*
X140913000Y-97225000D03*
X141605000Y-92075000D03*
X142240000Y-120015000D03*
X142875000Y-109220000D03*
X144145000Y-103505000D03*
X144545000Y-98825000D03*
X145415000Y-72390000D03*
X145415000Y-74295000D03*
X146050000Y-95250000D03*
X147320000Y-101600000D03*
X151130000Y-113030000D03*
X151765000Y-84455000D03*
X153035000Y-124460000D03*
X153670000Y-67945000D03*
X153670000Y-130175000D03*
X154305000Y-109220000D03*
X154305000Y-110490000D03*
X154305000Y-120650000D03*
X154940000Y-78740000D03*
X154940000Y-90424000D03*
X154940000Y-100330000D03*
X155073372Y-92843372D03*
X156845000Y-84455000D03*
X156845000Y-120015000D03*
X158115000Y-86995000D03*
X158115000Y-92075000D03*
X158115000Y-96520000D03*
X158115000Y-106680000D03*
X159385000Y-115570000D03*
X160528000Y-100330000D03*
X161290000Y-69215000D03*
X161290000Y-83185000D03*
X161290000Y-84455000D03*
X161290000Y-97155000D03*
X161544000Y-91440000D03*
X161925000Y-78740000D03*
X161925000Y-86360000D03*
X163195000Y-114300000D03*
X163830000Y-112395000D03*
X165735000Y-125095000D03*
X166370000Y-83185000D03*
X167005000Y-123825000D03*
X167005000Y-131445000D03*
X167640000Y-83185000D03*
X168275000Y-73660000D03*
X168910000Y-108585000D03*
X168910000Y-121920000D03*
X168910000Y-130810000D03*
X169545000Y-79375000D03*
X169545000Y-86995000D03*
X169545000Y-90170000D03*
X169545000Y-99060000D03*
X169635001Y-129449999D03*
X171450000Y-92710000D03*
X172720000Y-103505000D03*
X172720000Y-113665000D03*
X182245000Y-73025000D03*
X182245000Y-81280000D03*
D12*
%TO.C,M1*%
X186055000Y-72390000D03*
X186055000Y-74930000D03*
X186055000Y-77470000D03*
%TO.C,M3*%
X186055000Y-94615000D03*
X186055000Y-97155000D03*
X186055000Y-99695000D03*
%TO.C,CSEN1*%
X178435000Y-72390000D03*
X178435000Y-74930000D03*
X178435000Y-77470000D03*
%TO.C,CSEN4*%
X178435000Y-105410000D03*
X178435000Y-107950000D03*
X178435000Y-110490000D03*
%TO.C,M5*%
X186055000Y-116205000D03*
X186055000Y-118745000D03*
X186055000Y-121285000D03*
%TO.C,M6*%
X186055000Y-127635000D03*
X186055000Y-130175000D03*
X186055000Y-132715000D03*
%TO.C,CSEN2*%
X178435000Y-83185000D03*
X178435000Y-85725000D03*
X178435000Y-88265000D03*
%TO.C,CSEN5*%
X178435000Y-116205000D03*
X178435000Y-118745000D03*
X178435000Y-121285000D03*
%TO.C,M2*%
X186055000Y-83185000D03*
X186055000Y-85725000D03*
X186055000Y-88265000D03*
%TO.C,CSEN6*%
X178435000Y-127635000D03*
X178435000Y-130175000D03*
X178435000Y-132715000D03*
%TO.C,CSEN3*%
X178435000Y-94615000D03*
X178435000Y-97155000D03*
X178435000Y-99695000D03*
%TO.C,M4*%
X186055000Y-105410000D03*
X186055000Y-107950000D03*
X186055000Y-110490000D03*
D13*
%TO.C,J1*%
X131445000Y-115570000D03*
X131445000Y-118110000D03*
X133985000Y-115570000D03*
X133985000Y-118110000D03*
X136525000Y-115570000D03*
X136525000Y-118110000D03*
%TO.C,J2*%
X119380000Y-80010000D03*
X119380000Y-82550000D03*
X119380000Y-85090000D03*
X119380000Y-87630000D03*
X119380000Y-90170000D03*
X119380000Y-92710000D03*
X119380000Y-95250000D03*
X119380000Y-97790000D03*
X119380000Y-100330000D03*
X119380000Y-102870000D03*
X119380000Y-105410000D03*
X119380000Y-107950000D03*
X119380000Y-110490000D03*
X119380000Y-113030000D03*
X119380000Y-115570000D03*
X119380000Y-118110000D03*
X119380000Y-120650000D03*
X119380000Y-123190000D03*
X119380000Y-125730000D03*
X119380000Y-128270000D03*
X121920000Y-80010000D03*
X121920000Y-82550000D03*
X121920000Y-85090000D03*
X121920000Y-87630000D03*
X121920000Y-90170000D03*
X121920000Y-92710000D03*
X121920000Y-95250000D03*
X121920000Y-97790000D03*
X121920000Y-100330000D03*
X121920000Y-102870000D03*
X121920000Y-105410000D03*
X121920000Y-107950000D03*
X121920000Y-110490000D03*
X121920000Y-113030000D03*
X121920000Y-115570000D03*
X121920000Y-118110000D03*
X121920000Y-120650000D03*
X121920000Y-123190000D03*
X121920000Y-125730000D03*
X121920000Y-128270000D03*
D14*
%TO.C,J3*%
X177800000Y-64135000D03*
X182880000Y-64135000D03*
M02*
